<?xml version="1.0" encoding="utf-8"?>
<!-- Generator: Adobe Illustrator 16.0.0, SVG Export Plug-In . SVG Version: 6.00 Build 0)  -->
<!DOCTYPE svg PUBLIC "-//W3C//DTD SVG 1.1//EN" "http://www.w3.org/Graphics/SVG/1.1/DTD/svg11.dtd">
<svg version="1.1" id="Layer_1" xmlns="http://www.w3.org/2000/svg" xmlns:xlink="http://www.w3.org/1999/xlink" x="0px" y="0px"
	 width="744.713px" height="125.941px" viewBox="0 0 744.713 125.941" enable-background="new 0 0 744.713 125.941"
	 xml:space="preserve">
<circle fill="#94BB42" cx="89.83" cy="15.485" r="15.487"/>
<g>
	<polygon fill="#94BB42" points="76.669,34.076 52.66,62.124 52.66,93.126 72.408,70.28 72.408,126.995 105.317,126.995 
		105.317,34.076 	"/>
	<polygon fill="#5E6AB2" points="28.648,34.076 52.654,62.124 52.654,93.126 32.909,70.28 32.909,126.995 0,126.995 0,34.076 	"/>
</g>
<circle fill="#5E6AB2" cx="15.485" cy="15.485" r="15.485"/>
<g>
	<path fill="#222B36" d="M187.464,92.552c0.619,1.474,1.228,2.958,1.826,4.453c0.598-1.538,1.218-3.054,1.858-4.55
		c0.641-1.494,1.323-2.925,2.051-4.293l27.425-51.326c0.342-0.641,0.694-1.153,1.058-1.538c0.362-0.385,0.769-0.662,1.218-0.833
		c0.448-0.17,0.95-0.277,1.506-0.32c0.555-0.042,1.217-0.064,1.986-0.064H239.4v92.657h-15.187V66.889
		c0-1.11,0.032-2.328,0.096-3.652c0.064-1.324,0.16-2.67,0.288-4.037l-28.002,52.544c-0.641,1.196-1.474,2.125-2.499,2.787
		c-1.025,0.663-2.222,0.993-3.588,0.993h-2.371c-1.367,0-2.563-0.33-3.588-0.993c-1.025-0.662-1.858-1.591-2.5-2.787l-28.386-52.736
		c0.17,1.409,0.288,2.787,0.352,4.133c0.064,1.346,0.097,2.596,0.097,3.749v59.849h-15.187V34.081h13.008
		c0.769,0,1.431,0.022,1.986,0.064c0.555,0.043,1.058,0.15,1.506,0.32c0.448,0.171,0.865,0.448,1.25,0.833
		c0.384,0.385,0.746,0.897,1.089,1.538l27.682,51.454C186.171,89.659,186.844,91.079,187.464,92.552z"/>
	<path fill="#222B36" d="M322.957,34.081v13.713h-41.074v25.695h32.359v13.265h-32.359v26.208h41.074v13.776h-58.439V34.081H322.957
		z"/>
	<path fill="#222B36" d="M402.734,34.081v13.713H361.66v25.695h32.359v13.265H361.66v26.208h41.074v13.776h-58.439V34.081H402.734z"
		/>
	<path fill="#222B36" d="M489.367,34.081v14.161h-27.874v78.496h-17.237V48.242h-28.002V34.081H489.367z"/>
	<path fill="#222B36" d="M526.146,126.738h-17.302V34.081h17.302V126.738z"/>
	<path fill="#222B36" d="M564.334,34.177c0.513,0.063,0.972,0.192,1.378,0.384c0.405,0.192,0.801,0.471,1.186,0.833
		c0.385,0.364,0.811,0.845,1.281,1.442l48.636,61.963c-0.172-1.494-0.289-2.957-0.353-4.389c-0.064-1.431-0.097-2.766-0.097-4.005
		V34.081h15.187v92.657h-8.906c-1.368,0-2.499-0.213-3.396-0.641c-0.896-0.427-1.773-1.195-2.627-2.307l-48.443-61.708
		c0.128,1.368,0.225,2.724,0.288,4.069c0.064,1.346,0.097,2.574,0.097,3.685v56.901h-15.187V34.081h9.035
		C563.181,34.081,563.822,34.113,564.334,34.177z"/>
	<path fill="#222B36" d="M738.115,126.738h-13.328c-1.496,0-2.724-0.373-3.685-1.121c-0.961-0.747-1.656-1.677-2.083-2.788
		l-6.92-18.902h-38.383l-6.921,18.902c-0.342,0.983-1.015,1.881-2.019,2.691c-1.004,0.813-2.232,1.218-3.685,1.218h-13.392
		l36.396-92.657h17.621L738.115,126.738z M678.137,91.751h29.54L696.4,60.929c-0.513-1.366-1.079-2.979-1.698-4.838
		c-0.62-1.857-1.229-3.876-1.826-6.055c-0.599,2.179-1.186,4.208-1.762,6.087c-0.577,1.881-1.144,3.524-1.698,4.935L678.137,91.751z
		"/>
</g>
</svg>
