<?xml version="1.0" encoding="UTF-8"?>
<!-- Generator: Adobe Illustrator 16.0.0, SVG Export Plug-In . SVG Version: 6.00 Build 0)  -->
<!DOCTYPE svg PUBLIC "-//W3C//DTD SVG 1.1//EN" "http://www.w3.org/Graphics/SVG/1.1/DTD/svg11.dtd">
<svg version="1.1" id="Layer_1" xmlns="http://www.w3.org/2000/svg" xmlns:xlink="http://www.w3.org/1999/xlink" x="0px" y="0px" width="80px" height="38px" viewBox="0 0 80 38" enable-background="new 0 0 80 38" xml:space="preserve">
<g id="Layer_1_1_">
	<path fill="#3A3A3A" d="M22.527,15.985c0,0-0.182,0.713-0.354,0.995c-0.17,0.281,0,0,0,0l-1.143,8.735c0,0,3.388-1.059,5.859-4.376   c2.47-3.312,0,0,0,0L22.527,15.985"/>
	<path fill="#7ED6AD" d="M38.676,10.948l-4.512,4.166c0,0,1.906,0.963,8.138,0.994c6.23,0.034,0,0,0,0s1.554-0.119,1.915,0.018   c0.356,0.14,0,0,0,0L38.676,10.948"/>
	<path fill="#00BCD4" d="M7.649,34.955c-0.406,0.13-1.772-0.34-6.279,2.959L1.406,10.64C1.859,4.681,8.267,0.367,12.47,0.223   c8.965-0.509,14.866,2.09,16.522,11.682c0,0,0.811,6.944-2.829,10.198l17.092,0.022c3.94-0.369,4.044-4.83,0.958-6.001   c0,0-7.702,0-9.764-0.902c-8.217-2.962-4.834-14.904,2.009-14.736L66.2,0.394c15.549,0.487,16.952,25.583-0.698,26.903H55.165   c-0.319,0-0.796-0.432-0.796-0.744l0.007-21.266L38.748,5.308c0,0-1.508,0.105-2.009,1.382c-0.506,1.724-0.088,3.658,2.092,4.308   l8.034,0.186c8.502,0.538,8.343,14.14-0.135,15.794l-32.461-0.053c0,0-2.487,0.346-5.251-1.703l-0.056-7.077   c1.608,1.452,2.318,3.526,7.766,3.084c8.37-1.293,8.303-14.819-1.062-15.485h-2.345c0,0-4.86,1.009-5.755,5.64L7.649,34.955   L7.649,34.955z M60.721,5.557l-0.168,16.335l4.749-0.219C75.898,19.207,73.832,3.999,60.721,5.557z"/>
	<path fill="#12ADC5" d="M7.593,19.099l0.034,16.064c0,0-3.1,0.226-6.245,2.744L7.593,19.099z"/>
	<path fill="#A1E6C6" d="M54.371,26.584c0.059,0.318,0.431,0.66,0.763,0.713l5.335-12.942l-6.098-1.707V26.584z"/>
	<path fill="#7ED6AD" d="M7.522,18.823l-6.145,1.558c-0.009-3.112-0.179-6.342,0.05-9.449L7.522,18.823z"/>
	<path fill="#12ADC5" d="M1.406,10.838l6.132,0.836L8.376,1.429C8.376,1.429,1.906,3.927,1.406,10.838z"/>
	<path fill="#91E6BE" d="M8.365,1.375l5.517,4.37l5.1-5.189C16.822,0.165,11.692-0.547,8.365,1.375z"/>
	<path fill="#12ADC5" d="M17.176,21.23l3.875,4.576c-1.847,1.082-8.288,2.422-11.99-0.533L17.176,21.23z"/>
	<polygon fill="#91E6BE" points="7.512,11.72 7.537,18.84 1.411,10.845  "/>
	<polygon fill="#00BCD4" points="7.593,18.868 1.371,37.915 1.395,20.45  "/>
	<path fill="#00BCD4" d="M22.788,15.836l6.067-4.707c0,0,0.664,7.165-1.839,10.055L22.788,15.836z"/>
	<path fill="#7ED6AD" d="M17.186,21.146l3.866,4.662l1.124-8.827C21.251,18.973,19.74,20.484,17.186,21.146z"/>
	<path fill="#00BCD4" d="M16.862,26.98l9.64-0.037L25.81,22.59C25.81,22.589,22.342,26.305,16.862,26.98z"/>
	<polygon fill="#12ADC5" points="26.447,26.943 33.819,22.116 26.289,21.945 25.681,22.589  "/>
	<path fill="#7ED6AD" d="M33.991,22.116l8.063,0.011l-1.918,4.846C37.278,25.352,35.166,23.42,33.991,22.116z"/>
	<path fill="#91E6BE" d="M42.055,22.127l7.452,3.729c0,0-1.1,0.928-2.774,1.123l-6.658-0.011L42.055,22.127z"/>
	<path fill="#12ADC5" d="M46.289,19.879l6.816-0.238c0,0-0.106,3.305-3.236,5.957L46.289,19.879z"/>
	<path fill="#7ED6AD" d="M44.49,16.234l8.623,3.301c0.352-3.334-0.984-8.203-6.459-8.367L44.49,16.234z"/>
	<polygon fill="#91E6BE" points="38.815,11.011 46.662,11.188 44.441,16.262  "/>
	<path fill="#12ADC5" d="M31.675,2.765l5.658,3.111l-7.602,3.798C29.73,9.675,29.04,5.817,31.675,2.765z"/>
	<path fill="#00BCD4" d="M36.46,0.489l0.979,5.305l-5.695-3.11C31.745,2.684,33.426,0.429,36.46,0.489z"/>
	<path fill="#7ED6AD" d="M36.533,0.487l0.948,5.28c0.185-0.129,0.423-0.248,0.73-0.349l10.502-4.967L36.533,0.487z"/>
	<polygon fill="#12ADC5" points="54.379,5.281 49.172,0.448 54.32,0.433  "/>
	<polygon fill="#91E6BE" points="54.782,0.432 63.295,0.406 60.631,5.554  "/>
	<path fill="#00BCD4" d="M69.915,19.165l2.474,5.972l-6.83-3.519C65.553,21.618,68.376,21.044,69.915,19.165z"/>
	<path fill="#12ADC5" d="M60.752,27.3l4.55-5.624l6.812,3.625C69.082,27.225,65.756,27.503,60.752,27.3z"/>
	<polygon fill="#00BCD4" points="54.376,5.399 60.366,14.293 54.374,12.544  "/>
	<polygon fill="#12ADC5" points="60.721,5.557 60.631,14.391 54.376,5.288  "/>
	<path fill="#7ED6AD" d="M71.975,12.5l4.383-6.14c1.875,2.782,2.516,7.431,1.312,11.695L71.975,12.5z"/>
	<path fill="#7ED6AD" d="M13.882,5.745l5.1-5.188c0,0,5.542,0.929,7.6,4.773L13.882,5.745z"/>
	<path fill="#12ADC5" d="M22.527,15.985c0,0,0.517-1.774,0.278-3.339l6.189-0.227c0,0,0.554,6.057-2.104,8.919L22.527,15.985z"/>
	<path fill="#91E6BE" d="M22.155,17.038l-1.146,8.735c0,0,3.597-1.284,5.839-4.438l-4.335-5.264   C22.513,16.075,22.303,16.86,22.155,17.038z"/>
	<polygon fill="#91E6BE" points="38.47,5.319 48.712,0.449 50.354,5.319  "/>
	<path fill="#7ED6AD" d="M60.668,5.543l2.629-5.138l3.354,5.716C66.648,6.123,63.266,5.086,60.668,5.543z"/>
	<path fill="#12ADC5" d="M70.177,18.876l7.425-0.605c0,0-1.438,4.846-5.49,7.032L70.177,18.876z"/>
	<path fill="#91E6BE" d="M70.177,18.876c0,0,2.388-2.565,1.798-6.377l5.692,5.555l-0.065,0.212"/>
	<path fill="#7ED6AD" d="M38.71,10.967l-4.524,4.099c0,0,0.864,0.923,10.279,1.148L38.71,10.967z"/>
	<g>
		<path fill="#12ADC5" d="M11.71,32.691v2.103h-1.137v-5.803h2.258c0.652,0,1.164,0.171,1.539,0.513    c0.373,0.342,0.561,0.788,0.561,1.344c0,0.555-0.188,1-0.561,1.336c-0.375,0.336-0.886,0.506-1.539,0.506H11.71V32.691z     M11.71,31.796h1.122c0.317,0,0.558-0.088,0.72-0.265c0.165-0.18,0.246-0.402,0.246-0.68c0-0.276-0.08-0.511-0.244-0.688    c-0.161-0.183-0.403-0.271-0.722-0.271H11.71V31.796L11.71,31.796z"/>
		<path fill="#12ADC5" d="M21.221,33.28c0-0.224-0.077-0.404-0.231-0.534c-0.155-0.139-0.427-0.268-0.813-0.385    c-0.673-0.2-1.185-0.438-1.529-0.709c-0.345-0.272-0.519-0.65-0.519-1.122c0-0.476,0.199-0.863,0.594-1.169    c0.396-0.301,0.902-0.449,1.517-0.449c0.623,0,1.129,0.169,1.521,0.507c0.394,0.342,0.58,0.757,0.569,1.253l-0.009,0.026h-1.102    c0-0.269-0.088-0.483-0.261-0.652c-0.176-0.165-0.421-0.249-0.737-0.249c-0.305,0-0.54,0.068-0.707,0.207    c-0.166,0.139-0.25,0.314-0.25,0.529c0,0.195,0.088,0.355,0.267,0.482c0.177,0.127,0.482,0.26,0.92,0.4    c0.626,0.174,1.101,0.411,1.422,0.706c0.322,0.289,0.483,0.674,0.483,1.147c0,0.496-0.192,0.891-0.575,1.178    c-0.383,0.285-0.889,0.431-1.518,0.431c-0.618,0-1.156-0.163-1.614-0.487c-0.459-0.324-0.683-0.781-0.671-1.369l0.008-0.024h1.107    c0,0.346,0.104,0.597,0.308,0.76c0.208,0.158,0.495,0.241,0.864,0.241c0.309,0,0.544-0.068,0.709-0.196    C21.14,33.676,21.221,33.496,21.221,33.28z"/>
		<path fill="#12ADC5" d="M25.611,34.794v-5.803h1.947c0.691,0,1.263,0.225,1.713,0.683c0.449,0.451,0.672,1.033,0.672,1.742v0.958    c0,0.713-0.223,1.293-0.672,1.744c-0.45,0.448-1.021,0.673-1.713,0.673L25.611,34.794L25.611,34.794z M26.748,29.891v4.01h0.751    c0.409,0,0.728-0.145,0.957-0.426c0.233-0.281,0.346-0.646,0.346-1.102v-0.969c0-0.45-0.116-0.813-0.346-1.094    c-0.229-0.281-0.549-0.42-0.957-0.42H26.748L26.748,29.891z"/>
		<path fill="#12ADC5" d="M36.955,34.794h-3.871v-0.759l1.832-2.016c0.265-0.313,0.454-0.57,0.565-0.787    c0.114-0.213,0.168-0.412,0.168-0.594c0-0.246-0.065-0.445-0.192-0.602c-0.129-0.154-0.31-0.232-0.546-0.232    c-0.261,0-0.462,0.088-0.598,0.271c-0.136,0.186-0.204,0.426-0.204,0.729H33l-0.005-0.023c-0.015-0.522,0.156-0.969,0.502-1.329    c0.349-0.364,0.821-0.545,1.411-0.545c0.584,0,1.043,0.155,1.377,0.466c0.333,0.311,0.501,0.725,0.501,1.243    c0,0.353-0.095,0.674-0.283,0.971c-0.19,0.293-0.5,0.687-0.931,1.164l-1.012,1.125l0.008,0.021h2.386L36.955,34.794L36.955,34.794    z"/>
		<path fill="#12ADC5" d="M44.777,34.794h-1.133v-2.405h-2.313v2.405h-1.138v-5.803h1.138v2.497h2.313v-2.497h1.133V34.794z"/>
		<path fill="#12ADC5" d="M52.15,29.891h-1.604v4.903h-1.139v-4.903h-1.599v-0.897h4.338v0.897H52.15z"/>
		<path fill="#12ADC5" d="M56.662,28.991l1.441,4.274h0.023l1.455-4.274h1.49v5.803h-1.139v-1.729l0.106-2.562l-0.021-0.002    l-1.519,4.292H57.74l-1.508-4.275l-0.023,0.002l0.109,2.549v1.727H55.18v-5.803L56.662,28.991L56.662,28.991z"/>
		<path fill="#12ADC5" d="M65.664,33.896h2.523v0.896h-3.66V28.99h1.137V33.896z"/>
		<path fill="#12ADC5" d="M71.232,32.225l0.328-3.229h3.162v0.932H72.49l-0.157,1.338c0.104-0.078,0.229-0.146,0.379-0.195    c0.147-0.053,0.312-0.079,0.49-0.08c0.546-0.014,0.969,0.156,1.269,0.503c0.301,0.347,0.45,0.827,0.45,1.44    c0,0.563-0.166,1.023-0.491,1.393c-0.33,0.367-0.804,0.557-1.42,0.557c-0.521,0-0.97-0.146-1.341-0.438    c-0.372-0.293-0.551-0.691-0.541-1.204l0.013-0.021l1.094-0.055c0,0.257,0.072,0.459,0.216,0.604    c0.142,0.144,0.327,0.215,0.562,0.215c0.264,0,0.461-0.094,0.584-0.287c0.129-0.195,0.189-0.443,0.189-0.752    c0-0.336-0.066-0.604-0.201-0.805c-0.139-0.199-0.336-0.304-0.602-0.304c-0.217,0-0.385,0.039-0.504,0.122    c-0.111,0.082-0.192,0.196-0.244,0.334L71.232,32.225z"/>
	</g>
	
		<linearGradient id="SVGID_1_" gradientUnits="userSpaceOnUse" x1="33.8413" y1="-996.5938" x2="19.0831" y2="-1020.3298" gradientTransform="matrix(0.997 -0.0768 -0.0768 -0.997 -81.4501 -986.799)">
		<stop offset="0" style="stop-color:#E6DCD7"/>
		<stop offset="1" style="stop-color:#B9A8A9"/>
	</linearGradient>
	<path fill="url(#SVGID_1_)" d="M26.643,8.387c0.01,0.011,0.021,0.023,0.032,0.038c-0.016-0.016-0.032-0.032-0.055-0.046   C26.626,8.381,26.634,8.386,26.643,8.387z"/>
</g>
</svg>