<?xml version="1.0" encoding="utf-8"?>
<!-- Generator: Adobe Illustrator 25.1.0, SVG Export Plug-In . SVG Version: 6.00 Build 0)  -->
<svg version="1.1" id="Layer_1" xmlns="http://www.w3.org/2000/svg" xmlns:xlink="http://www.w3.org/1999/xlink" x="0px" y="0px"
	 viewBox="0 0 275.8 77.6" style="enable-background:new 0 0 275.8 77.6;" xml:space="preserve">
<style type="text/css">
	.st0{fill:#FFFFFF;stroke:#00AF91;stroke-width:8;stroke-linecap:round;stroke-linejoin:round;stroke-miterlimit:10;}
	.st1{fill:#DF6040;}
	.st2{fill:#00AF91;}
</style>
<g>
	<g>
		<path d="M108,65.4c-2.3,2-5.6,2.9-10,2.9c-4.3,0-7.6-0.9-10.2-2.7c-2.5-1.8-4-4.6-4.3-8.4h6.4c0.3,2,1.1,3.5,2.4,4.5
			s3.2,1.4,5.8,1.4c2.5,0,4.2-0.5,5.2-1.5c1-1,1.5-2.2,1.5-3.6c0-1.1-0.3-2.1-1-3c-0.7-0.9-2.1-1.5-4.2-1.9l-4.4-0.8
			c-3.6-0.6-6.2-1.7-8.1-3.2c-1.8-1.5-2.8-3.8-2.8-6.9c0-2.2,0.6-4,1.7-5.5c1.1-1.5,2.7-2.6,4.7-3.3c2-0.8,4.3-1.1,6.9-1.1
			c3,0,5.4,0.4,7.2,1.3c1.8,0.8,3.2,2,4.2,3.4c0.9,1.4,1.6,3,1.8,4.8l-6.1,0.9c-0.4-1.7-1.2-3-2.2-3.9c-1-0.8-2.7-1.3-5-1.3
			c-2.5,0-4.3,0.4-5.3,1.3c-1,0.9-1.5,2-1.5,3.3c0,1.3,0.4,2.4,1.2,3.1c0.8,0.7,2.2,1.2,4.2,1.6l4.8,0.9c3.7,0.7,6.4,1.9,8.1,3.5
			c1.7,1.6,2.5,3.9,2.5,6.9C111.4,61,110.3,63.5,108,65.4z"/>
		<path d="M116.4,33.2h6v12.5c1.2-1.5,2.5-2.5,3.9-3.1c1.3-0.6,2.7-0.9,4.2-0.9c2.8,0,4.8,0.8,6.2,2.3c1.4,1.6,2.1,3.8,2.1,6.7v16.7
			h-6V51.9c0-1.9-0.3-3.2-1-4c-0.7-0.8-1.7-1.2-3.1-1.2c-0.8,0-1.6,0.1-2.3,0.4s-1.4,0.7-2,1.3c-0.6,0.5-1.1,1.1-1.4,1.8
			c-0.3,0.6-0.5,1.4-0.5,2.5v14.7h-6V33.2z"/>
		<path d="M165.4,64.7c-2.2,2.4-5.3,3.6-9.2,3.6c-3.9,0-7-1.2-9.1-3.5c-2.2-2.3-3.2-5.6-3.2-9.7c0-2.8,0.5-5.1,1.5-7.1
			c1-2,2.5-3.5,4.3-4.6c1.9-1.1,4.1-1.6,6.6-1.6c3.9,0,6.9,1.2,9.1,3.5c2.2,2.3,3.3,5.5,3.3,9.6C168.7,59,167.6,62.3,165.4,64.7z
			 M156.2,63.4c2.2,0,3.8-0.8,4.8-2.3c1-1.5,1.5-3.6,1.5-6.1c0-2.5-0.5-4.5-1.5-6c-1-1.5-2.6-2.3-4.8-2.3c-2.1,0-3.7,0.8-4.7,2.3
			c-1,1.5-1.5,3.5-1.5,6c0,2.5,0.5,4.6,1.5,6.1C152.5,62.6,154,63.4,156.2,63.4z"/>
		<path d="M173.8,42.5h5.9v3.2c2-2.6,4.6-3.9,7.9-3.9c3.5,0,6,1.2,7.8,3.6c1.7,2.4,2.6,5.5,2.6,9.5c0,2.8-0.4,5.1-1.3,7.2
			c-0.9,2-2.1,3.6-3.7,4.7c-1.6,1.1-3.5,1.6-5.8,1.6c-1.4,0-2.7-0.3-4-0.8c-1.3-0.5-2.4-1.4-3.3-2.7v12h-6V42.5z M190.1,61.4
			c1.1-1.3,1.7-3.5,1.7-6.5c0-2-0.3-3.7-0.8-4.9c-0.5-1.2-1.2-2.1-2.1-2.6s-1.8-0.8-2.8-0.8c-2.1,0-3.6,0.7-4.7,2.1
			c-1,1.4-1.6,3.2-1.6,5.4v1.4c0,2.4,0.5,4.3,1.5,5.7c1,1.4,2.5,2.1,4.5,2.1C187.6,63.4,189,62.7,190.1,61.4z"/>
		<path d="M214.9,69c-0.8,1.9-1.5,3.5-2.2,4.7c-0.7,1.2-1.6,2.1-2.5,2.7c-1,0.6-2.2,0.9-3.7,0.9c-1.6,0-3.2-0.3-4.8-0.8l1-4.6
			c1.1,0.3,2,0.5,2.8,0.5c1,0,1.7-0.3,2.3-0.9c0.5-0.6,1.1-1.6,1.6-3.1l0.8-2.3l-10.4-23.7h6.7l6.6,17.4l6-17.4h6.4L214.9,69z"/>
		<path d="M251.9,67.5h-6.7l-5.8-8.8l-5.8,8.8h-6.5l9-12.9L228,42.5h6.8l4.9,7.8l5.2-7.8h6.2l-8.1,11.8L251.9,67.5z"/>
		<path d="M275.8,67.5h-5.6v-3.1c-1,1.1-2.1,2-3.4,2.7c-1.3,0.7-2.9,1-4.8,1c-2.5,0-4.6-0.6-6.2-1.9c-1.6-1.3-2.4-3.2-2.4-5.6
			c0-1.6,0.3-3,1-4.1c0.7-1.1,1.6-1.9,2.8-2.6c1.2-0.6,2.5-1.1,4.1-1.3c1.5-0.3,3.1-0.4,4.8-0.5l3.8-0.1V51c0-1.7-0.4-3-1.1-3.8
			c-0.7-0.8-1.9-1.2-3.6-1.2c-1.6,0-2.8,0.3-3.6,0.8c-0.8,0.6-1.3,1.4-1.5,2.4l-5.4-0.5c0.4-2.4,1.6-4.2,3.4-5.4
			c1.8-1.1,4.2-1.7,7.3-1.7c3.7,0,6.4,0.8,7.9,2.5c1.6,1.7,2.4,4.1,2.4,7.3V67.5z M260.8,57.1c-1,0.7-1.5,1.8-1.5,3.2
			c0,1,0.3,1.8,1,2.5c0.6,0.6,1.7,0.9,3.1,0.9c2,0,3.6-0.5,4.8-1.5c1.2-1,1.8-2.5,1.8-4.3v-2.1l-3.6,0.1
			C263.7,56,261.8,56.4,260.8,57.1z"/>
	</g>
	<g>
		<g>
			<path class="st0" d="M0,51.6"/>
		</g>
		<g>
			<path class="st1" d="M71.4,68.1l-2-33.2L69,29l-0.2-3l-0.3-4.9l-0.3-5.4c-0.1-1.6-1.5-2.9-3.1-2.9H13.6c-1.6,0-3,1.3-3.1,2.9
				l-2,33.8l-0.4,6.4L7.9,59L7.6,64l-0.2,4.1c-0.2,2.5,0.7,4.9,2.4,6.7c1.7,1.8,4.1,2.8,6.6,2.8h46c2.5,0,4.9-1,6.6-2.8
				C70.7,73,71.5,70.5,71.4,68.1z M64.5,70.6c-0.5,0.6-1.3,0.9-2.1,0.9h-46c-0.8,0-1.5-0.3-2.1-0.9c-0.5-0.6-0.8-1.3-0.8-2.1
				l0.3-5.5l0.3-5.1l0.4-6.4l0.2-3.3L16.5,19h45.8l0.2,3.1l0.3,5l0.4,5.9l0.3,5.5l1.8,30C65.3,69.2,65,70,64.5,70.6z"/>
		</g>
		<g>
			<path class="st1" d="M57.2,16.8H51c0-5.9-4.8-10.6-10.6-10.6c-5.9,0-10.6,4.8-10.6,10.6h-6.2C23.6,7.5,31.1,0,40.4,0
				C49.7,0,57.2,7.5,57.2,16.8z"/>
		</g>
		<path d="M49.8,40.2L49.8,40.2c-0.1-0.1-0.1-0.1-0.2-0.2C49.6,40.1,49.7,40.1,49.8,40.2z"/>
		<path d="M54,54.2c0,7.6-6.8,10.9-14.4,10.9c-6.9,0-12.2-2.1-14.8-8.2c0-0.1-0.1-0.2-0.1-0.3c0,0-0.7-1.6-1.1-4.5v0l0.2-0.1
			l4.4-1.7l0.8-0.3c0,0,0,0,0,0c0,0.3,0.2,2.3,1,3.7c0.1,0.3,0.3,0.6,0.5,0.9c0,0,0,0,0,0c1.8,3.1,5.4,4.5,9.2,4.5
			c4.1,0,7.9-1.4,7.9-5.1c0-3.2-3.4-4.5-7.9-5c-0.5-0.1-1-0.1-1.5-0.2c-1.4-0.2-2.8-0.5-4.1-0.8c-4.5-1.3-7.9-3.8-7.9-9.3
			c0-7.1,7-10,13.3-10c5.3,0,10.8,1.5,13.4,6.7c0,0,0,0.1,0,0.1l0,0c1.4,2.8,1.9,4.4,1.9,4.4l-2.3,1.2l-2.4,1.2
			c-0.2-1.6-1.7-3.5-2.2-4.2c0-0.1-0.1-0.1-0.1-0.1c0,0,0,0,0,0c0,0,0,0,0,0c-1.3-1.9-4.4-3.6-8-3.6c-4.8,0-7.1,2-7.1,4.6
			c0,3,3.5,3.8,7.6,4.3C47.3,44.2,54,46,54,54.2z"/>
		<path class="st2" d="M47.5,35.9"/>
		<g>
			<path class="st1" d="M74.8,27.6c-1.4,1.5-3.3,2.9-5.3,4.3c-0.9,0.6-1.8,1.1-2.6,1.7c-1.1,0.6-2.2,1.3-3.3,1.9
				c-2,1.1-4.1,2.3-6.3,3.4C57.1,38.9,57,39,56.8,39l-2.3,1.2l-4.5,2.2c-0.2-1.6-1.7-3.5-2.2-4.2c0-0.1-0.1-0.1-0.1-0.1l0.4-0.2
				c1.5-0.7,5-2.4,6.4-3.1l0.2-0.1c0.1-0.1,0.2-0.1,0.3-0.2c3.4-1.7,6.1-3.2,8.3-4.5c2.7-1.6,4.6-2.9,5.9-4c2-1.5,2.7-2.5,3-3
				c-0.6-0.2-1.7-0.2-3.2-0.1c-1.6,0.1-3.7,0.5-6.1,1.1l-0.3-5c2.1-0.5,4.2-0.9,6.1-1c3.8-0.3,7.1,0.4,8.2,2.9
				C77.8,23.2,76.8,25.4,74.8,27.6z"/>
		</g>
		<g>
			<path class="st1" d="M30.5,54.9c-1.2,0.5-2.5,0.9-3.8,1.4c-0.7,0.2-1.3,0.5-2,0.7c-2.9,1-5.8,1.9-8.5,2.6
				c-0.8,0.2-1.6,0.4-2.4,0.6c-2.2,0.5-4.3,0.9-6.2,1.1c-0.4,0-0.7,0-1.1,0c-2.9,0-5.2-0.8-6.2-3c-1.6-3.8,2.9-8.1,8.1-11.5
				c1-0.7,2.1-1.4,3.1-2c1-0.6,2.4-0.4,3.1,0.6l-0.2,3.3c-0.1,0.1-0.3,0.2-0.5,0.3c-2.5,1.5-4.5,2.9-6,4.1c-1.6,1.3-2.6,2.4-3,3.1
				c0.4,0.1,1.3,0.2,2.8,0c1.4-0.1,3.4-0.5,6.2-1.2c2.5-0.6,5.5-1.6,9.4-2.9c0.6-0.2,1.3-0.5,2-0.7l0.2-0.1c1-0.4,2.1-0.8,3.3-1.2
				c0,0.3,0.2,2.3,1,3.7C30.1,54.2,30.3,54.6,30.5,54.9C30.5,54.9,30.5,54.9,30.5,54.9z"/>
		</g>
	</g>
</g>
</svg>
