<?xml version="1.0" encoding="utf-8"?>
<!-- Generator: Adobe Illustrator 23.0.5, SVG Export Plug-In . SVG Version: 6.00 Build 0)  -->
<svg version="1.1" id="Layer_1" xmlns="http://www.w3.org/2000/svg" xmlns:xlink="http://www.w3.org/1999/xlink" x="0px" y="0px"
	 viewBox="0 0 406.26 789.89" style="enable-background:new 0 0 406.26 789.89;" xml:space="preserve">
<style type="text/css">
#face{animation: faceAnim linear infinite 2s; transform-origin: 50% 40%}
@keyframes faceAnim{
	0%{transform: rotate(8deg)}
	50%{transform: rotate(0deg)}
	100%{transform: rotate(8deg)}
}
	.st0{fill:#060708;}
	.st1{fill:#888586;}
	.st2{fill:#323E5A;}
	.st3{fill:#A1BCC7;}
	.st4{fill:#A1BCC8;}
	.st5{fill:#BEB5BA;}
	.st6{fill:#A2BCC9;}
	.st7{fill:#A2BBC9;}
	.st8{fill:#313E5D;}
	.st9{fill:#333D57;}
	.st10{fill:#FBCAB2;}
	.st11{fill:#444F6B;}
	.st12{fill:#A2BAC9;}
	.st13{fill:#E3AD76;}
	.st14{fill:#E3AF78;}
	.st15{fill:#F7C8B1;}
	.st16{fill:#A2BBC5;}
	.st17{fill:#A2BAC5;}
	.st18{fill:#A0B9C8;}
	.st19{fill:#765A4F;}
	.st20{fill:#A2BBC7;}
	.st21{fill:#A1BBC5;}
	.st22{fill:#755C4E;}
	.st23{fill:#6C808A;}
	.st24{fill:#A3BCC6;}
	.st25{fill:#B58B5D;}
	.st26{fill:#B68C5E;}
	.st27{fill:#536975;}
	.st28{fill:#A2BAC3;}
	.st29{fill:#506871;}
	.st30{fill:#F6F5F6;}
	.st31{fill:#AAA5A8;}
	.st32{fill:#F8F9FA;}
	.st33{fill:#795034;}
	.st34{fill:#795036;}
	.st35{fill:#A3BAC5;}
	.st36{fill:#A2B9C7;}
	.st37{fill:#677D8B;}
	.st38{fill:#A2BBC4;}
	.st39{fill:#F7F7F9;}
	.st40{fill:#DEAD76;}
	.st41{fill:#6D838F;}
	.st42{fill:#533E35;}
	.st43{fill:#F4F3F3;}
	.st44{fill:#564037;}
	.st45{fill:#A1B8C0;}
	.st46{fill:#D2D4D7;}
	.st47{fill:#F9F7FA;}
	.st48{fill:#A08774;}
	.st49{fill:#A38574;}
	.st50{fill:#D4D0D6;}
	.st51{fill:#82949B;}
	.st52{fill:#8598A0;}
	.st53{fill:#66818C;}
	.st54{fill:#69777A;}
	.st55{fill:#747A7C;}
	.st56{fill:#9F8573;}
	.st57{fill:#AAB5BA;}
	.st58{fill:#667D87;}
	.st59{fill:#7D6E66;}
	.st60{fill:#A18275;}
	.st61{fill:#AEA6AC;}
	.st62{fill:#C79C83;}
	.st63{fill:#D3AB83;}
	.st64{fill:#BB9675;}
	.st65{fill:#B89D84;}
	.st66{fill:#414C69;}
	.st67{fill:#44516C;}
	.st68{fill:#869EA9;}
	.st69{fill:#829DAA;}
	.st70{fill:#617882;}
	.st71{fill:#6A8594;}
	.st72{fill:#69818F;}
	.st73{fill:#65818C;}
	.st74{fill:#D3CED3;}
	.st75{fill:#C1CDD0;}
	.st76{fill:#C5D1D2;}
	.st77{fill:#CDCCD7;}
	.st78{fill:#A1BAC4;}
	.st79{fill:#A0B8C3;}
	.st80{fill:#6F7E85;}
	.st81{fill:#9EB9C2;}
	.st82{fill:#C8CED3;}
	.st83{fill:#C2CDCD;}
	.st84{fill:#C7C8D3;}
	.st85{fill:#C5CBCD;}
	.st86{fill:#C6CCD3;}
	.st87{fill:#C5CCCE;}
	.st88{fill:#07070A;}
	.st89{fill:#1B1B1C;}
	.st90{fill:#225FA1;}
	.st91{fill:#1D4C82;}
	.st92{fill:#FBC8B1;}
	.st93{fill:#1D4D83;}
	.st94{fill:#245DA1;}
	.st95{fill:#201D1B;}
	.st96{fill:#5E3F2D;}
	.st97{fill:#55351A;}
	.st98{fill:#7E7E82;}
	.st99{fill:#482F18;}
	.st100{fill:#7F4830;}
	.st101{fill:#E8D9B7;}
	.st102{fill:#E9DBB5;}
	.st103{fill:#16234C;}
	.st104{fill:#606266;}
	.st105{fill:#224773;}
	.st106{fill:#21416B;}
	.st107{fill:#54321A;}
	.st108{fill:#D4B49F;}
	.st109{fill:#BE9458;}
	.st110{fill:#C19652;}
	.st111{fill:#274C7B;}
	.st112{fill:#B39D96;}
	.st113{fill:#B39A5C;}
	.st114{fill:#877872;}
	.st115{fill:#624835;}
	.st116{fill:#E79F7F;}
	.st117{fill:#F9C6B4;}
	.st118{fill:#E19E84;}
	.st119{fill:#753A27;}
	.st120{fill:#C17C6B;}
	.st121{fill:#C28B75;}
	.st122{fill:#0C1630;}
	.st123{fill:#0C1834;}
	.st124{fill:#0F1B3E;}
	.st125{fill:#1F255B;}
	.st126{fill:#202A61;}
	.st127{fill:#172B53;}
	.st128{fill:#1F255A;}
	.st129{fill:#0D1732;}
	.st130{fill:#132146;}
	.st131{fill:#225EA2;}
	.st132{fill:#245FA1;}
	.st133{fill:#215DA2;}
	.st134{fill:#111E41;}
	.st135{fill:#0D1228;}
	.st136{fill:#0D132A;}
	.st137{fill:#101D41;}
	.st138{fill:#132148;}
	.st139{fill:#15244A;}
	.st140{fill:#E5D6A6;}
	.st141{fill:#4A2414;}
	.st142{fill:#92583F;}
	.st143{fill:#A1674E;}
	.st144{fill:#B27A64;}
	.st145{fill:#C38D7A;}
	.st146{fill:#D4B386;}
	.st147{fill:#C79A4E;}
	.st148{fill:#D0B38A;}
	.st149{fill:#CAA054;}
	.st150{fill:#EBD6B3;}
	.st151{fill:#5F3F2F;}
	.st152{fill:#91563C;}
	.st153{fill:#A3684F;}
	.st154{fill:#B9806C;}
	.st155{fill:#76472F;}
	.st156{fill:#1A0F0C;}
	.st157{fill:#604D33;}
	.st158{fill:#794E3A;}
	.st159{fill:#533C1F;}
	.st160{fill:#6A4F39;}
	.st161{fill:#4A2514;}
	.st162{fill:#F0C8B0;}
	.st163{fill:#7A503B;}
</style>
<g>
	<path class="st0" d="M321.36,415.41c-1.75-20.68-1.71-41.5-4.74-62.08c-1.74-11.83-0.73-23.84-2.79-35.72
		c-2.38-13.71-9.75-25.43-25.29-27.93c-4.08-0.66-8.18-1.19-12.3-1.58c-9.41-0.89-18.74-1.92-26.57-8.07
		c-1.2-0.94-2.65-1.6-4.34-2.5c-1.86,0.11-3.72,0.24-5.59,0.16c-1.67-0.07-3.71-0.25-5.35-1.02c-1.46,1.45-0.99,3.13,1.3,5.3
		c4.78,1.55,7.95,5.22,7.62,9.72c-0.4,5.3-1.45,10.52-3.95,15.35c-1.38,2.66-2.9,3.5-5.32,1.16c-1.44-1.39-3.09-2.53-5.09-3.03
		c-2.48-0.3-5.03-0.91-6.95,2.25c0.36-2.04,1.55-2.2,2.6-2.54c5.86-3.41,10.65-7.91,13.35-14.21c1.26-2.93,1.73-6.07-2.94-6.52
		c-1.47-0.14-0.51-1.23-0.88-1.76c-1.39-2.69-3.73-2.84-5.67-1.22c-2.68,2.23-5.29,4.81-5.1,8.84c1.96,2.21,5.15,0.43,7.42,2.01
		c-1.2,2.56-2.86,4.39-4.81,5.97c-2.84,2.31-5.92,4.31-8.43,7.03c-4.28,4.63-15.66,7.03-20.12,2.99c-6.52-5.89-15.59-8.62-20-16.74
		c2.11-0.27,4.61-0.34,6.58-2.06c0.96-1.63,0.81-3.53-0.25-4.71c-2.75-3.08-4.81-7.1-9.04-8.42c-3.84,1.57-7.86,2.1-12,2.2
		c-0.71,0.28-1.31,0.57-1.91,0.93c-3.53,2.11-7.05,4.8-10.92,5.65c-8.69,1.92-17.57,3.07-26.41,4.17
		c-14.14,1.75-23.56,10.02-26.87,23.9c-4.43,18.56-2.18,37.67-4.71,56.43c-1.6,11.83-1.37,23.91-1.97,35.87
		c-0.5,9.98-0.37,19.92,1.45,29.8c1.88,10.22,4.27,20.43,5.15,30.75c1.31,15.21,4.63,30.16,5.31,45.42
		c0.09,2.09,0.93,3.81,3.28,4.33c2.69,0.59,2.53,1.84,1.62,4.25c-6.01,15.89-7.12,31.86-0.81,48.1
		c4.93,12.7,13.44,21.91,25.91,26.89c3.68,1.47,4.95,2.71,4.94,6.43c-0.07,27.49-0.02,54.99,0.04,82.48
		c0.01,2.52-0.06,5.03-1.12,7.3c-2.5,5.36-2.19,11-1.81,16.61c0.17,2.51,0.29,4.93-0.67,7.29c-2.64,6.5-0.86,13.17,0.2,19.51
		c0.42,2.51,1.92,4.61,0.41,7.25c-1.44,2.52-1.23,6.04-3.91,7.76c-7.99,5.12-16.18,9.99-17.21,20.83c-0.01,0.13-0.25,0.22-0.33,0.37
		c-3.3,6.27-0.09,13.46,6.73,14.87c2.42,0.5,4.9,0.73,7.35,1.12c13.33,2.12,26.74,2.96,40.23,2.5c1.76-0.06,3.58-0.58,4.39-1.93
		c2.91-4.81,6.49-6.78,12.5-7.81c8.13-1.4,13.64-14.26,12.08-22.47c-1.18-6.21-4.67-12.92,2.13-18.32c0.46-0.36,0.89-1.16,0.83-1.71
		c-0.44-4.38,2.12-8.69,1.6-12.6c-1.26-9.46-2.49-18.74-2.17-28.4c0.19-5.76-1.72-11.78-1.36-17.76c1.27-20.8,0.73-41.62,1.11-62.43
		c0.2-10.79,1.3-21.57,2.19-32.33c1.16-14.06,2.53-28.11,3.8-42.16c0.61-1.31,1.21-1.31,1.82,0c0.78,9.43,1.39,18.88,2.36,28.29
		c1.77,17.2,3.09,34.43,3.65,51.7c0.45,13.82-0.23,27.67,0.36,41.48c0.43,10.14,1.44,20.23-0.25,30.34
		c-0.43,2.59-1.66,5.16-0.81,7.83c1.7,5.31,0.74,10.44-0.54,15.64c-0.74,2.99-2.46,6.17-1.04,9.16c2.62,5.54-1.13,13.38,6.23,17.19
		c0.3,0.15,0.2,1.27,0.12,1.91c-0.51,3.91-0.59,7.96-1.69,11.7c-3.35,11.39,6.14,23.42,17.16,23.54c2.85,0.03,3.72,1.62,4.52,3.7
		c1.41,3.68,4.15,5.29,8.01,5.46c16.51,0.7,32.79-1.34,49.02-4.01c3.21-0.53,4.96-2.11,4.99-5.64c0.09-11.16-2.53-21.07-13.3-26.55
		c-5.99-3.05-7.93-8.38-9.87-14c-0.24-0.71-0.76-1.12-0.05-2.09c3.76-5.18,3.03-11.44,2.58-17.06c-0.43-5.34-2.25-10.63-1.33-16.09
		c1.1-6.54-3.05-12.16-3.06-18.42c-0.07-29.49,0-58.98,0.06-88.47c0-1.22-0.68-2.89,0.95-3.55c3.7-1.5,5.8-5.4,10-6.28
		c2.43-0.51,4.16-2.56,5.7-4.61c13.97-18.72,17.06-39.23,9.93-61.3c-1-3.08-1.69-4.97,2.27-5.84c1.94-0.42,1.86-2.35,2.17-4.03
		c4.2-22.86,7.81-45.82,13.39-68.42C319.34,433.79,322.15,424.65,321.36,415.41z"/>
	<g>
		<path class="st1" d="M203.75,541.81c-0.24-1.59-0.27-3.15,0.83-4.97c1.31,1.65,1.22,3.29,0.99,4.97
			C204.96,541.81,204.35,541.81,203.75,541.81z"/>
		<path class="st2" d="M145.69,507.66c9.8,6.65,21.2,8.22,32.47,10c6.85,1.08,13.82,1.39,20.73,2.16c1.69,0.19,2.99,0.38,2.85-1.95
			c-0.27-4.19,2.36-7.5,3.33-11.76c1.81,2.85,2.24,5.65,2.61,8.4c0.51,3.8,2.31,5.75,6.3,5.22c15.59-2.05,31.24-3.86,45.93-9.97
			c2.78-1.16,5.25-3.03,8.7-5.06c0,3.79,0.47,7.12-0.09,10.27c-1.42,7.96-0.79,15.94-0.74,23.89c0.2,31.47-2.23,62.93-0.89,94.38
			c0.73,16.99-0.68,33.89-0.25,50.83c0.06,2.51,0.07,5,1.08,7.34c1.83,4.23,2.07,8.66,1.99,13.19c-0.09,4.78-0.43,9.5,1.58,14.23
			c1.67,3.92-0.81,8.14-0.8,12.29c0.01,1.87-1.75,1.77-3.04,1.66c-12.73-1.1-24.67,2.61-36.62,6.1c-2.79,0.82-5.55,0.97-8.37,0.92
			c-4.79-0.1-6.22-1.77-5.87-6.66c0.04-0.5,0.2-1.09,0-1.48c-3.75-7.28-0.7-14.23,0.99-21.24c0.12-0.48,0.1-0.99,0.1-1.49
			c-0.04-28.83,0.38-57.68-0.29-86.5c-0.44-18.88-2.36-37.72-3.81-56.57c-0.63-8.24-1.7-16.46-2.64-24.68
			c-0.29-2.53-0.03-4.49,2.77-5.63c1.52-0.62,3.44-1.33,3.86-3.93c-8.93,0.27-17.7-0.38-27.2,1.16c9.62,2.83,8.24,9.57,7.3,16.5
			c-1.28,9.46-2.03,19-3,28.5c-2.2-2.94-2.41-6.54-3.26-9.93c-0.51-7.4-2.47-14.73-1.14-22.23c0.25-1.39-0.46-2.24-1.73-2.6
			c-3.84-1.11-4.75-4.15-5.37-7.6c-1.15-6.44-1.28-6.41-7.82-6.82c-3.93-0.25-7.02-2.19-8.93-5.55c-2-3.52-4.45-4.62-8.6-3.85
			c-10.79,2.01-10.8,1.8-10.83,12.97c-0.02,8.64,0.17,17.28-0.12,25.91c-0.12,3.5,0.68,6.58,3.27,9.05
			c2.67,3.22,2.77,7.27,3.62,11.08c0.17,2.52,0.26,5.02-2.32,6.99c2.05-0.02,3.04,1.13,4.06,2.51c4.94,6.69,12.71,8.53,20.29,5.11
			c3.25-1.46,6.03-4.17,10.1-3.6c1.6,0.22,1.91-1.57,2.37-2.79c0.65-1.71,0.9-3.55,1.62-5.23c0.71-1.66,1.39-3.59,3.93-2.57
			c0.21,0.46,0.3,0.95,0.25,1.46c-2.17,7.01-4.31,14.01-1.3,21.36c0.56,1.35,0.74,2.9-0.14,4.3l-0.01,0.01
			c-0.66,0.9-1.31,1.88-2.53,0.68c-1.06-1.53-1.15-3.46-2.46-5.9c-3.35,7.7-9.72,7.77-16.35,7.65c-6.31-0.12-12.65-0.5-18.93,0.87
			c-3.19,0.7-5.2,2.31-5.25,5.66c-0.14,10.49-0.3,20.99,0.09,31.48c0.02,0.65,0.21,1.32,1.14,1.97c1.29-1.4,0.37-2.97,0.29-4.39
			c-0.14-2.66,0.05-5.52,3.38-5.58c3.69-0.06,4.11,3.06,3.64,5.79c-0.57,3.31-0.55,6.61-0.85,9.91c-0.51,5.7-4.11,9.08-9.34,10.9
			c-0.09-0.14-0.28-0.33-0.24-0.42c3.02-7.83-3.2-14.77-2.11-22.48c1.09-7.74-0.11-15.54,0.03-23.32c0.05-2.66,0.22-5.29,0.5-7.93
			c0.43-4.08,1.73-7.38,6.13-8.7c1.63-0.49,3.32-1.5,2.23-3.6c-0.98-1.89-2.29-0.35-3.33,0.19c-2.61,1.35-3.72,0.12-4.14-2.29
			c-0.41-2.31-0.28-4.64,0.13-6.94c1.09-6.1,0.48-12.25,0.57-18.38c0.05-3.23-2.38-5.4-3.47-8.14c-0.33-19.33,0.38-38.67-1.46-58.18
			c2.24,0.23,3.32,1.18,4.42,2.11c-0.33,1.6-0.83,3.17-0.68,5.06C144.89,510.37,144.27,508.58,145.69,507.66z"/>
		<path class="st3" d="M220.75,350.72c-0.75-5.69,0.89-11.22,1.1-16.86c0.16-4.47,4.58-6.96,9.3-7.2
			c8.21-0.42,14.43,4.44,21.36,7.32c3.92,1.63,5.38,1.15,6.35-3.16c2.65-11.71,4.49-23.46,3.59-35.48c-0.19-2.5,0.57-2.88,2.53-2.6
			c9.15,1.35,18.49,2.01,27.39,4.33c8.51,2.22,13.43,9.24,15.04,17.59c2.29,11.86,3.87,23.88,3.08,36.05
			c-0.84,3.79-1.04,7.69-2.12,11.43c1.3,0.77,2.07-1.08,3.19-0.39c1.83,4.6,1.34,9.54,1.77,14.29c1.11,12.41,1.58,24.87,2.32,37.31
			c0.63,10.56-1.81,20.78-4.37,30.81c-3.64,14.27-6.19,28.7-8.62,43.18c-0.37,2.18-0.92,4.18-3.03,5.33
			c-5.75,1.93-11.44,3.05-16.81-1.05c-0.18-28.61-1.11-57.24,1-85.8c1.84-24.98,4.42-49.91,6.65-74.87
			c0.13-1.43,0.02-2.88,0.02-5.82c-5.73,9.66-6.62,19.15-7.9,28.52c-1.46,1.42-3.29,1.45-5.13,1.28c-14.02-1.27-28.06-2-42.15-1.88
			c-5.87,0.05-6.11-0.34-6.12-6.25c-0.01-2.69-0.01-5.38-0.11-8.07c0.29,3.74-0.01,7.48,0.05,11.22c0.03,1.61-0.84,2.49-2.3,2.76
			C224.44,353.2,222.13,353.3,220.75,350.72z"/>
		<path class="st4" d="M106.48,491.91c-2.94-1.84-2.38-5.2-2.53-7.67c-1.1-18.72-5.52-36.92-8.27-55.37
			c-1.46-9.76-0.48-19.55,0.18-29.24c0.86-12.59,0.17-25.27,2.08-37.8c2.66,0.42,2.66,0.42,4.54,3.27
			c-3.24-6.55-4.3-16.85-2.95-28.53c-0.16-7.34,0.93-14.56,2.18-21.75c1.73-9.97,10.05-17.56,20.27-19.11
			c7.19-1.08,14.38-2.26,21.5-3.74c3.89-0.81,4.7,0.58,4.08,4.02c-2.16,12.05,0.37,23.81,2.24,35.61c0.68,4.27,2.61,5.07,6.4,2.8
			c4.12-2.47,8.54-4.43,12.82-6.63c6.21-3.2,13.13-2.41,18.32,1.8c1.53,1.24,1.24,2.52,1.1,3.98c-1.9,0.72-4-3.1-5.78,0.26
			c-0.17,0.44-0.35,0.87-0.51,1.31c-0.37,2.05-0.11,4.11-0.11,6.17c0.03,11.85,0.03,11.95-11.59,11.83
			c-12.91-0.13-25.77,0.59-38.61,1.87c-1.84,0.18-3.66,0.13-5.13-1.28c-1.42-9.18-1.92-18.59-7.02-28.16
			c-1.09,5.18-0.27,9.13,0.09,12.94c1.34,14.36,3.18,28.68,4.66,43.03c0.89,8.59,1.79,17.19,2.1,25.81
			c1.02,28.12,1.48,56.26,1.03,84.4c-0.17,0.28-0.28,0.65-0.53,0.82C123.34,495.14,110.26,494.73,106.48,491.91z"/>
		<path class="st5" d="M191.58,465.59c0.56-19.3,1.1-38.61,1.67-57.91c0.75-25.32,0.73-50.62-1.61-75.87
			c-0.24-2.57-1.27-4.25-3.75-5.29c-3.84-1.62-7.34-3.86-9.96-7.2c-1.03-1.31-3.22-2.54-1.37-4.59c1.64-1.82,3.42-3.97,6.34-2.86
			c15,5.7,29.92,5.44,44.74-0.56c3.39-1.37,4.99,1.3,6.7,2.94c1.87,1.8-0.57,3.19-1.62,4.36c-2.43,2.72-4.98,5.49-8.41,6.91
			c-3.93,1.62-5.34,4.7-5.6,8.5c-1.39,20.1-2.37,40.21-1.65,60.37c0.63,17.48,1,34.96,1.6,52.44c0.5,14.63,1.17,29.25,1.77,43.87
			c-9.3,3.75-21.9-2.19-24.48-11.59c-0.78-2.83-2.07-5.54-1.53-8.67c0.22-1.27-0.22-2.54-2.12-2.65
			C190.9,467.7,191.1,466.57,191.58,465.59z"/>
		<path class="st6" d="M133.75,484.68c-0.36-16.32-1.02-32.64-1.01-48.95c0.02-24.83-2.34-49.46-5.12-74.07
			c-0.22-1.92-1.32-3.73-0.78-5.76c2.2-1.65,4.83-2.38,4.86,1.29c0.05,6.79,3.35,13.14,2.34,19.99
			c-0.18,14.04,0.15,14.53,13.69,19.74c5.48,2.11,19.19-1.92,22.6-6.61c0.95-1.31,1.04-2.79,0.96-4.28
			c-0.36-6.82,0.79-13.54,1.31-20.31c1.07-2.63,1.93-5.17,1.18-8.18c-0.6-2.41-0.7-5.03,3.18-5.32c3.78-0.29,5.12,1.38,5.07,4.88
			c-0.13,8.81,0.36,17.63-0.27,26.44c-1.57,7.74-0.36,15.57-0.7,23.35c-0.89,20.37-1.06,40.79-2.32,61.13
			c-0.46,7.4,0.07,14.91-1.59,22.29c-0.85,3.8-2.8,5.02-6.28,4.59c-11.16-1.38-22.38-2.45-32.94-6.83
			C136.14,487.3,134.88,486.13,133.75,484.68z"/>
		<path class="st7" d="M282.57,355.77c-1.62,19.49-3.69,38.97-4.73,58.49c-1.01,19.08-1.46,38.21-1.05,57.33
			c0.74,3.45,0.24,6.94,0.31,10.42c0.05,2.42-1.36,3.97-3.39,5.11c-3.87,2.15-5.5,1.33-5.52-2.96c-0.02-2.9-0.73-6,2-8.32
			c0.6-0.51,0.44-1.57,0.44-2.4c0.02-11.3,0.06-22.6-0.03-33.91c-0.01-0.91,0.15-2-1.18-2.59c1.55,1.68,1.2,3.62,1.21,5.45
			c0.04,7.98,0.12,15.96-0.03,23.93c-0.07,4.02,1.01,8.19-2.17,11.87c-1.14,1.32-0.54,3.92-0.24,5.85c0.73,4.66-1.58,6.78-5.72,7.67
			c-1.46,0.32-2.9,0.73-4.33,1.18c-6.39,0.91-12.74,2.3-19.23,2.22c-5.4-0.07-6.7-0.96-6.57-5.78c0.3-10.97-0.89-21.87-1.27-32.79
			c-0.77-22.2-2.01-44.37-1.88-66.6c0.01-1.01-0.22-1.98-0.55-2.92c-0.8-10.09-0.24-20.2-0.34-30.31c-0.04-3.35,1.49-4.66,4.91-4.52
			c3.41,0.14,4.09,2.38,3.5,4.67c-0.91,3.53,0.69,6.5,1.28,9.67c1.06,5.74,1.08,11.52,1.05,17.32c-0.01,2.13-0.29,4.35,1.18,6.19
			c0.44,0.33,0.85,0.7,1.26,1.06c3.83,3.36,8.57,4.96,13.23,6.68c3.84,1.42,7.18-0.61,10.48-1.94c10.46-4.24,11.51-5.35,10.97-16.52
			c-0.37-7.6,2.31-14.68,2.41-22.14C278.63,354.38,280.39,353.86,282.57,355.77z"/>
		<path class="st8" d="M145.66,664.74c1.52-1.49,2.57-3.38,4.62-4.44c2.02-1.04,3.14-3.08,3.29-5.32c0.28-4.07-0.29-8.16,0.99-12.22
			c0.55-1.74-0.05-4.02-2.63-3.78c-2.5,0.23-2.48,2.46-2.15,4.27c0.53,2.9,3.08,7.19-1.66,7.46c-3.02,0.18-2.43-4.75-2.45-7.64
			c-0.05-9.33,0.06-18.67-0.05-28c-0.05-4.62,1.82-6.68,6.58-7.51c7.49-1.29,14.93-0.63,22.39-0.8c7.94-0.18,10.41-1.86,12.62-9.6
			c2.64,2.82,3.45,6.03,3.43,9.56c1.44,5.04,0.53,10.15,0.51,15.24c-0.06,15.97-0.01,31.95-0.04,47.92c0,1.64,0.39,3.33-0.42,4.91
			c-0.02,0.98-0.04,1.96-0.06,2.94c-2.75,2.8-3.24,0.07-3.94-1.7c-0.72-1.82,0.23-3.97-1.2-6.25c-4.11,3.31-4.58,10-11.46,10.33
			c2.04,2.18,3.66,1.61,5.02,1.9c3.33,0.72,5.54,2.42,5.67,5.96c0.11,2.85,1.36,4.93,3.17,7.07c2.4,2.83,3.86,6.15,2.94,10.14
			c-0.71,3.09-1.73,5.06-5.42,3.31c-1.65-0.78-8.15,2.93-8.22,4.68c-0.11,2.88,2.03,4.04,4.43,4.5c1.8,0.35,3.65,0.39,5.19,1.54
			c1.24,0.92,2.4,1.98,2.24,3.66c-0.18,1.9-1.66,2.79-3.28,3.41c-2.81,1.07-5.35,0.01-7.57-1.45c-5.76-3.79-11.66-6.78-18.74-7.57
			c-4.57-0.51-6.29-3.85-5.9-8.66c8.15-0.76,16.29-1.53,23.25-6.55c3.4-2.45,1.63-5.37,0.68-8.08c-0.85-2.41-3.01-3.94-4.7-5.76
			c-3.76-4.04-3.99-6.41-1.13-11.11c1.13-1.86,2.64-3.43,3.93-5.16c1.86-2.49,2.76-5.22,2.77-8.36c0-6.99-1.54-8.45-8.53-7.72
			c-0.83,0.09-1.66,0.13-2.49,0.16c-9.77,0.36-14.59,5.5-15.55,15.41c-0.61,6.32-0.42,11.87,5.2,16.09c2.05,1.54,1.72,3.89,0.1,5.78
			c-2.26,2.65-4.77,4.82-8.55,2.59c-0.03-0.16-0.13-0.37-0.07-0.48c3.81-6.42,3.81-6.42-1.73-13.11
			C142.86,677.55,142.3,668.75,145.66,664.74z"/>
		<path class="st9" d="M145.66,664.74c-2.67,7.67-0.93,14.11,4.58,20.16c5.06,5.56,4.63,6.41-1.58,10.82
			c-2.91,3.95-0.8,6.61,2.22,9.17c1.21,1.03,2.52,2.12,2.77,3.9c1.02,5.63,4.4,8.02,10.1,8.04c4.06,0.01,7.75,1.76,10.85,4.41
			c1.95,1.66,4.32,2.45,6.46,3.7c2.39,1.39,4.47,0.65,6.47-0.79c0.72-0.52,1.14-1.32,0.58-2.16c-1.27-1.89-3.14-3.44-5.35-3.01
			c-2.86,0.56-4.27-1.09-6-2.62c-2.93-2.59-2.12-4.99,1-5.98c2.92-0.92,4.05-3.11,5.43-5.21c2.33,0.28,2.72,4.54,5.2,2.84
			c2.37-1.62,2.15-4.51,1.18-7.22c-0.91-2.52-1.66-5.1-4.13-6.57c-1.51-0.9-1.72-2.18-1.83-3.77c-0.43-6.75-1.88-7.98-8.6-7.31
			c-1,0.1-1.96,0.62-2.61-0.49c-0.5-0.87,0.04-2.01,0.59-2.2c5.8-1.99,7.64-7.83,11.51-11.67c0.58-0.57,0.98-1.6,1.88-1.33
			c1.08,0.33,1.23,1.46,1.24,2.49c0.02,1.99-0.04,3.99,0.06,5.98c0.1,1.91,1,2.77,2.94,1.83c0.06,6.48,0.67,12.9,1.83,19.27
			c0.18,0.97,0.35,2.06,0.11,2.98c-2,7.56-0.24,14.74,1.89,21.94c0.57,1.91,0.11,3.92-0.64,5.85c-0.59,1.52-1.13,3.19-1.12,4.79
			c0.06,6.11-1.89,7.85-8.14,7.32c-5.02-0.43-9.71-2.15-14.48-3.46c-8.85-2.44-17.72-4.25-26.94-3.62c-2.98,0.2-4.53-0.38-4.53-3.95
			c-0.02-13.15,0.4-26.21,3.38-39.13c1.77-7.67,0.91-15.62,0.39-23.36c-0.62-9.31-0.5-18.51,0.05-27.81
			c0.58-9.79,0.19-19.63,0.16-29.45c-0.06-15.45-1.57-30.88-0.84-46.34c3.79,2.27,5.09,5.48,5.01,9.98
			c-0.13,7.3-0.41,14.57-1.07,21.84c-0.11,1.19-0.73,2.93,0.86,3.55c1.43,0.55,1.79-1.09,2.43-1.97c0.76-1.04,1.75-1.66,2.99-1.11
			c1.97,0.88,1.83,3.03,2.43,4.68c0.46,1.27-0.32,2.51-1.54,2.73c-9.86,1.78-9.03,9.7-9.11,16.55c-0.12,9.68,0.55,19.37,0.9,29.05
			c0.02,0.66-0.06,1.47,0.27,1.95C148.35,654.78,148.51,659.68,145.66,664.74z"/>
		<path class="st10" d="M134.62,558.78c-1.71-0.49-1.92,0.53-1.98,1.87c-0.21,5.52-0.09,11.13,2.07,16.18
			c2.06,4.81,2.07,9.55,1.76,15.27c-7.29-8.11-10.67-16.99-10.82-27.2c-0.02-1.67-0.06-3.33-0.03-5c0.03-1.26-0.29-2.64-1.59-2.6
			c-1.46,0.03-1.42,1.55-1.37,2.74c0.36,9.65,0.84,19.26,6.94,27.46c0.68,0.91,1.17,1.96,1.81,3.06
			c-5.5-2.58-12.2-12.47-13.71-20.09c-1.02-5.18-2.07-10.36-3.03-15.55c-0.22-1.21-0.27-2.48-1.92-2.19
			c-1.38,0.24-1.18,1.48-0.93,2.4c2.67,9.43,2.23,19.79,8.82,28.4c-3.07-1.8-8.5-10.28-10.72-15.61
			c-6.17-14.87-5.2-29.72-0.26-44.63c1.04-3.16,2.54-4.95,6.38-4.65c5.11,0.39,10.33,0.59,15.34-0.94c3.96-1.21,4.36,0.74,4.33,3.99
			c-0.09,10.66,0.05,21.32,0.09,31.97C135.84,555.46,137.42,557.63,134.62,558.78z"/>
		<path class="st11" d="M152.65,578.76c-1.07-3.66-1.11-7.6-3.02-11.03c-0.31-0.39-0.73-0.81-0.74-1.28
			c-0.17-7.7,3.59-14.16,8.75-18.83c4.62-4.18,11.31-4.48,17.45-1.57c1.51,0.71,2.99,1.62,4.74,1.17c3.9-0.99,5.59,1.08,7.24,4.3
			c2.64,5.18,4.65,10.49,5.58,16.21c0.64,3.35,2.06,6.55,2.02,10.03c-0.04,0.64-0.09,1.28-0.13,1.92c-0.28,0.49-0.57,0.52-0.87,0.02
			c-0.01-0.32-0.02-0.65-0.03-0.97c-2-2.97-3.7-6.14-6.03-10.12c-1.69,11.48-6.51,20.06-17.54,21.79
			C161.48,591.76,155.33,586.66,152.65,578.76z"/>
		<path class="st10" d="M272.38,582.93c1.02-22.21,1.54-43.01,1.21-63.81c-0.03-2.03,0.62-2.68,2.6-2.25
			c5.03,1.09,10.08,2.09,15.26,1.69c2.23-0.17,2.91,1.22,3.44,2.81c7.48,22.24,5.1,42.67-11.26,61.13c5.86-8.04,6-17.81,8.53-26.85
			c0.39-1.38,1.36-3.26-0.78-3.62c-1.63-0.28-1.5,1.72-1.84,2.96c-2.54,9.16-2.85,19.08-9.23,26.95c-2.2,2.71-4.2,5.57-7.14,7.56
			c-0.78-0.83-0.3-1.48,0.22-2.13c6.27-7.98,7.45-17.49,8.1-27.13c0.09-1.32,1.04-3.51-1.16-3.67c-2.17-0.16-1.5,2.04-1.66,3.41
			C277.83,567.42,278.36,575.22,272.38,582.93z"/>
		<path class="st12" d="M223.94,494.61c-2.42-47.25-5.17-94.5-3.19-141.85c8.39-1.44,8.36-1.44,8.4,6.63
			c0.06,11.05-0.33,22.1,0.5,33.14c0.36,27.36,1.51,54.69,2.91,82.02c0.25,4.97,0.38,9.94,0.53,14.92
			C233.3,496.01,230.13,497.71,223.94,494.61z"/>
		<path class="st13" d="M167.74,740.94c4.55-0.18,8.63,1.73,12.87,2.94c1.16,5.38-3.47,6.85-6.48,9.41
			c5.96,4.82,5.82,7.8,0.62,13.79c-5.57,6.42-11.91,7.81-20.07,5.94c-10.12-2.33-20.37-4.74-30.95-3.6
			c-1.64,0.18-2.91-0.42-3.88-1.73c-0.42-3.11,1.47-4.99,3.69-6.55c5.56-3.9,11.25-7.62,16.24-12.28c4-4.93,11.58-6.43,16.78-3.03
			c2.9,1.9,2.69,6.47,6.17,7.61c-0.52-0.78-1.8-1.23-2.52-2.26c-1.79-2.6-1.44-4.03,2.04-3.81c-0.49-1.7-3.92-3.08-0.77-5.17
			C163.3,740.99,165.79,742.1,167.74,740.94z"/>
		<path class="st14" d="M270.47,749.88c4.99,3.67,10.01,7.3,14.96,11.02c1.96,1.47,4.01,2.95,4.05,5.8
			c-2.07,2.95-5.17,3.47-8.41,3.35c-9.55-0.37-18.75,1.15-28.05,3.46c-10.71,2.66-16.34-1.97-21.78-11.47
			c-1.45-2.53-0.73-5.2,1.19-7.41c2.12-2.45,4.5-1.24,6.87-0.44c1.65,0.55,3,2.33,5.05,1.29c2.44-2.66,5.13-4.96,6.97-8.3
			c2.12-3.84,13.18-3.99,16.29-0.71C268.64,747.54,269.25,748.97,270.47,749.88z"/>
		<path class="st15" d="M223.69,290.84c3.16,0,6.32,0,10,0c-2.35,4.74-5.83,8.05-9.78,10.97c-1.73,1.28-3.36,2.7-5.11,3.94
			c-1.88,1.33-1.75,4.69-4.49,4.92c-5.75,0.49-12.89,3.41-17-0.34c-7.12-6.5-17.34-9.54-21.87-19.2c2.76-0.42,5.45-0.83,8.15-1.23
			c8.07,2.92,16.37,3.78,24.93,3.56C213.78,293.32,218.57,291.3,223.69,290.84z"/>
		<path class="st16" d="M161.69,286.78c-1.09,14.69,5.55,26.18,16.16,36.59c-7.89-1.39-12.89,3.73-18.72,6.46
			c-6.56,3.08-6.37,3.28-7.64-3.95c-1.36-7.73-1.94-15.49-1.86-23.34C149.72,294.5,152.08,288.23,161.69,286.78z"/>
		<path class="st17" d="M247.79,286.69c9.16,2.51,12.8,7.78,12.09,16.92c-0.66,8.45-1.5,16.82-3.15,25.13
			c-0.59,3-1.74,3.24-4.41,2.06c-6.29-2.77-12.08-7-20.07-7.2C242.83,313.41,248.63,301.46,247.79,286.69z"/>
		<path class="st18" d="M127.47,493.84c-0.21,3.39,1.87,5.05,4.67,6.18c5.5,2.22,3.04,7.09,3.22,10.79
			c0.15,3.14-3.42,2.41-5.37,2.83c-5.84,1.26-11.71,1.63-17.72,0.31c-3.52-0.77-5.58-2.45-5.04-5.75c0.43-2.59-3.35-5.3,0.31-7.62
			c0.57,0.51,0.97,1.15,1.31,1.83c-0.23-0.76-0.79-1.27-1.34-1.79c-1.41-2.16-3.19-4.28-0.87-6.9
			C113.59,493.92,120.53,493.44,127.47,493.84z"/>
		<path class="st19" d="M288.8,770.86c-0.07,0.29-0.12,0.59-0.15,0.89c-1.06,1.04-2.42,1.03-3.74,0.96
			c-11.09-0.58-21.73,1.95-32.35,4.67c-2.77,0.71-5.57,1.25-8.44,0.7c5.76,0.65,11.08-1.47,16.56-2.63
			c9.89-2.09,19.78-4.21,29.94-1.71c3.59,1.44,1.76,3.85,1.08,6.06c-6.62,1.58-13.38-0.66-20.2,1.51c-6.3,2-13.37,1.29-19.83,3.45
			c-2.39,0.51-4.69-0.64-7.17-0.29c-1.32,0.18-3.37-0.5-4.11-2.78c-1.77-5.46-6.81-7.58-10.85-10.62c-1.74,1.52,1.55,2.55-0.22,3.53
			c-1.05,0.58-2.15-0.14-3.15-0.87c-7.37-5.45-8.72-8.49-6.44-14.82c2.73,2.22,4.89,5.09,7.99,6.89c2.07,1.29,3.47,3.48,5.42,4.06
			c-1.91-0.79-3.5-2.91-5.66-4.23c-0.83-0.96-3.17-1.34-1.29-3.34c4.58-0.15,7.25,3.17,9.8,6.03c4.56,5.13,9.26,7.8,16.52,5.64
			c9.52-2.82,19.3-4.8,29.36-4.55C284.3,769.46,286.88,768.51,288.8,770.86z"/>
		<path class="st20" d="M276.78,494.82c-8.82,5.63-18.83,7.5-28.93,8.87c-5.9,0.8-11.91,0.77-17.81,1.55
			c-3.84,0.51-6.05,0.03-5.68-4.51c0.13-1.6-0.93-3.19-0.45-4.89c8.97-1.54,18.13-0.92,27.11-2.5c2.6-0.46,5.23-0.92,7.85-1.28
			c4.71-1.48,9.54-2.62,13.96-4.9c3.15-1.63,4.67-0.98,4.31,2.76C276.99,491.55,277.47,493.23,276.78,494.82z"/>
		<path class="st21" d="M175.69,505.51c-10.06-1.41-20.3-1.68-30.1-4.73c-0.94-0.29-1.88-0.57-2.81-0.89
			c-9.54-3.26-9.53-3.26-9.13-13.14c3.48-0.69,6.2,1.6,9.19,2.57c10.8,3.51,21.94,4.44,33.13,5.2c4.55,0.31,4.8,0.41,2.83,4.18
			c-0.79,1.51-0.06,2.93-0.29,4.37C178.4,504.83,177.05,505.17,175.69,505.51z"/>
		<path class="st22" d="M117.62,779.81c-0.75-2.2-2.35-4.55,1-6.07c8.72-2.87,17.42-0.97,26.12,0.15c4.64,0.6,8.99,2.22,13.35,3.81
			c1.67,0.61,3.51,0.76,5.49,0.46c0.51-0.02-0.29-0.85-0.08-0.22c0.07,0.22-0.04,0.34-0.32,0.32c-2.62-0.19-5.34,0.04-7.6-1.73
			c0.77-2.49,2.94-2.13,4.54-1.75c4.58,1.12,7.62-1.12,10.6-4.04c1.48-1.45,2.56-3.67,5.19-3.42c0.85-0.38-0.2,2.55,2.08,0.82
			c3.61-2.75,6.79-6.45,11.61-7.39c1.49,4.05-4.35,14.1-8.23,13.86c-3.46-0.21,0.62-2.62-1-3.74c-4.72,2.65-9.38,5.43-11.55,10.89
			c-1.17,2.94-3.67,2.85-6.15,2.89c-5.45,0.96-10.61-0.85-15.74-2.03c-2.21-0.5-5.01-0.33-6.41-1.16
			c-4.93-2.93-9.81-0.18-14.44-1.04C123.19,779.89,120.38,780.58,117.62,779.81z"/>
		<path class="st23" d="M177.74,503.62c-1-2.92-2.69-5.99,3.2-7.73c-17.13-1.2-32.72-2.61-47.29-9.15c0.03-0.69,0.06-1.38,0.09-2.06
			c12.12,5.79,25.16,7.58,38.32,8.94c2.41,0.25,3.6-0.45,3.74-3.18c0.38-7.62,1.23-15.21,1.55-22.83
			c0.58-13.94,0.65-27.91,1.43-41.84c0.72-12.96,0.82-25.91,0.96-38.87c0.01-1.17-0.02-2.34,0.76-3.33
			c2.34,2.03,0.98,4.99,1.88,7.37c0.96,2.56-0.34,5.53,1.43,7.95c0.73,0.7,0.97,1.91,2.28,2.42c-0.25-1.78-2.02-1.66-2.56-2.77
			c2.5-3.47,3.76-3.27,6.95,1.12c0.14,3.45,0.66,6.92-0.62,10.28c-2.03-0.67-0.31-3.77-1.91-3.83c-1.81-0.07-3.58,0.47-5.24-0.96
			c-1.07,7.23-0.65,14.43-0.71,21.6c-0.01,1.53-0.68,3.21,2.4,2.61c3.66-0.71,4.69,2.24,5.09,5.28c0.2,2.46,0.41,4.92-0.68,7.26
			c-1.87,0.02,0.17-3.33-3.19-3.02c-4.08,0.38-4.7,1.74-4.67,5.31c0.05,6.96,0.61,13.95-0.42,20.9c-0.87,7.52-0.14,15.13-1.32,22.63
			c-0.41,2.62,0.66,4.5,3.71,4.62c1.33,0.05,2.61,0.38,3.62,1.36c-0.08,1.74,0.28,3.55-0.75,5.15c-0.29,0.48-0.84-1.63-0.78-0.01
			c0.08,2.38,0.21,4.79-2.21,5.94C181.08,505.57,178.96,506.03,177.74,503.62z"/>
		<path class="st24" d="M298.59,507.76c0.68,3.81-1.32,5.62-4.79,5.9c-5.75,0.47-11.47,0.5-17.19-0.86
			c-2.62-0.63-2.94-1.77-2.73-4.15c0.41-4.5,0.79-8.72,6.25-10.12c2.28-0.58,2.71-2.63,2.63-4.75c5.64-1.29,11.29,0.47,16.93-0.08
			c1.9,1.38,0.63,3.24,0.75,4.89c-0.28,0.41-0.62,0.82-1.08,0.93c-2.17,0.52-4.2,1.46-4.61,3.78
			C294.27,506.06,297.36,506.22,298.59,507.76z"/>
		<path class="st25" d="M288.8,770.86c-9.65-1.47-19.02,0.26-28.36,2.45c-4.5,1.06-9,2.16-13.51,3.18
			c-3.47,0.78-5.56-1.49-7.71-3.61c-4.11-4.05-7.83-8.62-13.76-10.22c-2.81,0.09-3.91-1.89-4.86-4.03c0.02-1.66,0.04-3.32,0.05-4.98
			c0.04-8.79,0.04-8.79,9.02-9.89c2.79,6.39,9.44,7.98,14.44,11.65c0.63,0.32,1.1,0.82,1.55,1.34c-2.27,2.29-3.77-0.06-5.65-0.79
			c-2.06-0.81-4.13-3.26-6.58-0.64c-2.49,2.67-1.98,5.12-0.05,8.02c6.15,9.23,11.79,11.04,22.41,7.94
			c6.97-2.04,14.23-3.16,21.6-2.59c4.2,0.33,8.27-0.11,12.1-2C289.58,768.14,290.29,769.68,288.8,770.86z"/>
		<path class="st26" d="M176.68,767.73c-2.48,0.12-3.72,2.12-5.07,3.68c-3.39,3.9-7.03,6.51-12.52,4.38
			c-1.01-0.39-2.3-0.06-3.46-0.06c-0.25,0.01-0.49,0.03-0.74,0.04c-5.49-1.39-11.05-2.39-16.68-3.03c-0.51-0.08-1-0.21-1.49-0.38
			c-4.34-0.13-8.63-1.28-13.01-0.54c-1.17,0.2-2.23-0.28-3.16-0.99c-1.29-0.81-0.85-2.01-0.7-3.15c5.68,1.1,11.41-0.26,17.22,0.78
			c6.82,1.22,13.69,2.23,20.46,3.75c7.75,1.74,17.11-3.24,19.72-10.74c1.38-3.98-0.71-6.14-7.89-7.27
			c4.71-3.06,10.32-4.42,11.26-10.34c8.33,1.66,8.33,1.66,7.97,13.8c-2.11,5.14-7.73,6.33-11.22,9.92
			C177.14,767.65,176.91,767.69,176.68,767.73z"/>
		<path class="st27" d="M228.81,392.61c-0.09-10.82-0.21-21.64-0.27-32.45c-0.04-7.53,0-7.53-7.8-7.39c0-0.68,0-1.36,0.01-2.04
			c7.24,1.97,7.8,1.59,7.9-5.44c0.03-2.47,0.01-4.94,1.12-7.45c0,3.24,0.17,6.49-0.05,9.71c-0.2,2.88,0.47,4.22,3.73,4.13
			c11.61-0.35,23.2,0.4,34.78,1.07c4.78,0.28,9.56,0.64,14.35,0.96c0,0.69-0.01,1.39-0.01,2.08c-2.68-1.09-2.66,0.33-3,2.55
			c-1.51,10.09-1.84,20.27-2.71,30.41c-0.11,1.35-0.27,2.47-1.46,3.47c-9.26,7.75-20.69,8.76-31.05,2.52
			c-1.34-0.81-3.18-1.14-3.71-3.01c2.76-1.56,4.96,0.33,6.83,1.62c8.95,6.19,16.72,2.23,24.51-2.38c1.2-0.71,1.97-1.82,2.16-3.21
			c0.8-5.9,1.84-11.79,0.83-18.13c-10.63,3.42-21,2.68-31.14-1.18c-3.47-1.32-3.94,0.06-3.89,3.03c0.12,6.77-0.23,13.56,0.76,20.3
			c-3.24-0.03-2.99-2.38-3.05-4.56c-0.18-6.29,0.23-12.6-0.81-18.84c-0.74-4.46-2.62-8.73-1.39-13.48c0.57-2.2-1.5-1.98-2.98-2.1
			c-2.27-0.18-2.79,0.97-2.77,2.99c0.09,7.95,0.07,15.91,0.09,23.86c0,2.32-0.01,4.64-0.02,6.96
			C229.77,388.65,231.49,390.98,228.81,392.61z"/>
		<path class="st28" d="M183.69,398.74c-1.2,0.29-2.17,0.41-2.09-1.4c0.09-1.91-0.06-3.83-0.1-5.75
			c-0.74-6.89-0.14-13.81-0.32-20.71c-0.06-2.09,0.71-2.83,2.63-1.54c1.17,0.79,2.39,1.27,3.61,0.21c0.66-0.57,0.85-1.44,0.43-2.26
			c-0.91-1.79-2.29-1.54-3.77-0.77c-0.52,0.22-1.05,0.34-1.61,0.37c-2.79-4.39-1.24-9.19-0.87-13.73c0.17-2.09,3.23-1.79,5.21-1.66
			c1.75,0.12,3.32,0.6,3.33,2.86c0,1.16-0.14,2.33,0.29,3.46c0.02,13.94,0.03,27.88,0.05,41.82c-2.2-0.85-3.97-5.03-6.82-0.89
			L183.69,398.74z"/>
		<path class="st29" d="M183.62,365.76c1.69-2.91,3.65-1.6,5.19-0.05c1.42,1.44,1.38,3.48-0.06,4.91c-2.45,2.45-4.72,0.99-7.25-1.4
			c0,7.87,0,15.12,0,22.37c-1.67-2.51-0.21-5.41-0.99-8.03c0.02-9,0.04-18,0.08-27c0.01-2.03,0.31-3.92-2.93-3.84
			c-3.27,0.07-3.2,2.08-2.62,3.96c1.13,3.66,0.22,6.82-1.54,9.94c-3.72-0.26-7.24,0.89-10.58,2.13c-6.19,2.31-12.33,3.88-18.92,2.2
			c-2.88-0.32-5.8-0.49-8.58-1.67c-1.19,2.81,0.24,5.82-1.4,8.3c-0.39,0.35-0.8,0.4-1.25,0.11c1-6.99-2.86-13.45-2.1-20.49
			c0.38-3.59-2.43-1.16-3.84-1.33c-0.04-0.73-0.08-1.46-0.12-2.19c16.98-1.1,33.95-2.39,50.98-2.08c2.17,0.04,2.9-0.88,2.85-2.97
			c-0.08-2.98,0.06-5.96,0.1-8.94c0.49-0.31,0.93-0.27,1.34,0.14c0.92,1.27,0.89,2.77,0.97,4.25c0.38,6.66,0.39,6.66,6.83,5.57
			c1.16,2.65,0.94,5.41,0.64,8.18c-1.68-1.39,0.73-5.35-3.63-5.26c-3.5,0.07-5.71,0.47-5.09,4.78c0.35,2.43,0.09,4.96,0.05,7.44
			c-0.03,1.83,1.02,1.17,1.92,0.91c1.03,0.75,0.99,2.45,2.82,2.95C186.24,366.74,184.28,366.84,183.62,365.76z"/>
		<path class="st30" d="M233.74,283.96c1.02-0.41,1.64-1.19,2.02-2.18c4.99,0.42,9.1,4.95,8.83,10.32
			c-0.32,6.44-2.01,12.58-5.18,18.27c-1.17,2.1-2.23,2.94-4.39,0.87c-1.88-1.79-4.21-3.1-6.34-4.62c-1.39-1.26-3.95,0.94-4.89-1.64
			c5.36-3.4,9.68-7.76,12.82-13.34c2.4-4.27,1.91-5.32-2.96-6.07C230.26,285.05,234.96,284.59,233.74,283.96z"/>
		<path class="st31" d="M191.58,465.59c1.26,1.6,4.73,1.16,4.42,3.9c-0.26,2.29-0.08,4.23,0.38,6.51
			c1.14,5.67,2.94,10.17,8.99,12.27c4.94,1.72,9.77,3.3,15.07,2.44c-1.81,2.9-5.02,2.07-7.55,2.45c-6.87,1.02-13.82,1.18-20.71-0.26
			c-1.33-0.28-2.85-0.31-2.48-2.22C191.35,482.39,189.67,473.85,191.58,465.59z"/>
		<path class="st32" d="M180.7,301.72c2.29,1.41,4.58,2.81,6.87,4.22c0.33,0.12,0.45,0.26,0.36,0.43c-0.09,0.18-0.18,0.26-0.28,0.26
			c-6.03-0.3-10.16,3.35-14.32,7.1c-5.48-6.11-7.73-13.32-8.57-21.13c-0.48-4.44,1.82-7.8,4.93-10.12c2.89-2.16,4.82,0.99,6.93,2.87
			c-2.05,0.55-3.87,0.98-5.78-1.01c0,2.14,0,3.6,0,5.07C171.48,295.62,176.31,298.49,180.7,301.72z"/>
		<path class="st33" d="M245.65,756.75c-0.57-0.01-1.15-0.02-1.72-0.04c-1.88-3.38,1.15-4.42,2.75-6.14
			c-4.07-1.55-4.08-1.66-0.9-6.49c-1.94-0.81-6.13,1.67-5.1-3.45c4.06-2.37,8.62-2.36,13.1-2.77c0.3,0.4,0.69,0.67,1.18,0.79
			c0.47,0.11,1.29,0.29,1.39,0.11c0.36-0.61-0.77-0.58-0.72-1.18c4.46-1.31,8.87-2.1,12.85,1.32c-0.84,1.62-0.22,2.83,1.08,3.85
			c3.22,2,0.32,4.8,0.94,7.13c-3.47-0.34-4.31-4.47-8.64-4.75C252.6,744.54,250.38,752.04,245.65,756.75z"/>
		<path class="st34" d="M167.74,740.94c0.83,3.99-1.88,1.66-3.18,1.75c-1.25,0.09-2.94-0.69-3.46,0.93
			c-0.48,1.5,1.36,1.49,2.18,2.17c0.95,0.78,2.46,1.46,1.53,3.13c-0.46,0.83-1.54,0.65-5.23-0.78c1.26,2.8,3.66,4.09,5.21,6.07
			c0.64,0.82,1.2,1.82,0.11,2.57c-1.26,0.87-1.54-0.45-2.13-1.2c-2.27-2.87-4.54-5.78-6.85-8.56c-2.33-2.79-10.87-1.7-13.98,0.78
			c-0.61,0.49-1.44,0.72-2.17,1.06c-1.73-2.04-2.59-4.09,0.02-6.12c1.27-0.99,1.83-2.19,1.15-3.77c3.87-4,8.37-2.31,12.78-1.42
			c-0.2,0.86-1.14,0.94-1.29,1.11c0.53-0.93,2.79,1.84,3.2-0.81C159.73,738.61,164.33,737.45,167.74,740.94z"/>
		<path class="st35" d="M189.49,434.64c-2.48-5.16-3.64-5.56-8.91-2.64c0.42-9.6-0.46-18.95,1.25-28.77
			c2.31,2.6,4.87,2.44,7.55,0.94c0.18,2.17,0.34,3.96,0.49,5.76C189.74,418.17,189.61,426.4,189.49,434.64z"/>
		<path class="st36" d="M179.68,464.74c0-9.37,0-18.74,0-29.69c3.45,3.39,5.93,3.93,8.61,2.04c0.2,1.87,0.36,3.33,0.52,4.8
			c-0.08,6.61-0.17,13.22-0.25,19.83c-1.49,0.93,1.43,4.61-2.5,4.02c-0.39-0.17-0.76-0.37-1.12-0.59c-1.53-1.26-3.13-0.06-4.69-0.13
			C180.05,464.93,179.86,464.83,179.68,464.74z"/>
		<path class="st37" d="M228.81,392.61c1.53-1.81,0.35-4.05,0.96-6.01c0.8,0.98,0.74,2.17,0.77,3.33c0.41,16.8,0.7,33.61,1.25,50.41
			c0.55,16.62,1.43,33.23,2.01,49.85c0.1,2.85,1.05,3.69,3.84,3.64c7-0.11,13.84-1.59,20.76-2.28c1.08-0.41,1.34,0.1,1.21,1.07
			c-11.78,2.41-23.66,3.6-35.69,3.23c0.01-0.41,0.02-0.82,0.02-1.23c9.39-0.3,9.15-0.27,8.02-9.87c-0.97-8.25-0.5-16.59-1.04-24.89
			c-0.9-13.92-1.06-27.9-1.33-41.85C229.44,409.53,228.02,401.1,228.81,392.61z"/>
		<path class="st38" d="M186.54,493.7c-9.49,0.46-9.86,0.4-8.51-8.82c0.98-6.71-0.33-13.55,1.66-20.13c0,0-0.05-0.03-0.05-0.03
			c0.12,0.11,0.28,0.21,0.34,0.34c2.33,5.17,2.33,5.17,7.68,3.69C188.29,477.11,186.67,485.37,186.54,493.7z"/>
		<path class="st39" d="M193.41,514.86c-12.58-0.41-24.84-2.63-36.77-7.12c4.55,0.39,9.14,0.5,13.64,1.23
			c4.14,0.68,8.29,0.42,12.4,0.85c4.89,0.51,6.68-1.44,6.13-6.08c0.57-2.7,2.33-3.44,4.78-2.74c3.08,0.89,5.39,2.51,5.23,6.21
			C198.63,511.53,196.59,514.45,193.41,514.86z"/>
		<path class="st40" d="M240.67,740.64c0.38,3.51,2.63,2.46,4.59,1.8c1.27-0.43,2.42-0.43,2.99,0.83c0.57,1.26-0.67,1.65-1.51,2.11
			c-1.29,0.72-3.11,1.63-2.24,3.2c1.43,2.54,2.99-0.52,5-0.48c-0.62,3.84-6.22,4.35-5.58,8.62c-3.71-2.31-7.37-4.72-11.17-6.89
			c-2.47-1.41-3.48-3.32-3.09-6.06C233.18,742.17,236.94,741.44,240.67,740.64z"/>
		<path class="st41" d="M259.6,492.61c-0.4-0.35-0.81-0.71-1.21-1.06c0.59-0.28,1.16-0.65,1.79-0.82c8.94-2.42,6.39-1.4,7.85-9.75
			c2.06-11.75,1.56-23.45,1.63-35.18c0.02-3.58,1.46-7.58-2.57-10.5c3.35,0.12,4.72,1.2,4.66,4.42
			c-0.19,11.32-0.07,22.65-0.08,33.98c0,1.81-0.25,3.1-2.07,4.53c-2.36,1.85-0.78,5.27-0.94,8.01c-0.04,0.74,0.52,1.09,1.31,1.16
			c2.46,0.21,6.45-3.55,6.57-6.33c0.14-3.15,0.18-6.31,0.26-9.46c0.74,7.74,1.7,15.48-0.02,23.22c-0.2-7.78-0.18-7.72-7.25-5.21
			C266.28,490.77,262.92,491.62,259.6,492.61z"/>
		<path class="st42" d="M117.62,779.81c1.36-0.05,2.57-0.16,3.16-1.8c0.54-1.5,1.67-1.51,2.65-0.31c2.83,3.48,5.79,2.85,8.7,0.24
			c1.6-1.44,2.87-1.4,4.18,0.26c0.61,0.77,1.61,2.23,1.85,2.12c4.49-2.08,8.29,2.28,12.44,1.32c2.33-0.53,2.22,2.98,4.99,1.92
			c1.93-0.74,4.69,0.65,7.07,1.09c-3.47,2.82-7.06,0.18-10.48-0.07c-11-0.8-22-1.87-32.87-3.89
			C118.73,780.57,118.19,780.1,117.62,779.81z"/>
		<path class="st43" d="M220.61,500.75c0.21,0.45,0.55,0.88,0.63,1.35c1.29,7.82,1.29,7.98,9.28,7.49c6.9-0.42,13.78-1.26,20.73-1.5
			c-8.97,2.9-18.03,5.24-27.51,5.68c-2.73,1.08-4.43,0-5.26-2.63c-0.68-2.18-1.72-4.32-1.76-6.62
			C216.68,502.08,217.21,499.83,220.61,500.75z"/>
		<path class="st44" d="M251.67,784.75c1.29-1.27,6.79-2.96,8.21-2.53c0.31,0.09,0.86,0.28,0.92,0.19c2.52-4.1,7.13-0.01,9.18-1.84
			c3.85-3.45,7.08-2.79,10.95-0.89c0.8,0.39,2.57,0.41,2.87-0.06c2.82-4.36,5.3-0.43,7.9,0.17c-7.87,2.57-16.17,2.48-24.23,3.86
			C262.27,784.54,256.99,785.15,251.67,784.75z"/>
		<path class="st45" d="M189.8,349.66c-1.56,3.42-4.55,1.92-6.82,1.6c-2.17-0.31-1.17-2.67-1.28-4.15
			c-0.19-2.43-0.15-4.88-0.21-7.33c0.04-4.81,4.17-1.95,6.19-3.01c1.95-1.02,0.92,2.12,1.86,3.03
			C189.62,343.08,189.71,346.37,189.8,349.66z"/>
		<path class="st46" d="M193.41,514.86c4.6-0.83,3.38-4.92,4.19-7.76c0.75-2.63-1.38-3.58-3.35-4.6c-2.28-1.19-4.01-0.87-5.44,1.24
			c-0.34-4.41,0.1-7.98,6.11-6.05c0.91,0.29,1.99,0.16,2.97,0.08c4.35-0.39,5.55,1.24,3.81,5.34c-1.34,3.17-2.34,6.49-3.34,9.78
			C197.49,515.73,196.05,516.71,193.41,514.86z"/>
		<path class="st47" d="M218.63,514.59c-5.12,1.55-7.58-0.74-7.88-5.69c-0.13-2.11-1.68-3.94-1.04-6.15
			c4.45-3.24,6.24-2.72,7.5,2.34C217.98,508.2,220.14,511.14,218.63,514.59z"/>
		<path class="st9" d="M190.7,674.81c-0.01-18.96-0.1-37.92,0.02-56.87c0.02-3.73-2.02-7.47-0.06-11.2c0.66-0.33,1.32-0.67,1.98-1
			c-1.33,21.76-0.87,43.54-1.04,65.31C191.59,672.36,191.78,673.74,190.7,674.81z"/>
		<path class="st48" d="M155.63,775.73c3.85,2.13,7.95,2.56,12.27,1.8c-3.73,1.88-7.63,1.71-11.38,0.56
			c-12.38-3.8-25.01-5.12-37.9-4.36c0.14-1.27,1.61-1.06,2.12-1.93c5.64-1.29,11.29-0.79,16.93-0.05l-0.05-0.02
			c5.97,1.57,12.24,1.77,18.05,4.02L155.63,775.73z"/>
		<path class="st49" d="M290.62,773.74c-12.74-0.97-25.18,0.72-37.39,4.26c-3.57,1.04-7.03,0.73-10.56,0.44
			c15.34-2.27,30.15-8.14,45.98-6.7C289.16,772.56,290.54,772.5,290.62,773.74z"/>
		<path class="st9" d="M193.67,579.71c0.29,0.01,0.58,0.01,0.87-0.01c-0.02,8.72-0.54,17.41-1.9,26.03c0.06-1.67-0.09-3.27-0.9-4.82
			C187.84,593.44,190.21,586.52,193.67,579.71z"/>
		<path class="st50" d="M218.63,514.59c0.22-3.74-1.23-7.19-2.22-10.64c-1.17-4.08-4.33-1.38-6.69-1.2
			c-2.01-3.31-2.05-5.46,2.8-5.11c1.24,0.09,2.56-0.44,3.81-0.79c3.56-1,5.14,0.1,4.28,3.9c-0.74,0.31-1.78,0.41-2.17,0.96
			c-2.08,3,1.6,11.24,5.3,12.06C222.2,515.05,220.42,514.83,218.63,514.59z"/>
		<path class="st51" d="M99.54,336.57c0.88,7.67-0.76,15.57,2.12,23.06c0.76,1.96,1.33,3.99,2.1,6.31
			c-3.25-0.01-3.31-3.78-5.81-4.11C99.74,353.49,98.21,344.94,99.54,336.57z"/>
		<path class="st52" d="M311.57,361.77c-1.03,1.03-2.04,2.08-3.09,3.08c-0.21,0.2-0.55,0.25-1.64,0.71
			c0.46-5.43,1.5-10.24,3.66-14.83C310.31,354.46,312.14,358,311.57,361.77z"/>
		<path class="st53" d="M127.47,493.84c-6.94,0.62-13.89,2.19-20.82-0.12c-0.06-0.6-0.12-1.21-0.17-1.81
			c7.04,1.52,14.07,1.47,21.09-0.19C127.54,492.43,127.5,493.14,127.47,493.84z"/>
		<path class="st54" d="M298.59,507.76c-3.39,0.86-5.75-1.64-5.52-3.89c0.36-3.59,3.27-5.79,7.37-5.28
			C300.81,501.85,300.44,504.96,298.59,507.76z"/>
		<path class="st23" d="M187.66,468.74c-1.87,0.9-2.77,4.12-5.71,2.45c-2.6-1.48-2.57-3.95-2.32-6.48c2.01-0.4,4.06-3.73,6.03,0.06
			c-0.81,0.96-2.33,1.11-3.15,2.83c2.14-0.25,2.03-2.21,3.12-2.86c3.09,1.06,1.41-2.53,2.93-3.01
			C188.58,464.11,188.92,466.53,187.66,468.74z"/>
		<path class="st55" d="M189.53,339.79c-2.68-4.02-5.37-0.38-8.05-0.01c-0.28-0.01-0.56-0.04-0.83-0.07
			c0.13-2.03-1.21-4.31,1.02-5.98c0.94,0.5,1.56,1.73,2.96,1.32c-0.65-1.37-2.18-0.47-3.01-1.28c2-3.95,3.06-3.99,6.81-0.22
			C188.89,335.61,190.11,337.54,189.53,339.79z"/>
		<path class="st56" d="M189.61,760.75c-4.97,3.65-9.94,7.31-14.91,10.96c-0.16-0.19-0.32-0.38-0.48-0.57
			c0.82-1.14,1.65-2.28,2.47-3.41c0,0-0.03,0.02-0.03,0.02c3.72-3.4,8.25-5.72,12.03-9.04C189.63,759.09,189.67,759.9,189.61,760.75
			z"/>
		<path class="st57" d="M177.74,503.62c2.04,1.18,3.93,1.65,5.71-0.58c2.15-2.71,0.74-4.81-1.1-6.88c2.89-1.09,3.21,0.73,3.43,2.68
			c-0.28,7.2-0.28,7.2-10.09,6.66C176.37,504.88,177.06,504.25,177.74,503.62z"/>
		<path class="st58" d="M299.69,493.7c-5.63,2.5-11.29-0.41-16.93,0.08c0.02-0.71,0.04-1.42,0.06-2.13
			c5.52,1.67,11.19,0.93,16.81,1.05C299.65,493.04,299.67,493.37,299.69,493.7z"/>
		<path class="st8" d="M145.69,507.66c-0.02,1.95-0.02,3.9-0.06,5.85c-0.02,0.84-0.19,1.75-1.23,1.73c-0.88-0.02-1.53-0.8-1.56-1.61
			c-0.07-2.47-1.22-5.3,1.88-6.93C145.04,507.02,145.36,507.34,145.69,507.66z"/>
		<path class="st59" d="M134.62,558.78c1.9-1.36,0.33-3.53,1.2-5.13c1.64,5.96,0.6,11.99,0.07,18.06
			C135.47,567.4,135.05,563.09,134.62,558.78z"/>
		<path class="st22" d="M188.68,758.71c-3.1,4.23-7.58,6.61-12.03,9.04c2.74-4.83,8.51-6.06,11.94-10.08
			C188.61,758.02,188.64,758.37,188.68,758.71z"/>
		<path class="st22" d="M137.68,771.76c-5.64,0.02-11.29,0.03-16.93,0.05c-0.07-0.32-0.13-0.65-0.2-0.97
			C126.31,770.16,132.06,769.71,137.68,771.76z"/>
		<path class="st60" d="M220.6,758.64c1.62,1.35,3.24,2.69,4.86,4.04c0.75,1,1.5,2.01,2.25,3.01l-0.1,0.11
			c-3.77-0.99-6.51-3.16-7.88-6.9C220.01,758.77,220.3,758.69,220.6,758.64z"/>
		<path class="st61" d="M187.64,306.62c-0.15-0.22-0.17-0.45-0.08-0.69c2,1.07,4.26,1.83,5.25,4.64
			C189.95,310.43,187.48,310.34,187.64,306.62z"/>
		<path class="st62" d="M155.62,737.85c-0.13,0.64,2.32,1.26,0.19,1.78c-1.66,0.41-3.51,0.08-5.5,0.08
			c0.86-1.63,2.25-1.69,3.41-2.16C154.35,737.65,154.98,737.75,155.62,737.85z"/>
		<path class="st63" d="M255.61,737.58c1.15,0.51,2.29,1.02,3.44,1.53c-1.74-0.65-4.77,3.08-5.28-1.23
			C254.38,737.77,255,737.67,255.61,737.58z"/>
		<path class="st64" d="M269.54,742.75c-1.15-0.38-2.94,0.63-3.42-0.83c-0.53-1.62,1.74-1.83,2.34-3.02
			C268.82,740.18,269.18,741.47,269.54,742.75z"/>
		<path class="st65" d="M140.94,738.97c0.62,1.1,2.7,1.34,2.33,2.78c-0.44,1.71-2.28,0.69-3.48,1
			C140.17,741.49,140.56,740.23,140.94,738.97z"/>
		<path class="st66" d="M247.05,711.54c-5.14,0.88-9.53,0.35-11.97-4.83c-0.27-0.57-0.99-0.9-1.37-1.44
			c-1.55-2.16-6.12-1.89-5.69-4.89c0.59-4.16,2.27-8.32,5.19-11.67c6-6.87,6.07-7.57,0.33-14.63c-3.34-4.1-6.1-8.08-3.68-13.89
			c1.34-3.2,2.72-5.25,6.42-5.9c5.33-0.93,10.61-0.43,15.91-0.41c1.61,0.01,3.35,0.81,4.13,2.44c2.4,5.06,6.55,9.32,6.28,15.58
			c-0.23,5.42-0.34,10.69-5.16,14.38c-4.65,3.56-4.47,6.18,0.6,9.06c7.7,4.37,7.62,4.29,1.7,10.87
			C256.23,710.11,252.61,713.31,247.05,711.54z"/>
		<path class="st67" d="M216.7,573.85c-0.17-10.28,3.5-17.73,8.69-24.62c0.51-0.67,1.13-1.7,1.91-0.96
			c2.78,2.62,5.42,0.39,7.23-0.79c9.72-6.32,24.81,3.95,24.95,16.02c0.1,9.39-0.65,18.76,1.92,27.96c0.19,0.66,0.19,1.42-0.5,1.72
			c-0.96,0.42-1.59-0.3-1.97-1.03c-0.53-1.03-0.87-2.15-1.37-3.19c-1-2.08-1.78-3.39-4.86-2.1c-4.55,1.91-9.64,2.43-14.62,1.76
			c-5.5-0.74-13.26-9.95-13.42-15.58c-0.04-1.33,0-2.66-0.02-4c-0.03-1.43-0.42-2.71-2.01-3.05c-1.61-0.34-2.35,0.66-2.93,2.04
			C219,569.64,218.09,571.18,216.7,573.85z"/>
		<path class="st8" d="M192.66,567.74c-1.13-6.2-5.24-11.15-7.22-17.01c-0.71-2.11-2.39-4.05-4.91-2.17
			c-1.87,1.4-2.89,0.34-4.35-0.49c-8.65-4.93-17.14-2.3-21.91,6.29c-2.36,4.24-4.65,8.37-4.63,13.37c-3.55-1.37-4.45-4.79-4.29-7.69
			c0.67-11.79,0.14-23.58,0.25-35.36c0.04-4.21,1.65-6.14,5.93-6c2.1,0.07,4.47,0.14,6.29-0.7c5.51-2.53,7.58,0.69,9.99,4.77
			c1.98,3.36,5.13,5.57,9.58,4.24c3.28-0.98,5.41,0.1,6.13,3.63c0.39,1.94,1.12,3.76,1.22,5.81c0.16,3.06,1.32,5.52,5.12,5.33
			c1.69-0.08,3.23,0.4,2.41,2.55c-2.53,6.71-0.39,13.3,0.3,19.94C192.69,565.4,192.63,566.57,192.66,567.74z"/>
		<path class="st8" d="M152.65,578.76c3.3,5.06,6.96,8.91,13.64,10.27c6.94,1.41,10.66-2.43,14.48-6.22
			c3.14-3.13,5.06-7.34,4.9-12.12c-0.05-1.53,0.02-3.22,1.84-3.65c2.43-0.57,1.99,1.59,2.32,2.87c0.83,3.14,4.78,4.91,3.81,8.81
			c-4.1,1.19-2.47,5.35-4.06,7.85c-1.3,2.04-0.53,7.01-5.55,3.58c-1.2-0.82-2.33,0.96-3.4,1.62c-7.15,4.43-14.32,5.8-21.97,1.04
			c-1.95-1.21-3.44-2.5-4.26-4.6c-1.24-3.22-2.52-1.87-3.86,0.55C148.21,584.4,154.66,582.49,152.65,578.76z"/>
		<path class="st8" d="M195.6,522.38c1.2-0.59,2.25-1.87,3.57-0.91c0.57,0.42,0.49,1.24-0.08,1.71
			C197.7,524.32,196.73,522.97,195.6,522.38z"/>
		<path class="st68" d="M297.13,395.86c4.03-7.17,8.2-14.16,12.28-21.21C307.7,383.11,303.73,390.28,297.13,395.86z"/>
		<path class="st69" d="M113.42,395.66c-6.14-5.89-12.02-12.09-12.86-21.32C104.85,381.45,109.13,388.56,113.42,395.66z"/>
		<path class="st70" d="M132.77,377.7c0.33,0.01,0.66,0.02,0.99,0.03c2.92,0.89,2.27,3.44,2.13,5.35c-0.34,4.56,1.63,6.97,5.47,9.52
			c9.59,6.38,17.91,3.56,26.29-2.02c1.65-1.1,2.54-2.64,2.59-4.59c0.16-5.63,0.13-11.26,0.01-17.15
			c-6.91,1.92-13.26,4.44-20.08,4.98c-4.58,0.36-5.98-0.5-6.53-4.07c9.24,2.45,17.36-1.83,25.7-4.48c2.13-0.68,3.03,0.13,4.16,1.37
			c-0.25,7.27-0.47,14.55-0.76,21.82c-0.03,0.79-0.19,1.69-0.61,2.34c-3,4.7-18.64,9.81-23.88,7.86c-0.78-0.29-1.55-0.59-2.3-0.93
			C132.4,391.6,132.65,392.73,132.77,377.7z"/>
		<path class="st23" d="M142.7,436.02c-2.64,2.59-2.1,5.37-2.11,8.04c-0.03,8.79-0.06,17.59,0.03,26.38c0.02,2.19-0.8,4.7,1.8,6.29
			c1.14,0.7,0.32,2.39-0.04,2.57c-1.13,0.58-0.57-1.34-1.66-1.48c-2.32-0.3-2.09-2.18-2.09-3.83c0-11.28,0.01-22.57,0.01-33.85
			C138.65,437.95,138.67,435.79,142.7,436.02z"/>
		<path class="st11" d="M153.65,708.79c-1.82-1.67-3.52-3.52-5.5-4.98c-4.16-3.06-3.57-5.63,0.5-8.09c1,0,2.01,0.09,3-0.02
			c2.81-0.31,4.47-2.4,5.57-4.54c1.35-2.63-1.67-3.06-2.95-4.37c-3.29-3.36-4.52-6.97-4.06-12.05c0.52-5.82,1.63-10.89,5.15-15.63
			c2.05-2.75,3.94-4.66,7.65-4.44c3.29,0.19,6.57,0.13,9.89-0.71c4.3-1.09,6.09,2.02,6.64,5.58c0.88,5.65-0.12,10.91-4.37,15.19
			c-1.04,1.05-1.88,2.3-2.75,3.51c-2.44,3.4-2.16,6.3,1.22,9.1c2.27,1.88,5.05,3.79,5.54,6.87c0.37,2.33,2.73,5.42,1.19,6.73
			c-3.44,2.95-7.13,6.27-11.99,6.7c-3.67,0.32-7.19,0.36-10.25,2.96C156,712.43,155.38,708.9,153.65,708.79z"/>
		<path class="st71" d="M220.97,401.24c2.72-1.95,4.4-1.4,7.13-1.17C225.64,402.33,223.89,401.73,220.97,401.24z"/>
		<path class="st72" d="M228.81,433.54c-2.28,1.76-3.93,1.21-5.99,1.04C224.51,432.28,226.23,432.62,228.81,433.54z"/>
		<path class="st73" d="M227.31,367.1c-2.47,1.97-3.87,1.76-5.96,0.76C223.31,366.28,224.78,366.85,227.31,367.1z"/>
		<path class="st74" d="M107.52,500.63c0.75,0.32,1.63,0.49,2.21,1c0.95,0.85,1.02,2.05,0.46,3.2c-0.11,0.22-0.56,0.44-0.8,0.4
			c-1.48-0.26-1.61-1.45-1.7-2.64c-0.05-0.66-0.09-1.33-0.13-1.99C107.55,500.59,107.52,500.63,107.52,500.63z"/>
		<path class="st60" d="M227.71,765.68c3.48,1.23,6.03,3.63,8.18,6.54c-2.94-1.9-6.22-3.37-8.28-6.43
			C227.61,765.79,227.71,765.68,227.71,765.68z"/>
		<path class="st75" d="M183.66,398.77c1.12,0.08,2.31-0.05,3.35,0.29c0.92,0.3,1.53,1.25,1.19,2.34c-0.3,0.96-0.97,1.71-1.99,1.97
			c-1.13,0.29-2.01-0.3-2.28-1.28c-0.29-1.06-0.17-2.23-0.23-3.35C183.69,398.74,183.66,398.77,183.66,398.77z"/>
		<path class="st76" d="M184.65,436.54c-1.35-0.26-2.02-1.14-1.97-2.42c0.07-1.52,0.91-2.44,2.54-2.3c1.34,0.11,2.25,0.98,2.09,2.24
			C187.13,435.4,186.12,436.33,184.65,436.54z"/>
		<path class="st77" d="M182.72,499.78c-0.07,1.4-0.36,2.73-2.11,2.7c-1.25-0.02-2.25-0.83-2.36-2.09
			c-0.14-1.47,0.59-2.51,2.24-2.58C181.87,497.75,182.68,498.33,182.72,499.78z"/>
		<path class="st22" d="M155.68,775.75c-6.12-0.86-12.28-1.59-18.05-4.02C143.83,772.26,150.14,772.29,155.68,775.75z"/>
		<path class="st78" d="M240.71,391.76c-1.43-1.88-2.09-3.9-2.03-6.37c0.13-5.65-0.13-11.31-0.16-16.96
			c-0.01-2.34,0.33-3.62,3.44-2.38c8.05,3.19,16.17,6.92,25.18,3.68c2.25-0.81,4.83,0.56,6.98-1.73c1.3-1.38,2.41-0.18,2.52,1.83
			c0.33,6.34-0.53,12.6-1.02,18.89c-0.05,0.63-0.23,1.34-0.58,1.85c-3.23,4.64-17.91,8.49-23.17,6.31
			c-3.81-1.58-7.08-4.32-11.21-5.17C240.64,391.71,240.71,391.76,240.71,391.76z"/>
		<path class="st79" d="M257.62,368.66c-6.02-1.33-11.73-3.54-17.48-5.71c-4.22-1.6-3.37-5-3.26-7.95c0.14-3.67,3.3-2.04,5.03-1.98
			c10.78,0.41,21.56,1.02,32.33,1.74c1.22,0.08,4.14-1.22,3.51,1.73c-0.6,2.82,2.23,6.97-2.73,8.36c-4.78,1.34-9.57,2.67-14.36,4
			c-2.36-0.46-0.74-1.64-0.25-2.22c1.62-1.92,1.96-3.72,0.03-5.61c-0.8-0.79-1.63-1.05-2.57-0.25c-1.96,1.66-2.18,3.5-0.62,5.58
			C257.74,367.03,258.03,367.82,257.62,368.66z"/>
		<path class="st80" d="M257.62,368.66c-0.73-0.88-1.52-1.72-2.18-2.66c-1.94-2.8-0.04-4.53,1.78-6.32
			c1.19-1.17,1.96-1.59,3.49-0.09c1.97,1.93,3.18,3.61,1.93,6.43c-0.5,1.12-2.59,1.05-1.98,2.85
			C259.57,370,258.55,369.97,257.62,368.66z"/>
		<path class="st21" d="M143.64,369.74c1.38,3.45,4.38,3.13,7.1,2.74c7.06-1.01,13.84-3.07,20.68-6.01c0,7.4,0,14.63-0.01,21.86
			c0,0.32-0.09,0.67-0.22,0.96c-1.44,3.13-16.34,9.59-19.79,8.68c-4.84-1.27-9.25-3.52-13.61-5.87c-2.03-1.1-3.09-2.53-3.16-5.1
			c-0.08-3.08,0.76-6.32-0.86-9.28c0.53-3.37-1.58-7.74,1-9.8C136.05,366.91,140.47,369.5,143.64,369.74z"/>
		<path class="st81" d="M167.38,352.83c1.79,1.08,5.54-2.15,6.16,2.29c0.52,3.7,0.33,7.26-4.49,8.57c-4.64,1.26-9.07,3.25-13.7,4.52
			c-7.74,2.13-14.68-1.61-21.56-4.04c-2.62-0.92-1.01-5.15-1.08-7.83c-0.06-2.13,2.21-1.52,3.56-1.61
			C146.52,354.07,156.8,353.47,167.38,352.83z"/>
		<path class="st82" d="M183.62,365.76c0.82-0.06,1.65-0.19,2.46-0.16c1.52,0.06,2.53,0.84,2.53,2.43c0.01,1.56-0.99,2.53-2.43,2.61
			c-1.53,0.08-2.37-1-2.54-2.48c-0.09-0.81,0.02-1.64,0.04-2.46C183.68,365.7,183.62,365.76,183.62,365.76z"/>
		<path class="st83" d="M298.87,502.62c-0.17,1.33-0.43,2.78-1.97,2.99c-1.29,0.17-1.45-1.09-1.4-2.07
			c0.07-1.49,0.33-3.17,2.19-3.23C298.97,500.27,298.69,501.72,298.87,502.62z"/>
		<path class="st84" d="M185.63,464.73c0.02,0.97,0.16,1.96,0.01,2.91c-0.19,1.31-1.15,1.97-2.43,1.87
			c-1.25-0.09-2.16-0.84-2.27-2.15c-0.1-1.26,0.52-2.25,1.81-2.5c0.94-0.18,1.94-0.08,2.92-0.1
			C185.66,464.77,185.63,464.73,185.63,464.73z"/>
		<path class="st85" d="M181.63,333.77c1.86-0.79,3.92-2.6,5.11,0.72c0.43,1.21-0.26,2.49-1.46,2.75c-2.73,0.58-3.22-1.49-3.6-3.52
			C181.67,333.72,181.63,333.77,181.63,333.77z"/>
		<path class="st86" d="M258.8,366.33c-1.54-0.23-2.23-1.18-2.18-2.68c0.05-1.69,0.77-2.9,2.63-2.71c1.47,0.15,2.24,1.2,2.33,2.67
			C261.71,365.56,260.31,365.99,258.8,366.33z"/>
		<path class="st87" d="M151.38,365.69c-1.23-0.18-2.38-0.62-2.26-2.09c0.11-1.43,1.28-1.81,2.53-1.79
			c1.16,0.02,1.85,0.61,1.89,1.82C153.6,365.12,152.77,365.7,151.38,365.69z"/>
	</g>
</g>
<g id="face">
	<path class="st88" d="M127.55,202.74c-1.62,1.86-0.91,4.11-0.82,6.15c0.14,3.46-1.55,4.82-4.68,4.83
		c-3.28,0.01-6.48,0.27-9.38,2.02c-10.71-10.14-15.52-23.32-18.84-37.18c-0.95-3.95-2.22-7.36-5.19-10.37
		c-5.33-5.4-8.16-12.04-7.83-19.82c0.17-4.08-0.72-8.03-2.85-11.45c-4.93-7.95-5.01-16.3-2.85-25c0.36-1.43,0.75-3.01,0.49-4.4
		c-3.31-17.1,3.77-30.73,14.1-43.42c25.43-31.22,58.98-48.85,97.41-58.22c9.49-2.31,19.17-3.87,28.81-5.56
		c6.29-1.1,11.6,0.64,14.76,6.63c1.08,2.05,2.85,2.43,4.79,3.08c30.57,10.24,58.08,25.57,79.78,49.85
		c11.29,12.63,18.88,27.61,16.99,44.89c-1.41,12.83,0.64,26.44-6.28,38.42c0.64,13.69-8.96,24.31-11.1,37.35
		c-1.72,10.47-7.51,19.78-13.5,28.61c-1.74,2.57-3.65,5.17-6.71,6.46c-7.6-2.08-9.17-9.33-12.75-14.86
		c-1.28-1.9-0.28-3.84-0.11-5.76c0.81-1.91,0.12-3.82-0.05-5.73c0.37-2.53,0.63-5.07,1.01-7.6c1.13-3.85,0.28-7.63-0.35-11.42
		c0.24-3.93-0.36-7.7-2.29-11.19c-1.06-1.68-3.22-2.44-3.82-4.51c-0.13-0.62-0.17-1.26-0.27-1.89c-0.65-1.83-2.01-3.13-3.33-4.46
		c-0.53-1.1-0.75-2.36-1.83-3.15c-1.41-1.47-2.94-2.82-4.3-4.35c-10.09-12.4-20.51-24.51-30.29-37.15
		c-1.74-2.25-3.86-3.36-6.67-3.85c-9.9-1.74-19.86-1.93-29.86-1.58c-5.06,0.17-8.95,2.15-12.24,6.42
		c-9.08,11.78-19.56,22.24-31.69,30.95c-2.15,1.73-4.12,3.69-6.54,5.07c-2.55,1.69-3.13,4.99-5.54,6.78
		c-1.8,3.87-5.72,5.75-8.28,8.9c-2.53,4.67-5.37,9.21-5.77,14.71c-0.06,0.49-0.17,0.96-0.29,1.43c-0.56,2.95-1.5,5.83-1.36,8.89
		c-0.01,2.16,0,4.31,0.02,6.47c0,1.4,0,2.8,0.01,4.2C127.17,195.48,130.16,199.24,127.55,202.74z"/>
	<path class="st89" d="M274.65,241.73c-1.3,1.02-1.84,2.41-2,4c-4.22,9.99-12.56,16.04-21,22l0,0c-4.7,2.55-8.47,6.99-14.43,6.99
		c-1.32,0-1.96,1.21-2.55,2.17c-1.18,1.93-2.81,3.2-4.9,4.04c-1.05,0.42-2.41,0.77-2.83,1.91c-2.03,5.45-6.9,6.34-11.64,7.26
		c-7.07,1.37-14.2,1.61-21.25-0.11c-3.94-0.96-7.17-2.82-9.69-6.41c-2.41-3.42-7.16-4.76-9.1-8.9c-0.13-0.29-0.58-0.54-0.83-0.44
		c-8.4,3.46-12.66-3.85-17.98-7.44c-6.94-4.69-13.81-9.82-18.06-17.53c-1.52-2.76-2.95-5.49-3.74-8.54c-1.18-0.72-0.96-1.9-1-3
		c-0.66-4.21-2.14-8.19-3.41-12.24c-0.89-2.83-1.28-5.8,0.58-8.52c3.23-1.3,3.28,1.81,4.48,3.28c1.37,1.68,1.33,5.16,5.14,3.62
		c0.76-0.31,1.53,1.09,2.14,1.88c1.64,2.1,2.65,5.08,6.37,4.15c0.63-0.16,1.41,0.84,1.8,1.59c2.03,3.93,3.35,3.39,5.41-0.26
		c4.38-7.75,12.08-10.16,20.11-9.32c8.93,0.93,17.89,1.86,26.81,2.22c9.07,0.37,18.23-0.99,27.3-2.01
		c11.27-1.26,18.41,2.21,23.97,12.08c4.61-3.86,9.36-7.4,14.94-9.91c2.86-1.29,3.84-4.88,5.5-7.55c1.13-1.81,1.37-4.78,4.71-4.19
		c1.49,1.33,1.17,2.99,0.83,4.64C278.64,225.42,277.11,233.68,274.65,241.73z"/>
	<path class="st10" d="M278.46,212.65c-2.91,4.4-4.65,9.54-8.44,13.41c-1.95,1.99-2.74,1.67-2.13-2.28
		c-2.01,2.87-3.07,4.93-4.67,6.41c-0.74,0.69-1.82,5.12-3.84,0.66c-0.21-0.47-0.77-0.24-1.53,0.99c-1.12,1.81-2.16,3.68-3.72,6.34
		c-4.15-13.8-13.83-16.12-25.67-14.53c-17.26,2.31-34.48,1.69-51.76-0.36c-10.91-1.3-19.04,3.34-22.25,14.53
		c-2.17-0.77-2.64-2.51-3.56-3.84c-1.06-1.54-0.98-1.54-3.39-1.14c-1.16,0.19-1.82-0.75-2.39-1.51c-1.7-2.25-3.29-4.58-5.05-7.04
		c-0.26,1.02-0.49,1.93-0.78,3.08c-4.05-2.6-4.95-7.28-7.6-10.67c-2.13-1.05-1.47-3.24-2.03-4.94c-0.7-3-1.4-6.01-2.1-9.01
		c0.28-3.67-1.64-7.17-0.78-10.88c1.74-0.32,2.32,1.09,2.96,2.17c9.02,15.3,22.39,16.8,38.24,12.64
		c16.12-4.23,30.38-23.27,30.45-39.42c0.02-5.67,3.65-9.04,8.29-8.02c3.3,0.73,5.48,2.75,5.16,6.32
		c-0.88,9.81,5.41,17.71,6.96,26.86c0.1,0.62,0.39,1.66,1.04,1.53c4.44-0.9,5.93,3.02,8.39,5.15c10.57,9.14,29.01,12.26,40.33,6.76
		c4.49-2.18,7.76-5.65,10.75-9.49c0.85-1.1,1.28-2.81,3.23-2.48c0.09,0.01,0.18,0.22,0.21,0.35c0.03,0.16,0,0.33,0,0.5
		c-0.29,2.01-0.59,4.01-0.88,6.02c-0.16,2.33-1.74,4.38-1.32,6.82C279.74,209.21,280.91,211.68,278.46,212.65z"/>
	<path class="st88" d="M223.69,290.84c-1.8,3.05-5.12,2.78-7.87,3.16c-9.33,1.31-18.7,1.74-27.85-1.29
		c-1.66-0.55-3.46-1.03-4.38-2.81c-0.73-5.72-5.88-10.82-11.24-12.31c-6.31-1.76-11.54-5.78-16.57-9.84
		c-7.6-6.13-15.63-11.91-19.81-21.28c-0.83-1.87-1.52-3.68-1.32-5.74c6.41,15.94,20.26,24.32,33.69,33.12
		c1.47,0.96,3.26,1.75,4.16-0.44c1.61-3.93,2.32-1.38,3.71,0.17c5.24,5.79,9.8,12.72,17.74,15c9.32,2.67,18.7,1.49,27.86-1.47
		c1.29-0.42,2.43-1.18,2.89-2.55c0.95-2.79,3.15-4.14,5.67-5.19c1.56-0.65,2.74-1.65,3.63-3.21c1-1.77,0.93-5.78,5.1-2.29
		c1.57,1.31,3.98-2.37,6.37-3.05c2.25-0.64,3.72-2.83,6.17-3.08c-3.86,4.45-9.15,6.63-14.3,9.03c-2.37,1.11-4.83,2.15-1.59,5.02
		c0.21,1.55-0.56,2.19-2.02,2.18c-1.51-3.15-4.08-2.66-5.48-0.6C226.64,285.74,224.1,287.69,223.69,290.84z"/>
	<path class="st88" d="M278.46,212.65c0.58-1.75,0.85-3.63,2.12-5.1c1.41,4.02,1.06,7.95,0.19,12.1
		c-1.56,7.51-2.23,15.22-6.12,22.07c0.12-8.13,3.6-15.63,4.43-23.64C279.28,216.16,280.44,214.28,278.46,212.65z"/>
	<path class="st88" d="M129.65,211.75c1.17,1.44,1.63,3.18,2.03,4.94c-2.23,4.4-0.93,8.79,0.58,12.9c1,2.72,1.52,5.33,1.4,8.15
		c-2.5-6.93-5.43-13.71-5.34-21.34C128.34,214.56,129.09,213.26,129.65,211.75z"/>
	<path class="st88" d="M251.66,267.73c2.38-4.3,7.15-5.79,10.6-8.87c4.29-3.84,6.68-8.97,10.4-13.13
		C269.29,256.54,261.11,262.75,251.66,267.73z"/>
	<path class="st90" d="M101.5,59.62c6.2-7.66,13.62-14.04,21.55-19.75c23.78-17.13,50.77-26.54,79.31-31.69
		c5.16-0.93,10.31-2.46,15.68-2.46c5.95,0,9.19,2.48,9.62,8.39c0.64,8.74-0.55,17.19-4.7,25.11c-2.3,4.4-4.2,9.01-6.29,13.52
		c-5.57,8.01-10.05,16.71-15.72,24.66c-9.56,13.4-19.89,26.15-32.11,37.26c-2.81,2.56-4.85,5.75-7.68,8.38
		c-4.07,3.77-9,6.12-13.35,9.31c-11.69,8.54-24.24,15.82-39.73,14.7c-3.11-0.22-5.87-1.04-8.38-2.81c-0.99-0.7-1.75-1.63-1.33-2.95
		c0.35-1.08,1.36-1.37,2.35-1.59c0.81-0.18,1.65-0.2,2.48-0.27c8.59-0.75,16.01-3.83,23.46-8.52c9.48-5.98,16.96-13.66,24.38-21.67
		c2.56-2.76,6.4-4.37,7.44-8.46c1.73-2.94,3.6-5.79,6.38-7.88c6.69-6.53,11.8-14.43,17.08-19.58c-4.47,5.55-11.1,11.82-16.74,18.97
		c-3.37,2.75-5.63,6.73-9.69,8.72c-5.63,4.04-11.07,8.31-17.09,11.85c-12.34,7.25-24.84,13.61-39.77,12.1
		c-4.18-0.42-8.27-1.37-11.36-4.51c-2.66-2.7-3.55-6.07-2.43-9.68c1.18-3.78,4.6-3.04,7.53-3.34c12.44-1.24,24.29-4.19,34.5-11.94
		c5.27-4,11.81-6.25,16.35-11.19c5.88-6.39,13.02-11.48,18.43-18.27c-4.56,1.6-7.19,5.75-11.1,8.17c-1.7,1.05-3.36,2.15-5.15,3.05
		c-10.7,5.51-20.73,12.28-32.32,16.08c-5.47,1.8-10.87,2.98-16.56,2.69c-6.86-0.35-11.21-5.93-9.95-12.65
		c0.46-2.45,1.44-4.77,2.33-7.08c1.09-2.84,3.53-3.97,6.43-3.65c11.49,1.28,21.83-1.92,31.94-7.14c5.11-2.64,10.54-4.67,15.27-8.02
		c2.47-1.92,5.14-3.48,7.11-4.33c-6.22,3.15-12.87,7.89-21.02,8.97c-7.53,1.25-15.02,3.24-22.71,1.24
		C103.92,62.8,101.5,62.63,101.5,59.62z"/>
	<path class="st91" d="M101.5,59.62c5.47,4.27,11.78,3.18,17.94,2.65c3.44-0.3,6.85-0.97,10.28-1.48c0.13,1.25-0.76,1.79-1.67,2.16
		c-7.79,3.23-15.79,4.83-24.19,3.16c9.85,2.01,18.92-0.87,27.98-4.34c3.87-1.48,7.24-4.59,11.81-4.01c-2.71,4.47-8,5.24-12.05,7.35
		c-2.92,1.53-6.66,2.8-9.67,4.33c-8.66,4.39-17.53,5.3-26.89,4.36c-2.84-0.28-4.97,0.78-5.28,3.91c-0.15,1.55-0.83,2.77-1.45,4.13
		c-2.74,5.96,1.77,12.45,8.37,12.95c9.7,0.73,17.75-4.14,26.44-6.98c8.28-2.71,14.35-9.49,22.71-11.96c0.93,1.63-0.27,2.53-1.29,3.3
		c-16.62,12.44-34.49,22.43-54.82,27.48c-0.59,0.15-1.31,0.4-1.57,0.13c7.43-0.24,14.6-2.6,21.4-5.93
		c13.59-6.66,26.25-14.8,38.05-24.35c5.16-4.18,10.1-8.59,15.21-12.82c2.1,1.84,1.41,3.46-0.47,4.87
		c-6.11,4.58-11.66,9.7-16.52,15.64c-3.17,3.88-7.76,6.39-12.05,8.55c-5.89,2.96-9.95,8.68-16.74,10.18
		c-8.02,1.77-15.39,6.01-23.93,5.97c-2.59-0.01-6.37-1.82-7.37,2.76c-0.96,4.38,1.47,8.56,5.95,10.23c10.26,3.83,20.48,2.4,30-1.87
		c5.79-2.6,11.42-6.33,16.99-9.16c6.23-3.17,10.41-8.98,17.03-11.09c0.57,1.77-0.67,2.83-1.67,3.87
		c-12.58,13.06-26.28,24.46-44.1,29.76c-5.49,1.63-11.06,2.7-16.8,2.66c18.24-0.65,28.85-4.76,43.89-16.44
		c6.21-4.82,11.78-10.26,17.34-15.75c1.47-1.45,2.67-3.56,5.3-3.14c-0.18,2.71-1.72,4.66-3.74,6.22
		c-4.72,3.64-8.68,8.03-12.46,12.58c-5.27,6.33-12.99,9.34-19.14,14.38c-6.79,5.57-14.69,5.81-22.58,6.87
		c-0.92,0.12-2.23-0.3-2.5,1.01c-0.25,1.21,0.99,1.41,1.79,1.98c3.23,2.27,6.88,2.2,10.52,2.02c9.74-0.46,18.2-3.72,26.74-8.85
		c5.94-3.57,11.18-8.2,17.36-11.52c3.81-2.04,8.14-4.99,10.55-10.09c1.98-4.19,7.33-6.66,10.67-10.36
		c11.7-12.96,23.12-26.12,32-41.35c2.17-3.73,3.17-8.75,7.83-10.84c-7.68,15.33-17.42,29.31-27.86,42.86
		c-12.26,15.9-26.35,29.85-42.74,41.51c-5.47,3.89-9.2,9.53-13.41,14.65c-2.29,1.23-3.44,3.78-5.77,4.96
		c-6.12,3.66-11.91,7.95-18.74,10.28c-2.14,0.73-4.22,1.88-5.62,1.78c4.69-0.72,9.83-3.07,15.03-5.2c1.39-0.45,2.62-1.25,3.96-1.78
		c3.44-1.36,4.49-0.33,4.09,3.88c-1.86,6.45-2.31,13.06-1.93,19.72c0.42,7.35-0.99,14.57-1.44,21.85c-0.12,1.93-0.02,4.66-2.76,5.34
		c-2.69,0.67-4.35-1.22-5.83-3.03c-7.3-8.93-11.34-19.43-14.12-30.43c-1.34-5.31-2.42-10.5-6.79-14.45
		c-4.99-4.51-6.66-10.67-6.69-17.11c-0.02-5.2-1.32-9.87-3.95-14.19c-3.66-6.01-2.95-12.49-1.98-18.87c0.5-3.3,0.96-6.43,0.53-9.8
		c-2.07-16.06,5.3-28.56,15.51-39.89C97.82,62.97,99.72,61.34,101.5,59.62z"/>
	<path class="st92" d="M154.69,134.75c13.45-9.44,24.43-21.4,34.54-34.19c1.58-2,3.19-2.84,5.7-3.15
		c12.64-1.53,25.16-0.65,37.67,1.31c1.27,0.2,2.12,0.8,2.87,1.73c10.84,13.41,21.69,26.82,32.54,40.23
		c-1.44,1.3-2.89,0.54-4.33,0.02c-4.34-3.42-9.7-2.61-14.41-2.37c-5.81,0.3-11.7,0.09-17.62,1.99c-4.12,1.33-7.56,2.83-10.66,5.62
		c-1.52,1.37-3.33,2.05-5.45,2.05c-7.31-0.01-14.63-0.03-21.94,0.01c-2.36,0.02-4.36-0.98-5.85-2.37c-2.86-2.68-6.01-3.78-9.79-4.96
		c-6.83-2.13-13.73-1.75-20.54-2.84C155.88,137.37,154.33,136.9,154.69,134.75z"/>
	<path class="st93" d="M324.72,86.72c2.58,7.57,2.5,15.42,1.58,23.16c-0.53,4.49-0.72,8.92-0.78,13.4c-0.02,1.5,0.36,3.15-0.13,4.47
		c-4.19,11.28-4.39,23.76-10.42,34.5c-1.8,3.2-2.77,6.77-3.46,10.37c-2.28,11.95-7.82,22.51-13.81,32.89
		c-0.17,0.29-0.28,0.63-0.51,0.85c-2.15,1.96-3.88,5.61-7.05,4.73c-3.58-0.99-3.36-4.86-3.28-8.07c0.23-9.45,0.61-18.9,0.63-28.36
		c0.01-4.96-0.11-10.03-1.09-14.86c-1.27-6.24-6.44-10.39-10.27-15.01c-18-21.72-36.19-43.29-52.71-66.2
		c-2.69-3.73-4.81-7.88-7.22-11.82c-0.56-0.92-0.91-1.96-0.26-2.81c5.34-6.93,8.77-15.02,13.61-22.25c0.88-1.49,1.99-2,3.5-0.82
		c0.48,0.53,0.8,1.14,0.95,1.84c-0.04,3.34-0.34,6.7,1,9.91c-0.19,0.68-0.58,1.23-1.05,1.74c-2.64,2.4-2.75,5.81-3.56,8.92
		c-0.21,2.11,3.4,2.25,2.45,4.74c-6.17,5.58-6.37,5.76-0.67,12.1c3.97,4.41,5.88,10.12,9.68,14.46c6.98,7.96,12.98,16.7,19.75,24.82
		c5.98,7.18,12.94,13.21,19.07,20.12c5.7,6.42,13.11,10.77,19.6,16.24c1.35,1.14,3.14,2.54,4.95,1.34c1.82-1.21,1.05-3.33,0.65-5.08
		c-2.13-9.36-6.53-17.64-11.31-25.92c-3.1-5.36-8.41-8.84-10.8-14.61c-0.83-1.99-2.95-3.1-4.75-4.32c-1.84-1.26-3.49-2.68-2.69-5.31
		c2.29-1.75,3.77,0.21,5.18,1.35c9.18,7.38,17.98,15.15,25.51,25.82c-4.28-6.71-8.13-12.25-13.09-16.95
		c-1.24-1.17-3.02-2.29-2.26-4.56c5.59,0.47,8.42,5.12,12.22,8.23c2.29,1.87,3.65,4.7,5.81,6.78c1.53,1.48,2.41,1.31,3.06-0.83
		c1.62-5.32,0.19-9.97-2.63-14.51c-1.68-2.69-5.23-4.34-4.78-8.26c4.36-0.89,5.02,3.8,7.64,4.87c-0.64-2.35-4.84-3.45-3.39-7.24
		c2.71-0.7,3.58,2.81,6.13,2.69c1.37-2.1,0.05-3.81-0.81-5.52c-4.86-9.71-12.17-17.37-20.3-24.38c-2.27-1.96-5.7-3-6.1-6.71
		c2.42-1.39,4.17,0.32,5.82,1.5c6.3,4.5,12.45,9.2,15.28,14.44c-2.39-3.95-6.64-8.89-12.01-12.88c-1.33-0.99-3.32-1.82-3.05-4.13
		c3.21-1.71,5.3,0.82,7.63,2.15c1.72,0.99,3.11,2.49,5.3,4.52c-0.97-3.04-1.94-5.04-3.38-6.89c-0.86-1.11-2.28-2.13-1.39-3.9
		c3.33-0.66,4.32,2.37,5.99,4.06c1.34,1.36,2.34,3.08,4.03,4.13l-0.01,0C316.28,72.94,320.74,79.69,324.72,86.72z"/>
	<path class="st94" d="M302.57,57.81c2.7,2.71,4.72,5.84,6.13,9.41c0.42,1.06,1.52,2.12,0.21,2.98c-0.96,0.64-1.79-0.5-2.45-1.19
		c-2.73-2.9-5.89-5.23-9.45-6.98c-0.68-0.33-1.61-0.17-2.42-0.23c-1.68,0.74-3.25,0.19-4.77-0.49
		c-15.75-6.99-32.4-11.27-48.78-16.38c-2.67-0.83-5.51-1.27-7.68-3.27c-0.93-2.83-3.4-5.75,0.49-8.29
		c13.21,0.38,26.24,1.97,38.9,5.85c-3.76-1.75-15.1-4.36-20.99-4.46c-5.82-0.1-11.49-1.54-17.33-1.66
		c-3.79-0.08-2.05-3.21-1.84-5.29c0.21-1.31,0.44-2.62,0.63-3.94c1.26-8.92,1.3-9.03,10.03-5.74c14.68,5.52,28.15,13.35,41.21,21.93
		c1.78,1.17,3.45,2.48,5.17,3.73c3,4.23,8.12,6.28,10.96,10.68C301.29,55.56,302.49,56.34,302.57,57.81z"/>
	<path class="st95" d="M157.72,136.81c7.48,0.93,15.45-1.05,23.25,4.87c-1.1-2.12-1.54-2.97-2.17-4.18c2.92,0.74,3.69,3.41,5.6,4.83
		c0.21-0.86,0.4-1.62,0.59-2.41c1.34,0.74,1.79,2.01,2.27,3.19c0.96,2.42,2.51,3.72,5.26,3.56c8.14-0.47,16.28-0.52,24.43-0.07
		c1.11,0.06,2.04,0.38,3.09-1.33c2.28-3.7,6.67-5.28,10.06-8.1c0.52,1.61-1.14,2.07-1.21,3.38c8.03-4.03,16.41-3.56,25.05-3.21
		c3.74,0.15,6.86,0.31,9.85,2.41c-0.12,0.1-0.25,0.3-0.37,0.29c-0.48-0.04-0.67,0.29-0.4,0.37c3.26,0.84,5.92,2.91,8.91,4.3
		c1.23,0.67,1.68,1.55,0.71,2.79c-2.04,2.23-4.39,0.51-6.54,0.34c-1.71-0.13-3.31-1.03-3.39,1.71c-3.02,1.07-5.9-0.44-8.87-0.5
		c-8.17-0.19-16.25,0.29-24.24,1.99c-11.88-2.87-23.97-1.7-35.99-1.91c-3.51-0.06-6.84,0.96-10.23,1.62
		c-7.78-0.01-15.39-2.51-23.25-1.69c-1.64,0.17-3.34-0.11-4.98,0.07c-4.16,0.46-8.39,1.41-11.53-2.59c1.56-2.31,2.07-5.39,4.91-6.79
		C151.79,139.33,154.3,136.66,157.72,136.81z"/>
	<path class="st96" d="M128.71,170.77c-0.18-5.79,3.24-10.21,5.71-15c6.24-5.38,13.77-6.78,21.66-7.02
		c8.27-0.26,16.52-0.07,24.6,2.04c1.35,0.12,2.59,0.64,3.84,1.09c3.59,1.81,7.4,3.26,10.18,6.37c3.46,4.6,3.84,9.6,2.3,15.04
		c-3.32,11.75-9.77,21.21-19.93,28.07c-2.28,0.99-4.34,2.93-7.15,1.76c-0.79-3.21,2.37-2.94,3.74-4.25c2.3-1.38,4.39-3.05,6.44-4.77
		c1.72-1.44,2.8-3.42,4.19-5.14c0.97-1.11,1.89-2.24,2.67-3.5c3.65-5.89,3.66-5.88-0.67-10.56c-2.56-7.63-7.73-12.9-15.39-14.93
		c-11.98-3.17-22.6,0.48-32.1,7.93c-1.56,1.22-2.72,2.94-4.67,3.68C132.2,172.12,130.35,172.16,128.71,170.77z"/>
	<path class="st97" d="M282.77,194.72c-0.48-0.53-0.87-0.3-1.12,0.2c-7.66,15.51-25.16,17.29-39.92,12.96
		c-6.01-1.77-11.27-4.84-15.65-9.32c-1.6-1.63-2.89-3.56-4.32-5.36c-0.34,0.27-0.68,0.53-1.02,0.8c-0.09,1.19-0.17,2.38-0.26,3.58
		c-0.44,0.1-0.87,0.2-1.31,0.31c-1.8-10.7-8.81-19.83-8.48-31.11c0.12-4.19-1.35-6.64-5.38-6.52c-3.6,0.11-5.64,1.81-5.59,6.35
		c0.27,27.06-28.92,49.18-54.91,41.96c-8.93-2.48-13.6-9.45-18.05-16.72c0.02-1.42,0.04-2.84,0.05-4.27
		c3.05,0.74,3.12,3.9,4.69,5.84c1.53,1.89,2.28,4.35,4.25,5.94c13.01,10.89,26.71,7.86,40.56,2.06
		c10.17-6.8,17.09-15.98,20.22-27.86c0.84-3.18,1.75-6.42,0.57-9.77c-0.5-1.41,0.14-2.58,1.05-3.64c6.18-4.22,8.91-4.21,14.13,0.06
		c1.23,1.48,1.66,3.25,1.58,5.1c-0.51,12.34,4.84,21.97,13.69,30.03c0.61,0.56,1.22,1.12,1.8,1.7
		c10.32,11.53,36.82,12.83,45.25,2.32c2-1.96,3.32-4.4,4.79-6.75c0.76-1.22,0.93-3.36,3.28-2.8
		C283.46,191.44,284.64,193.06,282.77,194.72z"/>
	<path class="st98" d="M197.58,93.55c-1.65,0.1-2.29-0.42-1.2-1.97c4.87-6.88,9.72-13.78,14.62-20.63c1.45-2.03,2.2-0.71,3.16,0.68
		c4.88,7.07,9.85,14.06,14.8,21.08c-1.3,1.23-2.7,0.48-4.17,0.41C215.72,92.72,206.62,91.95,197.58,93.55z"/>
	<path class="st99" d="M283.47,169.43c0.52,4.09,2.51,8.16,0.22,12.3c-1.13,6.05-3.7,11.45-7.42,16.32
		c-2.14,1.35-2.96,4.83-6.45,3.99c-1.01-3.66,2.82-4.47,4.01-6.83c1.82-2.09,2.8-4.66,4.03-7.1c0.87-1.71,1.37-3.54,1.67-5.43
		c1.02-5.89,1.49-11.75-0.81-17.47c-2.84-8.17-10.54-9.53-17.21-10.91c-13.37-2.77-26.73-2.15-39.26,4.37
		c-3.68,1.92-5.6,5.25-5.06,9.91c0.36,3.12,0.92,6.24,2.16,9.17c2,4.25,4.03,8.48,7.11,12.1c1.97,2.38,3.9,4.81,6.65,6.37
		c6.7,5.08,14.24,7.42,22.64,7.22c2.4-0.06,5-0.61,7.07,1.33c-0.16,1.92-1.76,1.8-2.97,1.89c-10.96,0.82-21.22-1.05-29.99-8.24
		c-7.45-6.87-13.63-14.53-15.89-24.78c-2.19-9.92-0.79-13.91,7.29-19.55c2.56-1.38,5.17-2.63,8.04-3.27
		c10.9-2.52,21.84-2.8,32.9-1.1c6.95,1.07,13.05,3.5,17.73,8.91C282.2,161.87,283.05,165.58,283.47,169.43z"/>
	<path class="st100" d="M128.71,170.77c1.99-0.02,3.98-0.04,5.97-0.05c1.53-0.5,2.56,0.45,3.45,1.37c3.02,3.13,6.86,5.06,10.49,7.31
		c1.27,0.79,3.33,0.96,3.09,3.25c-1.77,1.82-4.19,2.01-6.42,2.15c-5.35,0.33-10.71-0.33-16.08-0.2c-2.86-4.17-0.88-8.56-0.61-12.88
		C128.63,171.4,128.67,171.08,128.71,170.77z"/>
	<path class="st101" d="M181.54,151.78c-10.67-2.01-21.34-3.08-32.19-1.29c-5.33,0.88-10.03,3.32-14.93,5.28
		c0.63-1.36,1.32-2.68,2.72-3.41c1.15-0.6,2.57-0.9,3.47-1.75c1.88-1.77-2.27-0.05-1.11-1.75c1.03-1.51,2.49-2.04,4.15-2.33
		c2.14,0.52,4.14-1.35,6.36-0.4c-0.13,2.51-2.97,0.69-3.79,2.73c12.34-2.2,24.4-1.37,36.41,0.91c0.83,0.35,1.4,1.05,0.98,1.82
		C183.18,152.38,182.28,152.3,181.54,151.78z"/>
	<path class="st102" d="M279.54,159.72c-4.66-5.86-11.36-7.78-18.22-9.08c-10.92-2.07-21.8-0.99-32.61,1.11
		c-0.47,0.3-1.08,0.21-1.11-0.27c-0.09-1.42,1.31-1.09,2.05-1.55c11.18-3.3,22.51-2.53,33.86-1.28c1.94-0.9,3.85-0.79,5.73,0.18
		c2.12,2.07,5.49,2.31,7.24,4.93c1.4,1.35,2.79,2.69,4.19,4.04C281.31,159.05,281.36,159.95,279.54,159.72z"/>
	<path class="st103" d="M232.58,27.8c-0.56,3.86,1.04,4.87,4.93,4.98c12.68,0.37,25.31,1.47,37.23,6.62
		c-13.63-2.18-27.21-4.76-41.01-5.52c-0.92,0.45-1.85,0.79-2.78,0.02C231.89,31.96,230.88,29.52,232.58,27.8z"/>
	<path class="st104" d="M197.58,93.55c0.55-2.38,2.51-1.82,4.05-1.79c9.11,0.18,18.27-0.75,27.33,0.96c2.69,2.3,0.49,2.28-1.07,1.98
		C217.83,92.81,207.67,94.19,197.58,93.55z"/>
	<path class="st105" d="M302.57,57.81c-4.08-4.89-10-8.08-12.94-14.02c8.99,5.94,16.98,12.94,23.11,21.89
		c-2.04,0.22-3.35-0.38-4.19-2.55C307.52,60.48,305.72,58.27,302.57,57.81z"/>
	<path class="st105" d="M324.72,86.72c-3.29-2.78-4.46-7.12-8.4-9.87c-2.08-1.46-2.11-7.41-3.61-11.18
		C318.58,71.62,322.42,78.74,324.72,86.72z"/>
	<path class="st106" d="M126.65,155.7c2.08-1.21,2.97-4.23,6.02-3.95c-2.35,4.64-4.7,9.28-7.05,13.92
		c-0.07-3.36-1.03-4.85-4.36-2.32c-0.99,0.75-2.4,0.93-3.62,1.37c-0.45-2.41,1.69-2.91,3-3.98
		C122.66,159.08,125.24,158.09,126.65,155.7z"/>
	<path class="st107" d="M128.61,171.71c0.01,4.38-0.06,8.78,1.17,13.05c2.34,1.02,2.48,3.52,3.6,5.36c0.99,1.64,1.76,3.4,2.88,4.96
		c0.66,0.86,1.45,1.62,2.2,2.4c0.71,1.09,2.21,1.98,0.96,3.6c-2.73,0.65-3.7-1.81-5.36-3.04c-3.37-5.29-6.89-10.51-7.23-17.08
		C126.57,177.72,127.34,174.67,128.61,171.71z"/>
	<path class="st108" d="M268.61,149.2c-1.7-0.18-3.39-0.36-5.09-0.54c-0.8-1.96-3.7-0.07-4.47-2.69c4.73-0.38,9.1,1.45,13.62,1.54
		c2.67,0.79,3.77,3.08,4.98,5.25C273.99,153.2,271.48,150.74,268.61,149.2z"/>
	<path class="st109" d="M126.82,180.97c1.8,5.96,4.3,11.6,7.85,16.74c0.55,0.7,0.62,1.37-0.11,1.99c-3.72-3.31-5.15-8.08-7.74-12.11
		C126.82,185.38,126.82,183.17,126.82,180.97z"/>
	<path class="st110" d="M275.64,197.79c3.76-4.81,5.45-10.67,8.06-16.06c0.18,2.76-0.06,5.47-0.99,8.09
		c-2.63,3.1-3.64,7.33-6.96,9.95C275.04,199.15,275.11,198.48,275.64,197.79z"/>
	<path class="st111" d="M230.95,33.89c0.93-0.01,1.85-0.01,2.78-0.02c-2.18,2.57,0.47,5.12,0.03,7.68c-0.4,0.6-0.79,0.59-1.16-0.02
		c-1.09-1.31-2.03,0.02-3.03,0.18C228.47,38.83,230.77,36.55,230.95,33.89z"/>
	<path class="st112" d="M271.96,144.72c-4.39,0.47-6.89-3.32-10.49-4.95c0.78,0,1.56,0,2.34,0c1.4,0.31,2.8,0.61,4.2,0.91
		C269.33,142.03,270.64,143.37,271.96,144.72z"/>
	<path class="st113" d="M279.54,159.72c0.8-0.39,1.05-1.1,1.14-1.91c2.65,3.46,3.35,7.39,2.8,11.62
		C282.16,166.19,280.85,162.95,279.54,159.72z"/>
	<path class="st114" d="M157.72,136.81c-2.91,1.43-5.64,3.43-9.16,2.93c2.4-1.23,4.22-3.16,6.13-4.99
		C154.98,136.5,156.34,136.67,157.72,136.81z"/>
	<path class="st115" d="M268.61,149.2c3.01,1.19,6.03,2.38,9.04,3.56c-0.07,0.7-0.48,1.01-1.16,1.01
		C273.74,152.46,270.49,152,268.61,149.2z"/>
	<path class="st116" d="M211.53,255.81c-4.91,0.01-9.83,0.01-14.74,0.02c-3.07,0.82-5.33-0.95-7.72-2.39
		c-3.65-2.22-7.36-4.38-10.45-7.36c-1.33-1.29-3.92-2.72-1.06-5.07c4.05-0.53,7.92,0.75,11.85,1.29
		c12.66,1.73,25.21,1.22,37.71-1.25c1.47-0.29,2.95-0.57,4.44-0.15c1.93,0.79,1.51,2.16,0.36,3.03
		C225.61,248.71,219.76,254.32,211.53,255.81z"/>
	<path class="st117" d="M211.53,255.81c6.33-3.76,12.92-7.09,18.63-11.85c0.87-0.73,2.07-1.06,2.49-2.28
		c0.5-1.45,1.74-1.9,3.05-1.98c2.96-0.2,3.4-1.86,2.71-4.3c0.08-0.22,0.17-0.43,0.26-0.65c4.81,2.2,6.5,6.35,4.6,11.31
		c-3.58,9.36-16.56,16.12-26.25,13.66C214.7,259.13,212.77,257.95,211.53,255.81z"/>
	<path class="st15" d="M176.61,241.82c5.19,6.89,12.63,10.54,20.18,14.02c-3.03,4.61-7.62,4.75-12.35,4.19
		c-8.79-1.03-14.95-5.98-18.87-13.63c-2.66-5.19-0.95-9.28,4.18-11.55c0.21,0.42,0.27,0.85,0.19,1.31c-0.67,2.04,0.08,3.1,2.2,3.38
		C173.88,239.76,175.9,239.55,176.61,241.82z"/>
	<path class="st118" d="M169.81,235.44c-0.11-0.19-0.13-0.39-0.06-0.6c4.01-2.61,8.07-0.31,11.96,0.22
		c8.25,1.12,16.45-0.08,24.68,0.28c9.88,0.44,19.83,0.49,29.62-1.57c0.94-0.2,2.01-0.01,2.64,0.98c0,0,0.04-0.05,0.04-0.05
		c-2.35,3.11-5.63,4.47-9.32,5.3c-17.86,3.98-35.64,3.76-53.36-0.86C173.61,238.5,171.14,237.93,169.81,235.44z"/>
	<path class="st119" d="M211.84,221.87c-5.53,4.26-10.77,3.12-15.73-0.97c-2.25-1.86-4.77-2.53-7.44-1.82
		c-2.99,0.8-5.56,1.29-7.04-2.28c-1.51-3.65-0.66-6.58,2.94-9.59c-0.59,2.47-1.38,4.19-1.33,5.88c0.07,2.67,0.28,5.81,4.52,3.53
		c2.62-1.41,5.19-0.26,7.75,0.36c6.12,4.82,12.2,5.01,18.24-0.15c2.44-0.39,4.93-1.4,7.35-0.25c4.49,2.13,4.85-0.68,4.55-3.85
		c-0.18-1.88-1.02-3.7-1.67-5.9c3.87,2.47,4.75,5.73,3.6,9.56c-0.84,2.82-2.91,3.89-5.82,3.21
		C218.18,219.2,214.9,220.06,211.84,221.87z"/>
	<path class="st120" d="M213.75,216.85c-8.54,7.53-10.17,7.54-18.24,0.15C201.61,219.08,207.69,219.65,213.75,216.85z"/>
	<path class="st121" d="M211.84,221.87c2.65-3.64,5.96-4.35,9.92-2.25C218.49,220.56,215.35,222.04,211.84,221.87z"/>
	<path class="st122" d="M159.61,100.7c-9.35,8.95-18.6,17.92-29.4,25.28c-11.59,7.89-24.26,11.82-38.58,10.08
		c26.71-2.76,47-16.7,64.04-36.32c2.92-2.74,5.85-5.48,8.77-8.21c1.74-0.04,1.92,0.79,1.17,2.12
		C163.61,96,161.61,98.35,159.61,100.7z"/>
	<path class="st123" d="M162.8,63.66c-3.06,5.31-8.06,8.7-12.72,12.29c-14.99,11.57-30.14,22.92-48.26,29.38
		c-4.91,1.75-9.85,2.86-15.71,2.27c4.31-3.38,9.29-3.98,13.7-5.46c13.02-4.38,25.14-10.35,36.19-18.41
		c3.37-2.46,7.99-3.47,9.83-7.87c4.85-2.53,8.62-6.48,12.84-9.84C159.92,65.01,160.9,63.54,162.8,63.66z"/>
	<path class="st124" d="M143.66,57.76c-8.44,3.32-16.37,7.93-25.57,9.35c-5.19,0.8-10.15,1.05-15.18-0.98
		c9.24-0.36,18.51-0.53,26.81-5.35c7.46-2.02,14.23-5.81,21.62-8.2C148.78,54.31,146.22,56.03,143.66,57.76z"/>
	<path class="st125" d="M201.27,17.54c-8.59,10.1-18.8,18.07-31.1,23.24C180.51,33,191.08,25.53,201.27,17.54z"/>
	<path class="st126" d="M201.04,47.94c6.02-10.92,12.47-21.48,18.29-32.4C215.49,27.63,210.38,39.01,201.04,47.94z"/>
	<path class="st127" d="M165.61,93.64c-0.01-0.92-0.26-1.7-1.17-2.12c6.71-7.55,13.41-15.1,20.12-22.66
		c0.4,0.33,0.79,0.66,1.19,0.99C179.1,77.84,172.96,86.22,165.61,93.64z"/>
	<path class="st128" d="M209.67,17.9c-5.57,10.25-13.84,17.93-23.23,24.59c7.19-8.59,15.64-16.06,22.33-25.08
		C208.79,17.39,209.21,17.65,209.67,17.9z"/>
	<path class="st129" d="M126.65,155.7c-1.11,4.9-6.49,5.52-9.01,9.02c-5.4,2.5-10.76,5.15-17.14,4.46
		C109.78,165.73,118.23,160.74,126.65,155.7z"/>
	<path class="st130" d="M119.9,177.48c-0.92,7.18-3.83,13.19-10.57,18.61C113.33,189.05,116.61,183.26,119.9,177.48z"/>
	<path class="st131" d="M276.73,101.62c0.12,0.65,0.03,1.67,0.4,1.88c6.09,3.49,8.52,10.37,13.81,14.73
		c3.53,2.91,5.17,7.82,7.51,11.87c3.86,6.7,7.12,13.81,8.7,21.53c0.56,2.71,1.35,5.89-1.15,7.31c-2.03,1.16-4.76-0.62-6.72-2.17
		c-9.1-7.23-17.73-14.96-26.3-22.82c-8.48-7.77-15.35-16.91-22.3-25.71c-4.87-6.17-11.34-11.71-14-19.9
		c-1.24-3.8-4.79-6.92-7.54-10.14c-4.78-5.58-4.72-6.26,1.75-9.59c0.59-0.3,1.18-0.62,1.77-0.93c2.34-0.83,3.75,0.88,5.27,2.05
		c11.36,8.72,22.81,17.32,34.13,26.08C273.85,97.57,276.83,98.35,276.73,101.62z"/>
	<path class="st132" d="M229.74,63.38c0.27-3.73-0.31-7.81,4.11-9.8c1.72-0.88,3.23-0.03,4.71,0.64
		c14.44,6.48,29.05,12.64,42.18,21.68c7.59,5.69,15.32,11.21,22.1,17.89c1.34,1.33,3.32,2.45,2.83,4.9
		c-0.12,1.52,0.9,2.44,1.83,3.39c4.01,4.08,6.72,8.87,7.53,14.55c0.46,3.17-1.49,5.94-2.12,8.94c-0.27,1.27-1.68,0.26-2.34-0.44
		c-1.71-1.81-3.43-3.61-4.99-5.54c-3.93-4.88-8.46-8.98-14.15-11.72c-3.06-0.19-4.85-2.59-7.08-4.17c-4.42-3.16-8.67-6.56-13.31-9.4
		c-13.34-9.64-26.62-19.38-39.91-29.09C230.47,64.72,229.76,64.34,229.74,63.38z"/>
	<path class="st133" d="M234.69,52.67c-3.2-2.98-2.33-6.37-0.99-9.81c2.94-1.03,5.33,0.9,7.84,1.68
		c12.91,4.04,25.74,8.36,38.55,12.71c3.16,1.07,6.74,2.04,8.61,5.41c4.55,4.07,9.16,8.08,13.63,12.24
		c6.01,5.6,10.64,12.25,14.5,19.48c0.58,1.09,0.88,2.15,0.81,3.32c-0.08,1.26,0.6,2.84-0.89,3.62c-1.53,0.81-2.39-0.57-3.37-1.42
		c-1.24-1.08-2.1-2.62-3.81-3.13c-1.99,0.44-3.08-1.02-4.16-2.17c-6.4-6.81-13.72-12.44-21.72-17.22
		c-14.06-8.73-28.94-15.84-44.2-22.19C237.8,54.49,236.11,53.84,234.69,52.67z"/>
	<path class="st134" d="M288.7,62.67c-17.71-8.32-36.57-13.45-54.99-19.81c-0.37-0.44-0.74-0.89-1.1-1.33
		c0.39,0.01,0.77,0.01,1.16,0.02c20.54,5.95,41.2,11.55,60.83,20.25c10.5,7.49,15.01,12.9,18.02,22.48
		C305.57,74.73,298.68,66.9,288.7,62.67z"/>
	<path class="st135" d="M271.86,93.59c7.03,4.07,13.27,9.24,19.59,14.28c6.79,6.88,13.81,13.6,16.44,23.52
		c-2.75-3.21-5.46-6.45-8.26-9.61c-6.79-7.68-14.15-14.72-22.9-20.17c-1.72-1.57-3.44-3.13-5.16-4.7
		C271.64,95.81,268.98,94.45,271.86,93.59z"/>
	<path class="st136" d="M284.52,76.78c9.77,4.88,17.36,12.5,25.04,20c1.4,3.67,5.34,5.85,5.87,10.47c-4.17-2.06-6.16-6.27-9.76-8.56
		c-7.31-8.51-16.51-14.82-25.17-21.75C281.54,74.84,281.54,74.84,284.52,76.78z"/>
	<path class="st137" d="M271.86,93.59c-1.42,0.99,0.15,2.25-0.29,3.32c-12.97-9.74-25.94-19.48-38.91-29.22
		c-0.04-2.07-4.37-1.24-2.92-4.31c13.35,9.37,26.7,18.74,40.03,28.14C270.56,92.08,271.17,92.9,271.86,93.59z"/>
	<path class="st138" d="M284.52,76.78c-1.33,0.26-2.76-1.92-4.02,0.16c-14.84-9.21-30.62-16.53-46.65-23.35
		c0.28-0.31,0.56-0.61,0.83-0.91c17.15,5.94,32.99,14.71,49.12,22.85C284.17,75.7,284.29,76.35,284.52,76.78z"/>
	<path class="st139" d="M291.52,162.23c4.98,4.35,11.97,4.4,17.7,8.31C301.19,171.49,295.83,167.92,291.52,162.23z"/>
	<path class="st88" d="M292.82,190.6c-1.05-5.27-2.1-10.55-3.14-15.82C293.27,179.5,294.06,184.84,292.82,190.6z"/>
	<path class="st140" d="M229.65,149.93c0.13,0.84-2.13,0.43-0.95,1.82c-2.32,1.03-4.64,2.06-6.96,3.09
		c-0.74,0.41-1.48,0.54-2.2-0.03c-0.43-1.64,1.49-2.03,1.88-3.7c-10.85,0-21.57-0.19-32.3,0.13c-0.86,0.03-1.6,0.38-2.31,0.83
		c-0.66,0.41-1.38,0.63-2.14,0.74c-1.13-0.08-2.26-0.18-3.14-1.03c1.61,0.01,1.81-0.74,1.08-1.99c3.17-1.59,6.67-2.03,10.06-2.02
		C205.04,147.84,217.5,146.45,229.65,149.93z"/>
	<path class="st141" d="M151.67,181.78c-6.72-2.06-11.9-6.49-16.99-11.06c7.46-10.88,26.58-15.96,38.37-11.62
		c7.02,2.58,11.4,8.26,14.81,14.66c0.42,0.79-0.6,0.91-1.2,1.05c-5.07,7.38-12.79,9.56-21.03,10.17
		C160.79,185.33,155.61,185.89,151.67,181.78z"/>
	<path class="st142" d="M151.67,181.78c13,4.39,24.58,1.65,34.99-6.97c5.97,2.99,5.95,2.97,2.36,9.21c-1.21,2.1-1.98,4.5-4.25,5.81
		c-6.34,1.09-12.55-1.04-18.89-0.65c-9.93,0.61-19.99-1.11-29.78,1.78c-1.14,0.34-2.31-0.1-3.47-0.2c-0.95-2-1.9-4-2.85-6
		c2.93-1.92,5.9-2.43,9.44-1.44C143.44,184.52,147.65,183.45,151.67,181.78z"/>
	<path class="st143" d="M132.63,190.76c4.49-1.51,8.91-3.17,13.79-3.04c11.74,0.3,23.51-0.67,35.22,0.99
		c1.15,0.16,2.34,0.03,3.13,1.11c-1.24,1.74-1.97,3.92-4.15,4.87c-6.89,1.19-13.84,0.35-20.76,0.56
		c-8.08,0.24-16.19-0.44-24.25,0.55C134.61,194.13,133.62,192.44,132.63,190.76z"/>
	<path class="st144" d="M135.61,195.81c0.23-1.68,1.32-2.08,2.84-2.08c13.49,0.03,26.99,0.03,40.48,0.09c0.57,0,1.13,0.57,1.69,0.88
		c-1.68,2.05-3.73,3.63-6.08,4.82c-7.06,1.1-14.11,1.86-21.3,1.75c-5.61-0.08-10.92-0.77-15.87-3.47
		C136.78,197.13,136.19,196.47,135.61,195.81z"/>
	<path class="st145" d="M137.37,197.79c7.91,1.75,15.91,2.3,23.99,1.95c2.8-0.12,5.55,0.08,8.19-1.35c1.75-0.94,3.44,0.18,4.99,1.13
		c-1.44,1.67-4.4,1.27-5.21,3.81c-2.13,2.59-5.47,1.35-8.04,2.55c-3.74,0.43-7.52-0.06-11.26,0.46c-3.87-1.14-8.72-0.44-10.42-5.61
		C138.87,199.75,138.12,198.77,137.37,197.79z"/>
	<path class="st146" d="M161.66,204.73c2.33-1.72,5.22-0.39,7.68-1.39c2.46-1.08,4.93-2.16,7.39-3.24c0.35,0.59,0.36,1.19,0.03,1.79
		c-13.75,8.82-31.78,7.89-42.19-2.18c0.03-0.67,0.07-1.33,0.11-1.99c1.83,0.71,2.71,2.97,4.94,3.03c2.85,2.89,6.41,4.25,10.34,4.77
		C153.82,204.63,157.83,206.05,161.66,204.73z"/>
	<path class="st147" d="M176.76,201.88c-0.01-0.59-0.02-1.19-0.03-1.79c10.45-6.94,16.61-16.79,19.47-28.82
		c1.09-4.56,0.17-8.85-2.41-12.78c0.54-0.46,1.17-0.57,1.85-0.52c0.9,0.14,1.64,0.58,2.33,1.16c0.5,0.44,0.85,0.98,1.07,1.6
		c-2.27,3.62-0.27,7.65-1.24,11.54C194.63,185.01,187.92,194.97,176.76,201.88z"/>
	<path class="st101" d="M195.56,158.68c-0.59-0.06-1.18-0.12-1.77-0.19c-2.64-2.53-6.11-3.73-9.11-5.69
		c0.35-0.36,0.7-0.72,1.04-1.08c2.42-1.4,4.09,0.54,6.02,1.36C193.35,154.71,196.08,155.59,195.56,158.68z"/>
	<path class="st148" d="M275.64,197.79c0.04,0.66,0.07,1.32,0.11,1.99c-8.37,8.81-24.29,10.9-37.45,4.76
		c-3.56-1.66-7.37-3.11-9.66-6.67c0.27-0.51,0.63-0.61,1.1-0.25c8.56,5.95,17.9,9.23,28.47,8.13c1.55-0.16,3.39,0.67,4.52-1.16
		c1.4-3.17,4.45-2.25,6.91-2.81C272.57,201.85,273.25,198.53,275.64,197.79z"/>
	<path class="st149" d="M229.73,197.61c-0.37,0.08-0.73,0.17-1.1,0.25c-10.49-8.43-16.57-19.05-16.17-32.83
		c0.04-1.53,0.08-2.95-1.04-4.14c0.16-0.67,0.43-1.28,0.88-1.81c2.27-1.47,3.1-5.25,6.88-4.32c0.86,0.03,1.72,0.05,2.57,0.08
		c-8.72,7.23-9.65,10.82-6.02,21.96C218.43,185.08,223.89,191.47,229.73,197.61z"/>
	<path class="st150" d="M212.64,159.75c-0.41,0.38-0.81,0.76-1.22,1.14c-4.09-3.78-8.23-3.11-12.4-0.15
		c-0.34-0.31-0.69-0.62-1.03-0.93c2.63-4.73,6.91-5.64,13.49-2.87C212.35,157.68,213.08,158.48,212.64,159.75z"/>
	<path class="st151" d="M218.61,178.73c-2.32-3.62-2.69-7.8-2.85-11.87c-0.17-4.5,1.99-7.76,6.27-9.81
		c12.95-6.21,26.66-6.97,40.21-3.97c6.66,1.48,15.31,2.35,17.44,11.64c-1.45,3.01-4.87,1.9-7.06,3.36
		c-4.74-1.55-8.74-4.59-13.26-6.61c-10.86-4.85-24.53-2.46-32.16,5.74c-2.6,2.79-4.37,5.65-2.34,9.52
		C223.06,178.27,220.8,178.39,218.61,178.73z"/>
	<path class="st152" d="M218.61,178.73c1.33-2.71,3.85-1.82,6.01-1.99c2.4-0.88,4.13,0.69,5.96,1.71c7.8,4.34,15.97,5.19,24.5,2.69
		c2.24-0.66,4.51-1.09,6.85-1.25c3.08,0.53,6.18,0.38,9.28,0.45c3.52,0.08,6.81,0.8,9.41,3.41c-0.34,1.79-0.57,3.62-1.99,4.98
		c-0.7,0.45-1.48,1.02-2.28,0.9c-11.41-1.64-22.85,1.14-34.26-0.23c-5.5-0.66-10.88,0.95-16.34,1.11
		C222.23,187.28,220.55,182.92,218.61,178.73z"/>
	<path class="st153" d="M225.75,190.52c2.97-3.44,7.39-1.21,10.86-2.74c0.56-0.25,1.33-0.13,1.98-0.03c10.4,1.74,20.8-0.75,31.19,0
		c2.96,0.21,5.9,0.65,8.85,0.98c-1.12,2.45-1.74,5.18-3.99,6.99c-13.5,1.1-27.03,0.13-40.53,0.58c-0.83,0.03-1.64-0.05-2.41,0.33
		C229.05,195.25,227.39,192.9,225.75,190.52z"/>
	<path class="st154" d="M231.7,196.64c0.37-2.53,2.36-1.87,3.9-1.88c12.64-0.15,25.27-0.26,37.91-0.37
		c0.85-0.01,1.01,0.69,1.14,1.35c-1.67,2.01-3.34,4.03-5.01,6.04c-1.67,2.5-4.9,1.16-6.91,2.81
		C251.45,205.56,240.7,204.53,231.7,196.64z"/>
	<path class="st155" d="M280.62,183.76c-6-3.05-12.83-0.97-18.99-3.06c1.11-3.69,4.9-4.41,7.4-6.54c2.1-1.78,3.91-3.47,3.65-6.47
		c1.14-3.78,5.19-0.74,7-2.98C283.02,170.92,281.92,177.33,280.62,183.76z"/>
	<path class="st0" d="M120.42,220.08c3.31-0.38,4.84,1.25,5.29,4.44c0.53,3.7,1.31,7.37,1.98,11.05
		c2.68,14.65,10.09,26.13,22.74,34.19c4.42,2.81,8.73,5.83,13.38,8.98c2.76-0.12,5.47-0.45,8.1-1.24c-1.74-0.46-3.27-1.45-4.85-2.31
		c-6.93-3.74-12.89-8.78-18.77-13.9c-5.95-5.19-11.06-11.05-12.77-19.13c-0.38-1.18-0.71-2.38-1.06-3.56
		c-0.72-2.69-1.34-5.43-2.38-8c-2.35-5.78-2.88-11.67-1.6-17.75c-0.52-3.17-0.19-6.62-3.08-8.98c-1.57,0.45-1.99,1.84-1.89,3.09
		c0.43,5.51-2.46,7.05-7.42,7.1c-1.95,0.02-4.79-0.11-5.39,3.01C114.67,219.63,117.31,220.44,120.42,220.08z"/>
	<path class="st0" d="M239.5,278.21c2.05,0.04,4.08-0.15,6.12-0.24c2.69-1.65,5.31-3.15,7.6-5.06c5.9-4.93,12.78-8.57,17.61-14.97
		c7.74-10.25,9.52-22.36,11.98-34.31c0.27-1.29-0.05-3.34,1.41-3.27c3.74,0.18,6.13-2.84,9.46-3.41c0.11-0.71-0.09-1.41-0.7-1.71
		c-4.55-2.23-7.51-5.66-8.89-10.62c-0.42-1.51-1.48-3.56-3.95-2.24c-1.43,2.09-1.76,4.44-1.63,6.9c1.35,11.42-1.32,22.14-5.67,32.56
		c-0.97,1.46-1.84,2.95-2.24,4.69c-0.69,3.89-2.67,7.04-5.35,9.87c-4.34,4.59-8.98,8.78-14.56,11.83c-0.4,0.26-0.78,0.53-1.14,0.84
		c-4.28,3.18-8.82,5.88-13.7,8.07c-0.39,0.17-0.73,0.35-1.05,0.53C236.33,278.16,238.17,278.19,239.5,278.21z"/>
	<path class="st156" d="M169.81,235.44c5.86,1.99,11.74,3.79,17.93,4.7c15.02,2.2,29.79,1.27,44.52-2.26
		c2.54-0.61,3.51-3.79,6.44-3.18c3.19,4.79,2.78,5.67-2.9,6.01c-1.16,0.07-2.25,0.18-3.16,0.98c-10.92,1.87-21.83,3.61-32.99,3.09
		c-7.78-0.36-15.38-1.89-23.05-2.96c-1.44-0.91-3.01-1.19-4.7-1.13c-1.43,0.05-3.21,0.5-3.93-1.21
		C167.23,237.69,168.3,236.38,169.81,235.44z"/>
	<path class="st157" d="M212.64,159.75c-0.42-0.56-0.84-1.12-1.26-1.68c0.08-0.48,0.3-0.89,0.61-1.25c1.09-1.22,2.68-1.91,3.9-3.9
		c-8,0.35-15.64-0.47-23.28,0.54c-0.36,0.23-0.75,0.41-1.17,0.53c-1.9-0.76-3.81-1.51-5.71-2.27c0.02-1.72,1.41-1.65,2.47-1.72
		c11.7-0.71,23.41-1.03,35.1,0.16c0.74,0.08,1.46,0.45,2.6,0.82c-2.51,1.41-4.61,2.59-6.71,3.77
		C216.11,155.26,215.56,159.05,212.64,159.75z"/>
	<path class="st158" d="M163.34,181.84c-7.27-0.96-14.23-2.07-19.64-7.45c-2.8-2.79-3.63-5.03,0.67-7.17
		c1.61-0.8,3.1-1.83,4.81-2.51c2.63-1.05,3.39-0.38,3.49,2.46c0.26,6.97,3.5,10.97,9.94,11.24c5.84,0.25,8.77-0.92,11.54-8.55
		c0.49-1.34-0.3-4.24,2.08-3.82c3.21,0.56,5.08,3.57,6.9,6.04c1.15,1.57-0.86,2.71-1.93,3.51
		C175.88,179.59,169.64,181.06,163.34,181.84z"/>
	<path class="st159" d="M161.66,204.73c-3.78,2.01-7.79,0.69-11.7,0.78C153.76,203.83,157.77,205.13,161.66,204.73z"/>
	<path class="st160" d="M211.38,158.07c-4.83-2.26-9.42-2.59-13.39,1.75c-0.81-0.38-1.62-0.76-2.43-1.13
		c-1.37-1.56-2.75-3.13-4.12-4.69c0.13-0.18,0.27-0.33,0.44-0.47c0.61-0.3,1.35-0.53,1.85-0.09c3.01,2.65,6.08,1.88,9.52,0.82
		c3.34-1.03,6.85-0.91,8.68,3.1C211.76,157.6,211.58,157.84,211.38,158.07z"/>
	<path class="st161" d="M272.68,167.7c3.99,2.84,0.21,4.64-1.23,5.94c-2.99,2.68-6.52,4.75-9.82,7.07
		c-13.03,5.17-25.37,3.91-37-3.97c-3.27-2.32-2.74-4.67-0.65-7.72c7.53-10.99,22.64-13.98,34.42-9.3
		C263.45,161.72,268.43,164.12,272.68,167.7z"/>
	<path class="st162" d="M211.92,157.34c-2.37-2.03-5.42-3.54-8.08-2.09c-4.73,2.57-8.33,1.25-11.97-1.73c-1.4-1.57-0.28-1.71,1-1.76
		c8.71-0.33,17.42-0.39,27.64,0.23C216.53,153.74,215.14,156.78,211.92,157.34z"/>
	<path class="st163" d="M234.66,165.09c-0.4,4.32,0.99,7.27,3.63,9.92c2.96,2.98,6.5,4.59,10.31,3.37c4.48-1.44,7.84-5.11,7.89-9.87
		c0.06-5.58,2.39-4.58,5.62-2.97c1.19,0.59,2.39,1.15,3.52,1.84c3.01,1.84,3,3.95,0.55,6.35c-10.33,10.13-28.64,10.28-39.36,0.77
		c-0.79-0.7-2.39-1.16-0.85-2.55C228.5,169.64,230.39,166.55,234.66,165.09z"/>
</g>
</svg>
