<?xml version="1.0" encoding="utf-8"?>
<!-- Generator: Adobe Illustrator 23.0.5, SVG Export Plug-In . SVG Version: 6.00 Build 0)  -->
<svg version="1.1" id="Layer_1" xmlns="http://www.w3.org/2000/svg" xmlns:xlink="http://www.w3.org/1999/xlink" x="0px" y="0px"
	 viewBox="0 0 316.16 113.83" style="enable-background:new 0 0 316.16 113.83;" xml:space="preserve">
<style type="text/css">
	.st0{fill:#fff;}
</style>
<g>
	<g>
		<path class="st0" d="M88.35,113.83H57.74l-3.48-17.96H32.63l-3.48,17.96H0L20.9,0h46.56L88.35,113.83z M50.77,74.42l-6.42-40.69
			h-1.28l-6.42,40.69H50.77z"/>
	</g>
	<g>
		<path class="st0" d="M184.23,113.83h-28.78V54.44h-1.65l-10.81,59.39h-29.51l-10.26-59.39h-1.83v59.39L87.63,46.44L78.04,0h40.02
			l10.26,61.59h1.47L139.69,0h40.69L184.23,113.83z"/>
	</g>
	<g>
		<path class="st0" d="M190.75,0h39.28l20.9,113.83h-30.61l-3.48-17.96h-23.34 M206.38,74.42l-6.42-40.69h-1.28l-5.19,40.69H206.38z
			"/>
	</g>
	<g>
		<path class="st0" d="M316.16,113.83H286.1l-23.64-52.97h-1.47v52.97l-11.12-53.82L238.02,0h26.09l22.55,54.62h1.47V0h28.04V113.83
			z"/>
	</g>
</g>
</svg>
