<?xml version="1.0" encoding="utf-8"?>
<!-- Generator: Adobe Illustrator 23.0.5, SVG Export Plug-In . SVG Version: 6.00 Build 0)  -->
<svg version="1.1" id="Layer_1" xmlns="http://www.w3.org/2000/svg" xmlns:xlink="http://www.w3.org/1999/xlink" x="0px" y="0px"
	 viewBox="0 0 205.17 409.56" style="enable-background:new 0 0 205.17 409.56;" xml:space="preserve">
<style type="text/css">
	.st0{fill:#fff;}
</style>
<path class="st0" d="M104.14,0c5.87,2.17,7.47,6.53,7.47,12.53c-0.11,120.13-0.08,240.25-0.08,360.38c0,1.42,0,2.85,0,4.66
	c1.82-0.57,2.63-1.82,3.59-2.78c24.45-24.39,48.87-48.8,73.31-73.2c2.95-2.95,6.11-5.01,10.62-3.31c5.58,2.1,7.88,8.31,4.64,13.29
	c-0.93,1.43-2.18,2.69-3.39,3.91c-29.78,29.81-59.57,59.6-89.36,89.38c-6.22,6.22-10.5,6.27-16.63,0.15
	c-30.18-30.16-60.35-60.33-90.51-90.5c-5.43-5.43-4.96-12.43,0.94-15.71c3.46-1.92,6.65-1.4,9.66,0.8c1.39,1.01,2.58,2.3,3.81,3.52
	c23.86,23.84,47.7,47.7,71.58,71.53c0.97,0.97,1.66,2.38,3.64,2.73c0-1.57,0-2.98,0-4.4C93.42,252.99,93.44,133,93.34,13
	c0-5.8,1.29-10.36,6.8-13C101.47,0,102.81,0,104.14,0z"/>
</svg>
