<?xml version="1.0" encoding="utf-8"?>
<!-- Generator: Adobe Illustrator 23.0.5, SVG Export Plug-In . SVG Version: 6.00 Build 0)  -->
<svg version="1.1" id="Layer_1" xmlns="http://www.w3.org/2000/svg" xmlns:xlink="http://www.w3.org/1999/xlink" x="0px" y="0px"
	 viewBox="0 0 232.37 314.32" style="enable-background:new 0 0 232.37 314.32;" xml:space="preserve">
<style type="text/css">
	.st0{fill:#020303;}
	.st1{fill:#455B73;}
	.st2{fill:#F0E0C5;}
	.st3{fill:#777674;}
	.st4{fill:#425972;}
	.st5{fill:#445B73;}
	.st6{fill:#777574;}
	.st7{fill:#050506;}
	.st8{fill:#050606;}
	.st9{fill:#7B7976;}
	.st10{fill:#526477;}
	.st11{fill:#161B20;}
	.st12{fill:#121212;}
	.st13{fill:#225FA2;}
	.st14{fill:#191B1B;}
	.st15{fill:#1B4C82;}
	.st16{fill:#FBC8B0;}
	.st17{fill:#215FA2;}
	.st18{fill:#EBE8E2;}
	.st19{fill:#EAE8E2;}
	.st20{fill:#D7CAB2;}
	.st21{fill:#62402F;}
	.st22{fill:#7C7C7F;}
	.st23{fill:#1C1D1C;}
	.st24{fill:#44331A;}
	.st25{fill:#45331B;}
	.st26{fill:#F2C1AB;}
	.st27{fill:#F3C3AC;}
	.st28{fill:#EEE2C6;}
	.st29{fill:#EADEC2;}
	.st30{fill:#5B4324;}
	.st31{fill:#5C4424;}
	.st32{fill:#1A4C81;}
	.st33{fill:#49361A;}
	.st34{fill:#0D1B36;}
	.st35{fill:#49341D;}
	.st36{fill:#CE8F29;}
	.st37{fill:#816A5F;}
	.st38{fill:#D49329;}
	.st39{fill:#BA9584;}
	.st40{fill:#102545;}
	.st41{fill:#715F4D;}
	.st42{fill:#736B5E;}
	.st43{fill:#CD9B2B;}
	.st44{fill:#726B5D;}
	.st45{fill:#B0A490;}
	.st46{fill:#EFDFC5;}
	.st47{fill:#BDBBB6;}
	.st48{fill:#736D6A;}
	.st49{fill:#0C1223;}
	.st50{fill:#0C1224;}
	.st51{fill:#0C162C;}
	.st52{fill:#191F4F;}
	.st53{fill:#181C4C;}
	.st54{fill:#191E4D;}
	.st55{fill:#E99F7D;}
	.st56{fill:#E69D7C;}
	.st57{fill:#F7C5AE;}
	.st58{fill:#7C3831;}
	.st59{fill:#F8C5AD;}
	.st60{fill:#DEB19C;}
	.st61{fill:#0B1327;}
	.st62{fill:#0C1A33;}
	.st63{fill:#4E3B22;}
	.st64{fill:#564124;}
	.st65{fill:#CE7A6C;}
	.st66{fill:#0C1122;}
	.st67{fill:#0D1428;}
	.st68{fill:#0C1222;}
	.st69{fill:#0C1830;}
	.st70{fill:#0D1A33;}
	.st71{fill:#1D1E1D; animation: eye linear infinite 1s; transform-origin: 60% 40%;}
	.st72{fill:#534231;}
	.st73{fill:#C6BAA4;}
	.st74{fill:#492414;}
	.st75{fill:#8A4D33;}
	.st76{fill:#884D33;}
	.st77{fill:#603F2F;}
	.st78{fill:#995D45;}
	.st79{fill:#A76C56;}
	.st80{fill:#B77C68;}
	.st81{fill:#72432E;}
	.st82{fill:#D79C2A;}
	.st83{fill:#574431;}
	.st84{fill:#9D614A;}
	.st85{fill:#B17661;}
	.st86{fill:#D4972B;}
	.st87{fill:#6A5745;}
	.st88{fill:#50422F;}
	.st89{fill:#3D3020;}
	.st90{fill:#5B482F;}
	.st91{fill:#E6D3A6;}
	.st92{fill:#6C5A42;}
	.st93{fill:#D4C19C;}
	.st94{fill:#D2AA6D;}
	.st95{fill:#D6C199;}
	.st96{fill:#102343;}
	.st97{fill:#C58C7B;}
	.st98{fill:#0A0706;}
	.st99{fill:#EDDCB6;}
	.st100{fill:#0F1D39;}
	.st101{fill:#784E3C;}
	.st102{fill:#7A4F3C;}
	.st103{fill:#69483A;}
	.st104{fill:#482414;}
	.st105{fill:#C58C7A;}
	.st106{fill:#F8C6AE;}
	.st107{fill:#665341;}
	.st108{fill:#F5F6F6;}
	.st109{fill:#F3F4F4;}
	.st110{fill:#A1A0A0;}
	.st111{fill:#784F3D;}
	.st112{fill:#794E3B;}
	.st113{fill:#684738;}
	@keyframes eye{
		0% {transform: rotate(0)}
		10% {transform: rotate(-5deg)}
		20% {transform: rotate(0)}
		30% {transform: rotate(-5deg)}
		100% {transform: rotate(0)}
	}
</style>
<g>
	<path class="st0" d="M68.94,241.15c-15.81-9.15-20.78-24.37-22.88-41.13c-0.3-2.37-0.44-4.36-3.54-4.11
		c-5.75,0.48-8.83-3.4-11.99-7.25c-7.49-9.13-10.72-20.08-13.31-31.25c-0.56-2.41-1.44-4.25-3.1-6c-5.35-5.65-8.49-12.21-8.01-20.22
		c0.19-3.23-0.61-6.42-2.29-9.06c-4.67-7.35-4.48-15.08-2.46-23.05c0.29-1.13,0.76-2.19,0.5-3.39c-3.05-14.47,2.6-26.34,11.29-37.21
		c25.22-31.54,59.09-47.92,97.92-55.25c6.8-1.28,13.55-3.21,20.58-3.22c4.04-0.01,7.25,1.56,9.15,4.98
		c1.34,2.42,3.19,3.35,5.64,4.17c25.24,8.45,47.82,21.43,66.6,40.41c13.28,13.43,21.43,29.3,18.84,48.84
		c-1.4,10.54-2.23,21.03-5.3,31.57c-4.33,14.9-10.14,29.21-14.82,43.93c-1.28,4.03-3.99,7.61-6.09,11.37
		c-3.12,5.57-7.5,9.63-13.86,11.2c-2.41,0.59-3.51,1.67-3.97,4.56c-2.04,12.87-5.2,25.33-15.65,34.52
		c-2.67,2.35-5.69,4.15-8.37,6.45c-0.24,0.89-0.71,1.62-1.48,2.15c-1.48,1.37-4.1,1.87-3.54,4.77c0.4,3.54,1.23,7.19-2.57,9.59
		c-2.68-1.77-5.1-1.26-8.14-0.24c-8.14,2.72-16.09,6.24-24.76,7.21c-3.51,0-7.01,0.01-10.51,0.01c-10.5-0.02-19.74-4.62-29.22-8.26
		c-2.39-0.92-4.25-1.38-6.29,0.28c-4.28-1.66-3.91-5.16-3.47-8.69c0.37-1.58,0.23-2.99-1.29-3.96
		C70.98,243.98,69.93,242.59,68.94,241.15z"/>
	<path class="st1" d="M89.04,311.1c-14.58-2.03-28.57-6.11-42.02-12.11c-1.13,0.59,0.23-3.88-2.03-1
		c-6.92-3.16-13.75-6.49-20.07-10.77c-1.53-7.69,1.73-13.61,7.43-18.14c4.24-3.37,9.12-5.87,14.95-4.83
		c2.69,5.52-0.54,11.1,0.06,15.47c-0.61-2.63,0.93-6.2,1.21-9.91c0.19-2.6,4.63-4.94,7.87-4.3c3.34,0.66,2.52,3.25,2.47,5.54
		c-0.2,8.62,1.07,17.14,2.03,25.67c0.41,3.68,2.73,5.88,6.6,4.77c5.31-1.52,9.83-1.07,14.34,2.6c2.47,2.01,5.89,2.98,8.75,4.66
		c0.81,0.48,1.88,1.29,1.12,2.33C91.13,311.93,89.96,311.7,89.04,311.1z"/>
	<path class="st2" d="M130.11,313.01c-8.81,1.7-17.61,1.84-26.41-0.11c-1.32-1.19-1.92-2.73-1.91-4.45
		c0.03-6.38-3.13-11.37-6.77-16.25c-1.51-2.02-4.03-3.73-3.24-6.89c1.5-1.71,3.35-1.02,5.08-0.64c13.79,3.02,27.47,2.54,41.06-1.17
		c1.71-0.47,3.42-1.4,5.2-0.21c1.03,3-1.26,4.91-2.86,6.42c-5.73,5.38-7.49,12.37-8.84,19.61
		C131.18,310.63,131.06,311.95,130.11,313.01z"/>
	<path class="st3" d="M91.99,286.09c6.58,7.77,12,16.04,11.71,26.81c-5.02,0.45-9.86-0.55-14.67-1.79c0.5-0.06,1.04-0.01,1.48-0.2
		c1.3-0.57,0.23-0.85-0.21-1.09c-4.72-2.6-9.99-4.1-14.1-8.04c-1.06-1.02-4.41,0.14-6.64,0.61c-7.6,1.57-10.29-0.13-10.47-7.93
		c-0.2-8.55-2.85-16.98-1.21-25.63c0.37-1.96-0.52-2.39-2.64-2c-5.69,1.04-6.54,1.86-7.2,9.56c-0.21,2.46-0.03,4.95-0.03,8.42
		c-1.43-2.49-1.2-4.28-0.92-5.79c0.89-4.91-0.55-9.76-0.09-14.64c0.88-2.15,2.97-2.56,4.81-3.01c3.5-0.84,5.88-2.74,7.09-6.13
		c3.34-4.7,6.69-9.39,10.03-14.09c1.38,0.95,2.75,1.9,4.13,2.85c-0.53,1.08-1.55,1.7-2.38,2.48c-5.21,4.89-8.99,10.32-8.77,18
		c0.14,5.08-0.94,10.18-0.18,15.3c-0.33,4.64,0.28,9.24,0.79,13.83c0.57,5.21,2.06,6.06,7.17,4.84c2.09-0.5,4.18-1.04,6.31-1.33
		c2.02-0.27,4.07-0.27,4.83,2.27c0.24,1.46,1.15,2.38,2.47,2.86c2.8,1.01,5.64,1.87,8.37,3.14c2.51,1.17,4.71,2.99,7.82,3.77
		c-1.05-5.83-2.6-11.01-6.45-15.53c-9.89-11.62-17.16-24.8-22.06-39.25c-1.67-4.92-0.94-5.9,3.89-6.41
		c0.45,3.19-1.06,6.86,2.28,9.34c3.12,3.17,3.41,7.72,5.56,11.37c2.12,4.03,4.04,8.17,6.88,11.77
		C90.94,282.1,91.37,284.14,91.99,286.09z"/>
	<path class="st4" d="M208.06,287.98c-6.11,3.87-12.41,7.36-19.19,9.94c-2.19-1.52-2.09-3.87-2.23-6.14
		c0.63-7.38,1.96-14.78-0.49-22.09c-0.34-1.59-1.03-3.18-0.14-4.81c11.46-1,22.75,9,22.94,20.32
		C208.96,286.23,208.6,287.13,208.06,287.98z"/>
	<path class="st5" d="M182.97,300.8c-12.28,4.86-24.86,8.66-38.02,10.3c-1.24,0.77-2.5,0.59-3.78,0.13
		c-0.56-1.53,0.61-2.14,1.54-2.7c4.36-2.63,9.24-4.17,13.37-7.44c2.36-1.87,6.05-0.21,9.11,0.49c5.05,1.15,5.94,0.64,7.31-4.36
		c1.15-4.19,1.24-8.49,1.18-12.8c-0.02-1.66,0.03-3.32,0.96-4.81c0.79-1.11,1.9-1.88,3.06-2.48c2.25-1.17,4.44-3.78,7.15-2.02
		c2.34,1.53,1.97,4.62,1.43,6.91C184.81,288.22,187.07,295.08,182.97,300.8z"/>
	<path class="st6" d="M175.05,280.1c-0.32,7.18,0.83,14.51-2.9,21.31c-1.2,2.19-2.23,3.04-4.59,2.07c-1.21-0.5-2.53-0.79-3.82-0.97
		c-3.52-0.49-6.65-1.57-10.09,1.86c-2.95,2.95-7.76,4.04-11.83,6c0.93,1.19,2.18,0.32,3.13,0.74c-2.05,1.35-4.43,0.76-6.65,1.11
		c-2.3,0.8-2.86-0.15-2.27-2.25c2.24-4.4,6.91-4.75,10.8-6.18c3.02-1.11,5.2-2.56,5.9-5.8c3.86-1.89,7.4,0.39,11.03,0.98
		c4.77,0.78,6.43,0.06,7-4.84c0.59-5.06,1.07-10.16,0.99-15.29c0.71-6.97,0.03-13.87-1.31-20.69c-0.72-3.69-3.09-6.47-5.73-9.08
		c-1.55-1.54-3.89-2.85-2.89-5.74c0.67-0.43,1.33-0.86,2-1.29c5.38,3.94,7.39,10.64,12.27,14.99c-0.44,1.52-0.85,3.05,0.22,4.49
		c1.01,1.82,4.14,1.32,4.38,3.98c0.03,1.09-0.51,1.88-1.31,2.55c-1.96,1.26-2.09,3.27-2.01,5.27
		C177.48,275.88,176.72,278.12,175.05,280.1z"/>
	<path class="st7" d="M175.12,261.78c-0.75-1.82-2.55-3.85,0.98-4.79c7.07,2.02,14.33,3.57,21.17,6.2
		c7.87,3.02,12.51,9.34,14.76,17.47c1.07,3.88-0.01,6.31-3.97,7.31c-1.17-11.69-4.97-19.74-21.98-22.81
		c-1.53,0.76-2.93,0.06-4.36-0.37C179.93,262.89,176.87,263.76,175.12,261.78z"/>
	<path class="st8" d="M58.91,255.24c0.91,3.8-0.58,5.85-4.41,6.67c-2.55,0.54-4.99,1.62-7.48,2.46c-7.01,2-14.12,3.62-18.42,10.58
		c-2.38,3.85-2.5,8.18-3.66,12.28c-4.9-0.96-4.69-4.54-3.6-7.95c2.68-8.45,7.96-14.6,16.65-17.37
		C44.96,259.68,51.93,257.46,58.91,255.24z"/>
	<path class="st9" d="M136.84,309.64c-0.24,1.27-0.51,2.56,1.47,2.56c-2.61,1.5-5.45,0.63-8.19,0.81
		c-0.83-11.97,5.51-20.69,13.07-28.86c0.22-1.59,0.29-3.22,1.05-4.69c4.25-5.59,7.14-11.92,9.84-18.35c0.5-1.04,0.92-2.14,1.85-2.9
		c2.57-3.16,2.57-6.62,1.23-10.25c5.08-0.33,6.85,1.38,5.27,5.78c-4.68,13-9.61,25.91-19.35,36.24c-5.4,5.72-9.36,12.13-9.11,20.22
		c-0.83,0.44-0.12,0.25-0.08,0.17C134.55,309.03,135.67,309.19,136.84,309.64z"/>
	<path class="st10" d="M175.05,280.1c1-3.18,1.1-6.45,0.93-9.73c-0.12-2.23,0.64-3.48,3.04-3.3c3.03,0.04,6.05,0.1,5.62,3.58
		c-0.35-1.25,0.01-2.39,2.5-1.55c2.73,5.61,2.14,11.56,1.46,17.41c-0.23,1.94-0.5,3.9-0.68,5.87c-1.91,2.03-0.13,4.6-0.97,6.79
		c-1.32,0.55-2.65,1.09-3.97,1.64c0.67-7.33,1.35-14.67,2.01-22c0.34-3.73-1.21-3.91-3.95-2.15
		C179.1,277.89,177.05,278.95,175.05,280.1z"/>
	<path class="st11" d="M186.95,299.16c-1.29-2.5-2.5-4.98,0.97-6.79c0.32,1.85,0.63,3.7,0.95,5.55
		C188.23,298.33,187.59,298.75,186.95,299.16z"/>
	<path class="st12" d="M45,298c0.18-1.83-0.6-3.86,1.33-6.09c0.99,2.7,0.76,4.91,0.69,7.09C46.35,298.67,45.67,298.33,45,298z"/>
	<path class="st13" d="M25.08,52.23c22.68-24.92,52.1-37,84.1-44.09c6.3-1.4,12.71-2.33,19.09-3.34c6.5-1.02,10.24,1.91,10.71,8.45
		c0.26,3.64,0.44,7.33-0.99,10.84c-4.98,16.79-13.82,31.62-24.01,45.58C98.98,90.23,81.5,108.44,60.1,122.51
		c-8.61,5.66-17.82,9.79-28.56,8.83c-3.17-0.29-6.36-0.65-9.06-2.44c-2.02-1.34-2.22-2.88,0.38-3.94c1.08-0.44,2.21-0.77,3.37-0.88
		c17.82-1.8,30.46-12.51,41.96-24.85c2.67-2.87,5.79-5.53,7.61-9.18c4.29-6.58,10.25-11.71,15.4-17.54
		c1.76-1.99,3.32-4.11,5.55-6.86c-4.92,6.33-9.64,11.63-14.94,16.4c-9.04,8.19-18.71,15.51-29.3,21.57
		c-9.43,5.39-19.37,8.8-30.48,7.75c-6.44-0.61-11.53-3.93-12.85-8.68c-1.17-4.24,0.26-6.57,4.54-6.83
		c17.1-1.06,31.79-8.03,45.07-18.35c6.57-5.11,12.86-10.58,18.08-17.13c0.56-1.23,1.51-2.16,1.85-2.48
		c-1.94,2.21-4.61,4.87-8.09,6.57C60.01,70.58,49.9,77.68,38.22,81.88c-5.65,2.03-11.3,3.97-17.45,3.53
		c-4.5-0.33-7.84-2.87-8.81-6.76c-1.17-4.73,1.03-11.62,4.32-13.54c1.05-0.62,2.18-0.75,3.36-0.66c14.31,1.14,26.65-4.22,38.32-11.7
		c2.87-1.54,5.77-3.05,8.63-4.65c-5.12,2.42-9.79,5.97-15.71,6.46c-6.77,2.21-13.73,2.41-20.69,1.72
		C28.03,56.07,24.33,56.61,25.08,52.23z"/>
	<path class="st14" d="M182.92,192.06c2.58,2.8,0.33,5.68,0.06,8.49c-0.64,6.63-2.49,13.01-4.86,19.21
		c-3.93,10.3-12.63,16.01-21.46,21.35c-3.49,2.11-6.59,5.97-11.63,4.43c-0.29-0.09-0.95,0.76-1.34,1.25
		c-10.11,12.55-23.62,16.63-38.89,11.7c-0.94-0.3-2.45-0.46-2.69-1.08c-2.05-5.28-8.8-6.03-10.76-11.42
		c-0.75-2.06-2.22-5.06-3.58-0.09c-0.29,1.06-1.18,0.91-1.99,0.39c-10.43-6.66-22.11-11.89-28.48-23.39
		c-4.74-8.55-5.96-18.14-7.24-27.65c-0.09-0.67,0.61-1.44,0.95-2.16c1.81-0.35,2.16,1.18,2.8,2.24c1.39,2.33,1.82,5.46,5.82,5.18
		c1.26-0.09,1.91,2.12,2.82,3.28c2.9,3.69,6.28,3.64,9.04-0.03c3.97-5.28,9.75-6.73,15.86-6.86c8.18-0.19,16.07,2.21,24.1,3.38
		c3.67,0.65,7.33,0.68,10.99,0.01c9.1-1.33,18.06-4.27,27.47-2.39c4.58,0.91,8.38,2.93,11.36,6.54c2.81,3.4,5.54,3.47,8.44,0.16
		c1.49-1.7,2.54-3.53,5.41-3.69c1.87-0.1,2.49-2.86,3.67-4.42C180.03,194.88,180.19,192.27,182.92,192.06z"/>
	<path class="st15" d="M78.03,60.1c-1.83,4.91-6.18,7.71-9.73,11.04C55.93,82.74,42,91.8,25.14,95.53
		c-3.54,0.78-7.06,1.65-10.76,1.6c-4.38-0.06-5.55,1.78-3.8,5.9c2.26,5.33,6.97,6.62,12.16,7.06c13.16,1.14,24.23-4.27,34.84-11.08
		c7.67-4.93,15.08-10.21,21.66-16.57c0.68-0.66,1.68-0.98,2.53-1.46c1.12,1.39-0.25,2.25-0.88,2.92
		c-11.93,12.55-24.09,24.84-40.17,32.18c-6.82,3.11-14.06,4.6-19.89,5c12.49-0.33,24.68-5.6,35.63-14.34
		c5.6-4.46,10.98-9.12,16.09-14.12c1.23-1.2,2.16-3.13,4.45-2.62c-3.59,6.2-8.47,11.36-13.65,16.17
		c-9.07,8.43-18.95,15.62-31.36,18.44c-3.37,0.77-6.95,0.33-10.79,2.22c6.46,4.05,13.14,3.93,19.76,2.66
		c11.79-2.25,21.46-9.02,30.32-16.46c18.49-15.53,35.06-32.93,48.52-53.14c7.49-11.24,13.02-23.43,18.21-35.82
		c-0.07,5.7-2.73,10.6-5.13,15.47c-11.23,22.86-25.98,43.3-43.09,62.11c-6.65,7.31-14.73,12.93-22.36,19.07
		c-6.38,5.14-12.19,10.85-16.46,17.92c-3.73,6.19-6.44,12.61-6.12,20.16c0.38,8.81-0.46,17.59-1.78,26.33
		c-0.33,2.18-0.38,4.76-2.73,5.38c-2.11,0.56-3.41-1.71-4.73-3.15C27.88,179,24.5,168.58,22.1,157.8c-0.89-4-2.14-7.42-5.17-10.41
		c-4.01-3.95-6.41-8.75-6.01-14.75c0.31-4.73-0.94-9.39-3.4-13.36c-3.06-4.94-3.27-10.23-2.31-15.43c0.82-4.46,1.1-8.78,0.72-13.25
		c-1.08-12.61,5-22.4,12.67-31.5c2.03-2.4,4.31-4.59,6.48-6.88c1.25,3.18,4.17,2.58,6.63,2.84c6.94,0.73,13.72-0.66,20.51-1.78
		c-0.41,2.05-2.24,2.23-3.74,2.76c-6.75,2.38-13.62,3.93-19.47,2.73c11.2,0.27,13.11-0.09,25.96-5.14c1.3-0.51,2.56-1.79,4.09-0.46
		C47.4,61.75,34.57,66.89,19.88,65.76c-2.48-0.19-3.67,0.37-4.82,2.21c-3.47,5.57-2.93,12.39,1.61,15.09
		c3.45,2.06,7.45,1.36,11.13,0.55c11.98-2.62,22.58-8.44,32.96-14.72c3.37-2.04,6.44-4.63,10.3-5.79c0.37,1.9-1.2,2.65-2.3,3.49
		C53.28,78.29,37.22,88.93,18.19,94.13c-1.61,0.44-3.15,1.09-4.05,0.98c6.26-1.05,13.04-3.01,19.41-6.23
		c13.86-7,26.96-15.17,38.76-25.35C73.97,62.11,75.38,60,78.03,60.1z"/>
	<path class="st16" d="M182.92,192.06c-6.87,11.13-7.82,9.62-8.95,10.33c-3.6,2.27-5.8,6.59-11.08,7.01
		c-5.66-12.66-17.16-11.51-28.77-9.95c-3.77,0.51-7.51,1.19-11.26,1.8c-0.95,0.36-1.96,0.66-2.72-0.24
		c-0.56-0.66,0.06-1.33,0.53-1.7c3.02-2.4,6.07-4.71,10.31-4.13c5.67,0.77,6.29,0.1,5.65-5.78c0.48,5.72-0.06,6.3-5.7,5.71
		c-2.58-0.27-4.93,0.45-7.3,1.25c-4.4,1.39-8.81,1.3-13.22,0.1c-2.99-0.86-5.85-1.77-9.17-1c-3.86,0.89-4.12-2.22-4.21-3.79
		c0.31,4.25,0.42,4.35,5.78,3.55c4.02-0.6,7.11,1.14,9.6,4.03c1.18,1.37,1.02,2.48-1.23,2.09c-5.88-0.98-11.76-2-17.65-2.92
		c-11.68-1.84-19.77,2.03-23.74,11.14c-2.04,1.81-1.82-5.39-4.49-0.92c-2.05-1.26-3.3-3.21-4.54-5.19
		c-0.45-0.72-0.48-0.69-2.39-0.28c-1.03,0.23-1.56-0.59-1.96-1.23c-1.84-2.92-3.59-5.9-5.36-8.85c-1.93-7.08-4.25-14.1-3.81-21.6
		c1.87-0.69,2.37,0.96,2.85,1.98c5.53,11.78,18.51,15.12,30.12,12.38c0.97-0.23,1.94-0.42,2.9-0.69
		c14.35-3.35,27.45-19.35,28.58-34.96c0.14-1.98-0.07-4.1,1.54-5.62c1.77-1.68,3.87-2.7,6.37-1.86c2.57,0.86,4.63,2.69,4.5,5.41
		c-0.36,7.27,2.52,13.66,4.84,20.22c0.23,0.79,0.31,1.62,0.52,2.41c0.4,1.56,0.1,3.38,3.11,2.61c1.57-0.4,3.14,2.12,4.48,3.55
		c4.79,5.13,10.57,8.35,17.53,9.43c10.57,1.17,20.89,1.54,28.2-8.35c0.77-1.05,1.5-2.21,2.77-2.76c0.82-0.36,1.61-0.46,1.63,0.83
		C186.61,181.62,184.76,186.84,182.92,192.06z"/>
	<path class="st15" d="M192.88,38.31c14.33,10.16,26.64,22.03,32.47,39.2c2.38,6.99,3.79,14.23,1.67,21.52
		c-1.9,6.51,0.59,13.47-2.01,19.7c-4.08,9.76-4.5,20.47-9.51,30.16c-4.32,8.36-4.78,18.56-9.72,27.01c-2.26,3.87-4.13,8-7.26,11.29
		c-1.44,1.51-2.78,3.84-5.31,2.86c-2.41-0.94-2.22-3.43-2.22-5.59c0-11.99-0.13-23.97,0.09-35.96c0.08-4.09-1.15-7.34-3.59-10.52
		c-14.99-19.51-31.41-37.89-45.91-57.79c-4.2-5.77-8.12-11.75-11.99-17.74c-2.99-4.63-2.03-7.38,3.23-10.43
		c3.67-0.04,5.59,2.48,7.46,5.09c-0.04,0.66,0.34-0.1,0.07,0.48c-3.33,7.11,0.72,12.21,4.47,17.59
		c11.65,16.69,24.1,32.75,38.14,47.48c7.2,7.56,15.24,14.29,24.49,20c1.62-10.4-2.87-18.57-7.69-26.55
		c-4.49-7.44-10.36-13.87-15.73-20.67c-1.01-1.28-2.49-2.3-2.26-4.25c2.37-1.65,3.65,0.43,5.08,1.6
		c8.43,6.92,16.32,14.38,22.17,22.8c-2.4-3.31-5.08-7.31-7.98-11.15c-0.76-1.01-1.83-2.05-1.01-3.56c2.64-1.01,3.89,1.13,5.42,2.48
		c1.73,1.53,3.19,3.33,4.67,5.11c1.1,1.32,2,4,3.81,3.22c2.06-0.89,1.89-3.68,1.56-5.8c-0.67-4.32-2.92-8.02-5.05-11.75
		c-0.87-1.51-2.55-2.74-1.75-4.86c4.33-0.9,4.45,3.55,6.52,5.05c-0.52-2.51-4.59-3.65-3.37-7.31c4.27-0.12,5.4,4.17,8.64,6.06
		c-4.48-11.69-11.15-21.47-20.62-29.39c-2.27-1.9-5.68-2.96-6.01-6.67c2.4-1.38,4.09,0.36,5.82,1.47c4.92,3.15,8.87,7.3,12.16,12.1
		c0.38,0.55,0.75-0.48,0.32,0.03c-0.04,0.05-0.16-0.05-0.36-0.29c-2.86-3.37-5.15-7.25-9.01-9.73c-1.19-0.77-2.45-1.82-1.87-3.65
		c4.98-0.99,6.78,3.94,10.19,5.05c-3.68-7.38-10.1-12.91-16.97-18.01c-0.93-0.69-1.92-1.29-2.8-2.04c-0.77-0.65-1.66-1.42-1.39-2.45
		C190.33,38.03,191.79,38.46,192.88,38.31z"/>
	<path class="st16" d="M77.98,116.08c9.62-6.79,17.17-15.66,24.5-24.7c2.35-2.9,4.8-4.27,8.71-4.54c9.87-0.68,19.6-0.07,29.34,1.26
		c2.41,0.33,4.2,1.22,5.8,3.26c7.6,9.68,15.41,19.2,23.15,28.77c-2.3,1.66-4.46-0.53-6.71-0.23c-8.04-2.55-16.04-1-23.9,0.66
		c-5.52,1.16-7.25,5.54-6.89,10.87c-0.43,0.35-0.91,0.59-1.43,0.75c-9.22,0.32-18.43,0.85-27.61-0.27
		c-0.47-0.23-0.84-0.59-1.11-1.04c0-1.78,1.04-3.3,1.26-5.04c0.05-0.37-0.77-0.85-1.38-0.77c-0.82-3.08-4.57-4.6-6.01-4.73
		c-4.76-0.45-9.21-2.89-14.15-2.13C80.26,118.39,78.01,118.71,77.98,116.08z"/>
	<path class="st17" d="M192.88,38.31c-1.36,0.9-3.39,1.21-0.36,3.18c6.64,4.31,12.87,9.25,17.31,15.99c1.32,2,2.3,4.23,4.04,7.45
		c-5.54-2.36-8.23-6.84-12.98-7.77c-2.64,1.31-4.4-0.96-6.39-1.79c-13.54-5.63-27.64-9.63-41.49-14.34
		c-4.06-2.13-9.22-1.48-12.71-5.04c0.59-1.93,1.18-3.86,1.77-5.8c6.82-1.65,13.4,0.67,20.06,1.33c6.25,0.61,12.43,1.88,18.41,3.95
		c0.66,0.23,1.28,0.13,1.74-0.47c-0.37,0.34-0.78,0.67-1.31,0.51c-12.43-3.81-25.23-5.3-38.14-6.03c-0.26-0.01-0.47-0.38-0.66-0.68
		c0.27-5.07,2.66-9.85,1.6-15.6C162.12,18.68,177.97,27.57,192.88,38.31z"/>
	<path class="st18" d="M136.84,309.64c-3.16,1.07-4.45,0.94-3.98-3.34c0.81-7.42,5.17-12.62,9.77-17.57
		c8.39-9.02,12.44-20.31,17.34-31.19c0.26-0.59,0.12-1.4,0.46-1.9c2.94-4.31,1.61-6.74-3.27-7.68c-0.22-3.34,3.43-2.8,4.68-4.66
		c0.81,2.51,3.11,3.77,4.7,5.63c3,3.5,5.57,7,5.77,12.09c0.23,6.01,1.73,11.98,0.54,18.04c-0.84,4.2-2.82,7.97-4.49,11.85
		c-0.26,0.6-0.98,1.06-1.07,1.64c-0.3,1.94,0.68,4.28-2.27,5.15c-2.22,0.65-4.28,0.17-6.33-0.42c-1.96-0.56-3.97,0.14-5.9-0.45
		c-0.1-0.03-0.55-0.51-0.4,0.03c0.11,0.41,0.59,0.75,0.71,1.25c0.99,3.53-0.65,5.12-3.93,6.12
		C144.86,305.53,140.4,306.61,136.84,309.64z"/>
	<path class="st19" d="M74.87,247.98c-4.28,0.72-3.78,3.29-2.61,6.36c5.59,14.64,12.26,28.58,23.23,40.16
		c4.23,4.46,5.06,10.52,5.73,17.57c-6.63-4.98-13.94-6.42-20.41-9.79c-1.24-0.64-1.43-1.12-0.78-2.18c1.08-1.09-0.39-3.12,1.82-4.03
		c-4.17,0.11-7.77,1.58-11.56,1.71c-3.37,0.11-3.75-0.37-3.48-4.1c0.02-0.32,0.13-0.28-0.2-0.6c-3.73-3.52-3.71-8.74-5.83-13.01
		c-1.57-13.03-1.59-25.65,9.52-35.23c0.66-0.57,1.82-0.57,2.75-0.84C74.36,245.02,77.02,245.41,74.87,247.98z"/>
	<path class="st20" d="M155.93,258.21c0.15,1.12,0.12,2.2-0.76,3.06c-4.91,3.1-9.67,6.42-14.6,9.5c-5.1,3.19-10.48,4.81-16.51,4.74
		c-5.48-0.06-10.97-0.47-16.44,0.32c-0.98,0.18-1.94,0.24-2.64-0.67c1.9,2.17,6.35,1.85,6.02,6.18c-2.1,1.44-4.18,0.49-6.2-0.16
		c-8.33-2.65-15.61-7.32-22.93-11.92c-2.23-3.72-3.71-7.73-4.71-11.93c1.64-0.94,0.7-2.71,1.27-4c10.57,5.25,21.37,9.66,33.22,10.89
		c4.14,0.53,8.29,0.8,12.42-0.1c8.77-1.63,17.22-4.33,25.34-7.98C152.49,254.75,155.02,253.5,155.93,258.21z"/>
	<path class="st21" d="M48.89,152.09c0.41-3.73,1.89-7.02,4.16-9.98c1.54-2.9,4.43-3.98,7.21-4.97c13.02-4.65,26.2-3.97,38.97,0.42
		c6.99,2.41,12.39,7.33,9.28,15.4c-1.72,1.7-3.95,1.69-6.14,1.82c-1.44-0.15-2.3-1.16-3.17-2.18c-8.9-10.35-19.82-12.84-32.38-7.41
		c-4.29,1.85-8.04,4.59-11.84,7.24c-1.82,1.28-3.69,1.35-5.6,0.22C49.21,152.47,49.05,152.28,48.89,152.09z"/>
	<path class="st22" d="M108.61,84.27c5.48-7.65,10.19-14.21,14.86-20.79c0.89-1.25,1.53-1.56,2.53-0.07
		c4.77,7.08,9.6,14.11,14.57,21.41C130.08,83.75,120.08,82.05,108.61,84.27z"/>
	<path class="st23" d="M77.98,116.08c2.31,2.06,5.43,1.43,7.8,1.24c2.82-0.23,4.83,1.11,7.18,1.44c2.82,0.39,4.68,1.09,6.69,3.29
		c1.31,1.44,2.12,0.7,2.52,2.68c1.89,1.84,1.43,3.6-0.17,5.33l-0.02,0.02c-0.39,0.41-0.86,0.71-1.39,0.92
		c-2.69,0.65-5.25-0.29-7.8-0.82c-8.65-1.81-17.3-2.4-26.03-0.64c-0.99,0.2-1.97,0.26-2.77-0.53c0.44-3.06,3.08-4.08,5.15-5.69
		C72.15,120.99,75.04,118.5,77.98,116.08z"/>
	<path class="st24" d="M182.97,141.06c0.37,0.35,0.73,0.71,1.1,1.06c0.85,0.96,1.74,1.9,1.32,3.37c-0.44,0.78-1.1,1.02-1.94,0.74
		c-15.41-11.8-31.96-10.98-48.99-4.32c-2.13,0.83-4.27,1.96-5.17,4.38c-1.8,3.83-0.24,7.45,0.69,11.11
		c0.84,3.59,2.32,6.89,4.57,9.82c1.07,1.41,2.09,2.87,3.15,4.29c1.16,1.67,3.13,2.73,3.66,4.88c-0.07,0.52-0.33,0.9-0.8,1.15
		c-0.51,0.14-1.02,0.14-1.53,0.01c-9.55-7.54-14.62-17.26-14.29-29.57c0.13-5,3.6-7.54,7.31-9.92c14.47-7.28,29.33-6.56,44.35-2.08
		C179.22,136.82,181.24,138.78,182.97,141.06z"/>
	<path class="st25" d="M107.92,153.17c0.31-9-2.77-12.92-11.82-15.22c-14.85-3.78-29.33-3.86-43.04,4.16
		c-0.07-1.2-0.19-2.42,1.12-3.13c5.97-4.82,12.89-6.55,20.41-6.25c5.78,0.22,11.56-0.41,17.33,0.82c6.12,1.3,11.79,3.26,16.34,7.74
		c3.15,4.14,3.49,8.64,2.17,13.6c-2.27,8.54-6.49,15.83-12.86,21.91c-1.67,1.6-3.37,3.26-6.02,2.79c-1.7-3.75,2.26-4.09,3.61-6
		c2.22-1.72,3.8-3.98,5.36-6.27C104.27,163.27,104.38,157.32,107.92,153.17z"/>
	<path class="st26" d="M180.3,133.88c1.21,1.17,2.59,2.24,2.47,4.19c-0.5,0.29-1.01,0.34-1.55,0.14
		c-10.25-5.37-21.14-6.7-32.49-5.19c-5.53,0.73-11.07,2.03-16.5-0.49c-0.5-0.44-0.56-0.94-0.2-1.49l-0.06,0.1
		c1.11-1.67,2.88-2.07,4.67-2.49c9.38-2.15,18.82-3.42,28.45-2.11c4.72,0.64,8.51,3.47,12.62,5.53
		C178.64,132.58,179.31,133.46,180.3,133.88z"/>
	<path class="st27" d="M64,129.01c11.03-3.65,21.97-1.74,32.91,0.51c1.29,0.27,2.6,0.46,3.89,0.69c1.47,1.6,0.12,2.31-1.04,2.76
		c-1.63,0.63-3.36,0.97-5.13,1.06c-2.07-0.4-4.25,0.01-6.25-0.91c-5.58-1.34-11.25-0.36-16.88-0.62c-2.96,0.07-5.79,0.87-8.64,1.54
		c-1.54,0.36-3.1,1.25-4.64,0C59.24,131.32,61.96,130.55,64,129.01z"/>
	<path class="st28" d="M88.65,132.87c1.58,0.69,3.27-1.61,4.8,0.19c1.05,0.63,2.18,0.52,3.32,0.38c1.15,0.17,2.23,0.56,3.34,0.91
		c1.77,0.65,3.6,1.17,5.21,2.21c1.6,1.67,4.44,2.6,3.54,5.8c-0.53,0.21-0.97,0.1-1.34-0.33c-16.3-10.77-33.41-10.61-51.02-3.79
		c-0.76,0.29-1.56,0.5-2.34,0.74c0.93-1.02,1.85-2.04,2.78-3.07c4.42-3,9.6-3.39,14.64-4.31c3.98,0,7.95,0.01,11.93,0
		C85.34,131.59,87.19,131.45,88.65,132.87z"/>
	<path class="st29" d="M182.18,138.09c0.2,0.02,0.4,0.02,0.59-0.02c0.07,0.99,0.13,1.99,0.2,2.99c-13.43-8.2-27.84-8.23-42.58-4.93
		c-2.71,0.61-5.26,1.91-7.89,2.9c-0.71,0.35-1.43,0.65-2.24,0.38c-0.47-3.9,3.15-3.3,5.05-4.59c1.69-0.71,3.55-0.68,5.29-1.2
		c2.82-0.71,5.68-1.16,8.6-1.16C160.83,130.57,171.85,132.29,182.18,138.09z"/>
	<path class="st30" d="M83.38,186.32c-16.07,4.88-27.15,0.34-36.17-14.84c0.29-0.46,0.58-0.93,0.87-1.39
		c3.8,1.02,3.92,5.31,6.57,7.35c1.53,1.77,3.22,3.33,5.46,4.19c5.9,2.58,11.93,4.04,18.39,2.53c1.15-0.27,2.31-0.18,3.42,0.29
		C82.67,184.87,83.2,185.46,83.38,186.32z"/>
	<path class="st31" d="M187.16,176.05c-1.35-1.51-1.51,0.27-1.89,0.79c-7.89,10.64-18.53,14.17-31.58,10.42
		c0.48-1.07,1.41-1.57,2.42-1.98c2.6-0.78,5.27-0.53,7.92-0.5c6.08,0.06,11.41-1.75,15.83-6c3.01-1.97,3.13-6.65,7.17-7.65
		C188.08,172.73,188.86,174.36,187.16,176.05z"/>
	<path class="st32" d="M140.12,57.18c-2.43-1.72-4.87-3.45-7.3-5.18c-0.64-3.64,1.78-5.77,3.96-8.02c1.01-0.59,1.85-0.07,2.71,0.38
		c1.24,0.8,2.52,1.56,3.16,3c0.5,3.35-0.6,6.36-1.97,9.31C140.5,56.85,140.31,57.01,140.12,57.18z"/>
	<path class="st33" d="M184.04,146.09c0.32-0.34,0.65-0.68,0.97-1.02c3.38,0.23,1.28,3.79,3.04,5.01c1.61,5,1.43,10.02,0.14,15.05
		c-1.95,4.59-3.63,9.33-6.97,13.2c-1.27,0.84-1.92,2.89-4.05,2.08c-1.13-2.29,1.04-3.23,1.91-4.7c1.02-1.19,1.62-2.63,2.29-4.02
		c0.73-1.42,1.39-2.86,1.95-4.36c1.38-4.57,3-9.11,1.64-14C184.97,150.87,183.18,148.64,184.04,146.09z"/>
	<path class="st34" d="M142.17,28.8c11.9,0.58,23.74,1.54,35.25,4.92c1.72,0.5,3.4,1.12,5.01,2.09c-13.4-2.4-26.72-5.2-40.37-5.61
		C142.09,29.73,142.13,29.27,142.17,28.8z"/>
	<path class="st35" d="M47.18,161.4c-0.57-3.31,0.3-6.36,1.71-9.31c0,0,0.29,0.05,0.29,0.05c2.3,4.34,0.58,9.42,2.54,13.82
		c0.64,2.3,1.66,4.42,2.94,6.43c1.06,2.06,2.88,3.63,3.71,5.83c-0.01,0.5-0.21,0.91-0.59,1.23c-2.18,0.69-2.83-1.41-4.16-2.28
		C50.35,172.38,47.59,167.37,47.18,161.4z"/>
	<path class="st32" d="M138.77,45.05c-0.66-0.35-1.32-0.71-1.98-1.06c-0.32-2.63,2.06-4.33,2.33-6.75c1.85-1.39,3.15-0.27,4.42,0.97
		c1.16,2.73,0.74,5.14-1.43,7.21C140.95,45.74,139.82,45.76,138.77,45.05z"/>
	<path class="st36" d="M47.18,161.4c1.72,5.4,3.72,10.68,6.93,15.42c0.41,0.54,0.37,1.05-0.12,1.52c-2.83-2.13-3.61-5.74-5.91-8.24
		C47.03,167.27,46.62,164.39,47.18,161.4z"/>
	<path class="st37" d="M163,119.1c2.45-1.42,4.27,1.04,6.5,1.03c1.74,1.25,3.16,2.72,3.54,4.94c-0.54,0.62-1.25,0.8-2.04,0.78
		C167.76,124.27,163.86,123.48,163,119.1z"/>
	<path class="st38" d="M180.86,177.85c2.84-4,4.95-8.37,6.54-13c0.02-0.06,0.3-0.08,0.43-0.03c0.14,0.05,0.25,0.21,0.37,0.32
		c-0.39,2-0.78,3.99-1.17,5.99c-2.38,2.52-3.19,6.2-6.16,8.28C180.52,178.88,180.52,178.36,180.86,177.85z"/>
	<path class="st39" d="M170.5,125.06c0.84,0,1.68,0.01,2.52,0.01c2.94,2.51,5.4,5.42,7.28,8.81c-0.86,0.12-1.8,0.5-2.28-0.67
		C175.34,130.66,171.28,129.38,170.5,125.06z"/>
	<path class="st40" d="M143.08,38.24c-1.19-0.86-2.49-1.3-3.97-1c0.39-0.41,0.78-0.83,1.17-1.24c4.37,1,8.75,1.96,12.77,4.06
		c-0.2,0.77-0.68,1.26-1.45,1.46C148.45,41.24,145.48,40.49,143.08,38.24z"/>
	<path class="st41" d="M71.04,131.97c-4.7,1.31-9.4,2.63-14.09,3.94c0.09-0.85,0.28-1.63,1.27-1.88c4.22-1.18,8.35-2.8,12.83-2.82
		c0.3,0.17,0.4,0.34,0.3,0.51C71.25,131.89,71.15,131.97,71.04,131.97z"/>
	<path class="st42" d="M152.94,249.09c-0.17,3.47-1.72,4.71-3.93,5.3c-1.05,0.28-0.94-0.66-0.95-1.19
		C148.01,250.16,150.96,250.79,152.94,249.09z"/>
	<path class="st43" d="M188.05,150.08c-2.16-0.97-1.23-3.82-3.04-5.01c-0.35-0.97-1.36-1.73-0.94-2.95
		C188.62,143.16,187.81,146.88,188.05,150.08z"/>
	<path class="st44" d="M80.54,249.59c2.01,0.54,4.39,0.58,4.34,3.3c-0.01,0.31-0.65,0.93-0.86,0.87
		C81.96,253.19,80.91,251.67,80.54,249.59z"/>
	<path class="st14" d="M124.07,264.11c-4.13,1.3-8.27,1.23-12.42,0.1C115.79,264.18,119.93,264.15,124.07,264.11z"/>
	<path class="st45" d="M144.96,280.04c-0.07,1.59-0.78,2.91-1.78,4.1c-2.06-1.05-3.74,0.41-5.54,0.9
		c-13.98,3.77-28.02,4.09-42.11,0.71c-1.27-0.3-2.49-1.17-3.55,0.33c-2.41-0.78-1.83-3.42-3.06-4.93c1.9-1.5,3.82-0.43,5.68,0.03
		c14.96,3.7,29.84,3.7,44.64-0.88C141.1,279.74,143,278.72,144.96,280.04z"/>
	<path class="st46" d="M144.96,280.04c-18.55,6.83-37.22,6.99-56.02,1.12c-3.24-3.44-5.41-7.52-7.08-11.9
		c3.77-0.87,5.74,2.44,8.49,3.83c6.64,3.36,12.94,7.48,20.66,7.99c5.87-0.66,11.87-0.4,16.64-2.11c-5.36,1.06-11.58,0.76-17.66-1.31
		c-1.28-0.44-3.14-0.38-3.01-2.55c2.51-2,5.54-1.28,8.13-0.9c14.31,2.09,25.72-3.99,36.5-12.21c1.03-0.79,1.9-2.79,3.55-0.72
		C152.38,267.86,150.16,274.76,144.96,280.04z"/>
	<path class="st47" d="M60.8,280.07c2.31,1.38,2.58,4,3.57,6.13c1.12,2.4,0.97,5.49,3.91,6.83c0.7,0.32,1.33,0.56,0.08,1
		c-0.8,0.28-2.44-0.05-1.68,1.51c0.46,0.95,1.68,1.42,3.01,1.18c4.8-0.87,9.62-1.64,15.5-2.64c-2.6,2.11-4.24,3.79-5.17,6
		c-0.19-2.73-2.41-2.3-3.67-1.74c-2.88,1.27-6.14,0.51-8.98,2.32c-1.82,1.16-3.97,0.61-4.91-2.25
		C60.48,292.4,60.23,286.29,60.8,280.07z"/>
	<path class="st48" d="M187.15,269.1c-2.05-0.03-2.23,1.55-2.6,3.35c0.27-4.36-3.58-3.81-5.52-5.38c0.79-0.41,0.96-1.14,0.99-1.94
		c0.49-0.72,1.22-1.06,2.05-1.21c1.34,0.41,2.68,0.83,4.01,1.24C186.43,266.48,186.79,267.79,187.15,269.1z"/>
	<path class="st47" d="M153.07,298.11c-1.14-0.83-2.27-1.67-3.41-2.5c4.25,1.07,8.58-0.25,12.68,1.28c2.15,0.8,2.62-0.08,2.62-3.22
		c0-0.32,0.55-0.63,0.8-0.97c3.07-4.18,3.59-9.68,7.07-13.64c0.51,5.42-0.39,10.78-0.97,16.11c-0.61,5.64-2.35,6.35-7.84,4.99
		C160.43,299.26,156.73,298.77,153.07,298.11z"/>
	<path class="st10" d="M182.06,263.92c-0.36,0.94-1.17,1.13-2.05,1.21c-1.15-1.82-4.58-0.31-4.89-3.35
		C177.54,262.14,179.93,262.6,182.06,263.92z"/>
	<path class="st49" d="M76.98,90.02c-8.36,7.79-16.81,15.4-26.13,22.14c-10.27,7.43-21.61,9.44-33.99,9.27
		c28.49-2.69,47.24-20.72,64.91-40.45c5.57-5.85,11.15-11.69,16.72-17.54C92.44,73.22,84.29,81.28,76.98,90.02z"/>
	<path class="st50" d="M78.03,60.1C64.56,71.56,50.1,81.58,34.47,89.84c-8.83,4.66-17.35,6.59-24.71,5.68
		c5.15-1.68,9.35-3.01,13.51-4.42c17.86-6.03,33.75-15.43,47.78-27.99c3.41-2.66,6.82-5.32,10.83-8.46
		C81.15,57.55,78.92,58.35,78.03,60.1z"/>
	<path class="st51" d="M59.06,53.18c-7,2.43-13.74,5.62-21.23,6.58c-3.84,0.49-7.48,0.39-12.44-1.82
		c10.29,0.61,18.9-0.34,26.83-4.65c6.01-1.64,11.4-4.83,17.54-6.42C66.19,48.97,62.62,51.08,59.06,53.18z"/>
	<path class="st52" d="M87.67,35.66c9.05-6.52,17.99-13.23,26.97-19.92C107.31,24.59,98.3,31.18,87.67,35.66z"/>
	<path class="st53" d="M122.51,14.75c-4.87,11.09-13.97,18.2-23.51,24.89C106.98,31.48,115.57,23.89,122.51,14.75z"/>
	<path class="st54" d="M131.7,13.01c-3.89,11.15-9.15,21.49-17.24,30.26C120,33.06,126.17,23.19,131.7,13.01z"/>
	<path class="st55" d="M136.16,232.34c-12.77,6.04-25.54,4.93-38.32,0.01c-3.69-2.74-6.66-6.15-9.06-10.03
		c-0.84-1.36-2.43-2.92-0.2-4.52c1.04,0.08,1.86,0.64,2.65,1.25c13.51,10.49,33.74,11.88,48.39,3.34c1.14-0.67,2.23-1.44,3.59-1.61
		c2.89,1.77,0.58,3.25-0.41,4.56C140.88,227.92,138.08,229.71,136.16,232.34z"/>
	<path class="st56" d="M95.03,207.27c8.86-0.66,17.68,1,26.6,0.1c5.37-0.54,10.9,0.42,16.35,0.71c2.69,0.76,5.81-1.33,8.23,1.25
		c-2.89,4.18-7.66,3.39-11.67,4.03c-12.67,2.03-25.36,1.54-37.97-0.83c-2.27-0.43-4.6-0.66-6.44-2.28
		C90.21,206.71,93.49,208.43,95.03,207.27z"/>
	<path class="st57" d="M95.03,207.27c-1.43,1.54-3.38,1.71-5.28,1.99c-1.4,1.29-3.18,0.05-4.99,0.72c0.23,3.05,4.38,4.59,3.26,8.05
		c1.76,4.77,4.9,8.53,8.63,11.87c0.73,0.66,2.56,0.78,1.2,2.45c-6.52-1.7-11.6-5.57-15.88-10.63c-1.08-1.28-1.91-2.7-2.23-4.39
		c-1.4-7.33,0.02-12.82,8.94-11.29C90.8,206.4,92.91,206.86,95.03,207.27z"/>
	<path class="st58" d="M111.16,201.34c0.54-0.29,1.08-0.59,1.62-0.88c-3.15-1.58-5.52-5.13-9.72-4.08
		c-2.68,0.67-5.44,1.54-6.71-1.88c-1.15-3.09-1.08-6.15,2.19-8.29c0.78,1.5-0.64,2.51-0.65,3.82c-0.01,3.03-0.37,5.94,4.39,4.07
		c2.52-0.99,5.16,0.19,7.66,1.03c4.7,3.4,9.39,3.53,14.07-0.05c2.23-1.57,4.8-1.24,7.2-0.93c4.52,0.59,5.7-0.64,4.35-5.14
		c-0.28-0.92-0.76-1.79-1.23-2.85c3.47,2.33,4.5,4.91,3.3,8.01c-1.25,3.24-3.53,3.37-6.48,2.39c-4.14-1.38-6.71,2.06-9.88,3.62
		c-0.43,0.21-0.37,0.34,1.58,1.09C118.97,202.74,115.07,202.75,111.16,201.34z"/>
	<path class="st59" d="M136.16,232.34c-1.38-2.3,1.2-2.6,1.99-3.74c1.81-2.65,5.31-4,5.86-7.64c1.41-4.6,3.06-9,8.54-10.18
		c1.15,0.67,0.96,1.64,0.62,2.66C152.31,223.18,146.45,229.7,136.16,232.34z"/>
	<path class="st60" d="M153.17,213.43c-0.29-0.77-0.57-1.54-0.86-2.3c-1.86-1.07-3.84-1.75-6-1.83c-2.73-0.71-5.8,0.86-8.33-1.21
		c2.91-1.39,6.09-1.68,9.19-1.7C152.16,206.34,153.83,208.52,153.17,213.43z"/>
	<path class="st61" d="M47.43,139.45c-6.21,6.48-13.11,11.54-22.59,11.35C32.69,147.67,40.09,143.61,47.43,139.45z"/>
	<path class="st62" d="M33.03,173.01c2.72-4.98,5.45-9.96,8.25-15.09C41.42,162.73,39.24,167.14,33.03,173.01z"/>
	<path class="st63" d="M83.38,186.32c-0.45-0.38-0.89-0.76-1.34-1.14c1.89-3.45,6.01-3,8.73-5c7.23-2.24,11.07-8.2,14.65-14.08
		c3.72-6.11,6.25-12.78,5.12-20.27c-0.15-1.02,0.54-1.88,1.25-2.62c3.36-2.61,6.88-3.34,10.66-0.89c1.58,1.35,2.63,2.98,2.52,5.15
		c-0.42,8.29,2.24,15.6,7.04,22.24c0.41,0.56,0.57,1.17,0.46,1.86c-3.12,2.12-3.12-1.37-4.45-2.47c-2.8-6.89-5.96-13.64-5.36-21.44
		c0.26-3.3-2.56-4.14-5.12-3.95c-2.8,0.21-4.57,1.42-4.59,5.07c-0.11,15.37-11.76,31.45-26.2,36.74
		C85.66,185.91,84.5,186.05,83.38,186.32z"/>
	<path class="st64" d="M128.01,169.09c1.68,0.63,2.44,2.69,4.41,2.88c3.54,1.12,4.73,5.34,8.38,6.31
		c4.53,3.67,10.53,4.56,15.19,7.98c-0.77,0.33-1.54,0.67-2.31,1c-7.89-1.21-11.99-3.78-22.06-13.84c-0.78,0.69-0.21,1.44-0.11,2.18
		c0.09,0.6,0.08,1.2,0.14,2.4C128.94,175.15,128.16,172.25,128.01,169.09z"/>
	<path class="st65" d="M124.01,195.07c-5.17,5.68-9,5.69-14.07,0.05C114.64,196.36,119.33,196.41,124.01,195.07z"/>
	<path class="st13" d="M182.08,90.94c6.16,8.19,13.31,15.62,18.7,24.4c5.09,8.3,9.39,16.87,8.23,27.08c-0.07,0.6-0.17,1.2-0.32,2.28
		c-11.15-6.28-20.35-14.37-28.66-23.33c-14.99-16.18-28.19-33.8-40.71-51.97c-3.55-5.15-0.19-8.23,0.8-12.22
		c0,0,0.17,0.01,0.17,0.01c0.79-0.16,1.35,0.25,1.89,0.73c12.02,9.72,24.56,18.76,36.58,28.49
		C180.23,87.6,182.35,88.42,182.08,90.94z"/>
	<path class="st17" d="M140.95,57.85c-0.13-0.32-0.36-0.54-0.67-0.66c-0.43-3.49,1.59-6.55,1.79-9.93
		c4.11-1.36,6.86,2.26,10.44,2.85c0.45,0.15,0.88,0.33,1.31,0.54c9.23,4.79,18.79,8.94,27.69,14.37
		c8.89,5.71,17.26,12.08,24.47,19.86c1.2,1.3,2.84,2.34,2.93,4.39c2.02,3.58,4.13,7.11,6.03,10.76c1.14,2.19,2.09,4.55,2.02,7.1
		c-0.08,2.69-0.42,6.16-2.61,7.11c-1.91,0.83-3.28-2.63-4.71-4.28c-2.9-3.35-5.23-7.22-9.68-8.85c-1.55,0.54-2.5-0.52-3.48-1.37
		c-14.18-12.29-30.02-22.38-44.8-33.88C148.16,63.1,144.33,60.78,140.95,57.85z"/>
	<path class="st17" d="M143.08,38.24c3.01,0.87,6.02,1.74,9.02,2.61c5.07,0.22,9.53,2.62,14.24,4.11
		c7.11,2.25,14.19,4.65,21.15,7.33c2.46,0.94,5.57,1.44,6.62,4.61c1.56,2.64,4.24,4.09,6.51,5.91c9.99,8.02,16.59,18.36,21.13,30.16
		c0.27,0.69,0.03,1.58,0.03,2.69c-4.12-2.23-6.05-6.53-9.94-8.49c-1.74,0.36-2.84-0.8-3.8-1.87c-7.51-8.34-16.89-14.16-26.39-19.85
		c-9.25-5.44-18.9-10.06-28.71-14.39l0.07,0.04c-3.51-2.33-8.26-2.33-11.1-5.92C142.62,42.92,143.22,40.64,143.08,38.24z"/>
	<path class="st66" d="M140.95,57.85c8.79,4.76,16.41,11.23,24.5,17c11.77,8.39,23.89,16.33,34.51,26.25
		c4.34,5.78,9.03,11.34,11.54,18.36c-8.9-10.47-17.77-20.94-29.42-28.52c-12.05-10.57-25.21-19.74-37.73-29.71
		C143.1,60.23,141.4,59.67,140.95,57.85z"/>
	<path class="st67" d="M194.12,56.89c-11.87-6.75-25.21-9.74-37.78-14.7c-1.37-0.54-2.82-0.9-4.24-1.35
		c0.32-0.26,0.63-0.53,0.95-0.79c16.27,4.79,32.65,9.26,47.82,17.11c3.94,3.71,8.35,7.01,10.98,11.91c0.74,1.38,1.96,2.63,1.78,4.98
		C207.93,66.98,202.49,60.22,194.12,56.89z"/>
	<path class="st68" d="M182.09,65.04c11.58,5.15,21.04,13.14,29.76,22.13c1.43,3.72,5.11,6.2,6.15,10.76
		c-4.1-2.33-5.42-6.73-9.09-8.67c-8.27-8.97-17.82-16.42-27.85-23.29C180.9,65.1,181.01,64.53,182.09,65.04z"/>
	<path class="st69" d="M209.18,152.76c-6.41,0.86-10.42-2.98-14.34-7.03C199.48,148.38,204.32,150.59,209.18,152.76z"/>
	<path class="st70" d="M193.83,158.13c3.44,4.92,3.82,10.28,2.77,17.17C195.54,168.7,194.69,163.41,193.83,158.13z"/>
	<path class="st71" d="M170.5,125.06c2.48,2.74,5.53,4.96,7.52,8.15c-14.98-8.96-30.51-5.8-46.06-2.07
		c-2.25-3.85-0.92-7.83,2.03-9.66c1.44-0.9,4.09-3.11,4.46-2.83c4.01,3.05,6.8-2.42,11.16-1.09c3.98,1.22,9.05-0.92,13.39,1.55
		C164.94,121.79,168.17,122.87,170.5,125.06z">
	</path>
	<path class="st72" d="M96.98,134.22c-1.25-0.17-2.56-0.13-3.52-1.16c2.3-1.32,5.81,0.46,7.34-2.85c0.39-0.04,0.79-0.09,1.18-0.13
		c0.88,1.44,2.35,1,3.59,1c8.82,0.02,17.64-0.02,26.45-0.04c0.16,0.25,0.3,0.52,0.4,0.81c-0.25,0.96-0.88,1.58-1.78,1.95
		C119.42,133.12,108.2,133.58,96.98,134.22z"/>
	<path class="st72" d="M102,130.06c0.25-1.77,1.04-3.52,0.17-5.33c0.39-0.3,0.78-0.6,1.17-0.9
		C103.72,126.09,105.71,128.69,102,130.06z"/>
	<path class="st73" d="M106.98,275.11c8.09,3.57,16.49,3.85,25.12,2.33c-6.64,3.75-13.42,6.25-21.1,3.64
		c-1.17-2.07-3.47-2.71-5.18-4.08c-0.53-0.42-1.7-0.76-0.69-1.68C105.5,274.98,106.35,275.16,106.98,275.11z"/>
	<path class="st74" d="M54.02,152.06c11.23-10.86,26.94-13.81,38.93-7.58c4.24,2.2,6.11,6.32,9.01,9.61
		c0.51,3.66-3.51,8.42-8.16,8.04c-10.1-0.83-20.24,0.18-30.28-0.98C58.49,160.57,55.54,156.82,54.02,152.06z"/>
	<path class="st75" d="M54.02,152.06c5.12,8.41,13.17,8.55,21.71,8.09c5.42-0.29,10.9-0.43,16.35,0.78
		c3.63,0.81,8.91-3.23,9.88-6.85c1.86-1.12,3.9-1.11,5.96-0.92c-1.56,5.32-2.71,10.83-6.86,14.97c-7.46,1.02-14.98,0.87-22.41,0.27
		c-7.66-0.62-15.25-1.06-22.9-0.21c-1.7,0.19-3.33,0.12-4.7-1.1c-2.88-4.7-1.94-9.88-1.88-14.94
		C50.79,151.77,52.42,153.2,54.02,152.06z"/>
	<path class="st76" d="M185.99,153.09c2.08,5.36,0.04,10.23-1.84,15.11c-2.61,0.71-5.29,0.61-7.92,0.32
		c-14.08-1.52-28.16-0.99-42.25-0.41c-2.65-2.83-4.25-6.19-4.91-10c0.93-1.11,2.14-1.63,3.56-1.74c6.46,4.09,13.39,3.51,20.56,2.48
		c4.22-0.61,8.66-0.59,12.89,0.4c3.69,0.87,6.48-0.45,9.01-2.87c1.43-1.37,2.45-3.17,4.33-4.06
		C181.7,151.74,184.12,150.14,185.99,153.09z"/>
	<path class="st77" d="M185.99,153.09c-1.99-1.63-4.01,0.36-6-0.04c-2.15-0.91-4.13-2.14-6.07-3.43
		c-10.83-7.18-22.06-8.89-33.88-2.46c-0.74,0.4-1.54,0.63-2.38,0.7c-3.2-0.6-6.72,0.5-9.62-1.76c0.54-4.18,4.32-4.82,7.17-6.01
		c13.87-5.78,27.86-5.65,41.78-0.01c3,1.21,5.32,3.28,7.05,6C185.13,148.3,186.42,150.46,185.99,153.09z"/>
	<path class="st78" d="M133.98,168.11c0.84-1.82,2.41-2.04,4.18-2.03c14.62,0.07,29.25-0.38,43.84,1.07
		c0.75,0.07,1.44,0.69,2.16,1.05c-0.33,1.51-0.85,2.92-1.96,4.05c-15.06,0.63-30.11,0.59-45.17-0.19
		C136.01,170.74,134.99,169.43,133.98,168.11z"/>
	<path class="st79" d="M137.02,172.06c0.71-1.02,1.82-1.75,2.93-1.63c13.03,1.49,26.09,0.23,39.13,0.65
		c1.19,0.04,2.32,0.11,3.11,1.17c-0.39,1.47-0.99,2.8-2.27,3.72c-4.39,1.14-8.89,0.87-13.27,0.34c-8.57-1.04-17.1-0.83-25.65-0.21
		C139.4,175.02,137.95,173.8,137.02,172.06z"/>
	<path class="st80" d="M141,176.1c0.64-1.31,1.68-1.99,3.15-1.99c6.44,0.03,13.03-0.8,19.26,0.33c5.53,1,11.21-0.78,16.51,1.52
		c-0.97,1.44-1.95,2.88-2.92,4.32c-0.13,1.34-0.94,1.08-1.77,0.74c-1.53-1.17-3.35-1.44-5.17-1.43c-7.77,0.07-15.55-0.52-23.3,0.39
		c-2.44,0.12-4.4-0.66-5.56-2.95C141.12,176.73,141.05,176.42,141,176.1z"/>
	<path class="st81" d="M128.03,146.11c3.34,0.24,6.8-0.76,9.99,0.98c-0.62,4.15-3.81,6.75-6.01,9.94c-0.67,1.2-1.86,1.03-2.95,1.08
		C127.69,154.2,125.84,150.33,128.03,146.11z"/>
	<path class="st82" d="M140.15,179.13c-3.09-1.83-5.03-4.9-7.73-7.16c-5.11-7.47-9.12-15.33-8.29-24.75
		c0.18-2.03-1.39-2.85-2.18-4.21c0.49-0.49,1.11-0.65,1.76-0.74c2.58-0.22,3.33-4.02,6.39-3.28c0.8,0.01,1.6,0.03,2.41,0.04
		c-7.19,5.63-8.35,9.36-5.54,18.53c2.39,7.79,6.58,14.43,13.05,19.51c0.3,0.27,0.5,0.6,0.58,1
		C140.57,178.48,140.42,178.83,140.15,179.13z"/>
	<path class="st83" d="M140,177.54c0,0,0.02-0.47,0.02-0.47c0.39-0.01,0.78-0.02,1.17-0.03c1.53,0.71,3.05,1.42,4.57,2.13
		c2.11,0.28,4.13,0.86,6.17,1.5c5.55,1.75,11.18,2.78,16.98,1.03c1.7-0.51,3.53-1.04,5.19,0.29c0.15,1.9-1.52,2.14-2.62,2.39
		C159.95,187.03,149.16,185.93,140,177.54z"/>
	<path class="st84" d="M51.06,167.09c15.29-2.65,30.58,0.87,45.87,0.02c1.44-0.08,3.02-0.37,4.13,1.03
		c-1.29,2.31-2.64,4.58-5.09,5.88c-11.7-0.71-23.41-0.26-35.11-0.36c-2.31-0.02-4.61-0.02-6.88-0.54
		C52.34,171.42,51.4,169.4,51.06,167.09z"/>
	<path class="st85" d="M53.97,173.11c1.28-1.52,3.04-1,4.63-1.01c10.73-0.04,21.46-0.02,32.19-0.01c1.95,0,4.07-0.4,5.17,1.92
		c-0.85,2.26-4.14,2.4-4.45,5.13c-0.01,0.6-0.3,1-0.87,1.21c-0.86-0.09-1.55-0.52-2.19-1.06c-8.38-1.48-16.83-0.38-25.23-0.66
		c-1.8-0.06-3.64,0.39-5.37-0.5C55.8,177.05,54.91,175.06,53.97,173.11z"/>
	<path class="st86" d="M91.16,179.81c0.13-0.21,0.24-0.44,0.35-0.67c11.19-6.53,16.62-16.7,18.4-29.15
		c0.43-2.98-1.09-5.46-2.39-7.97c0.47-0.03,0.94-0.07,1.41-0.1c0.91-0.48,1.61,0.03,2.33,0.48c0.51,0.39,0.93,0.86,1.17,1.46
		c-1.09,1.2-0.99,2.53-0.91,4.11c0.65,12.4-9.71,28.9-20.68,33.21C90.46,180.63,90.57,180.17,91.16,179.81z"/>
	<path class="st87" d="M182.18,138.09c-6.93-3.2-14.22-4.94-21.82-5.63c-3.84-0.35-7.61-0.24-11.38,0.41
		c-0.32-0.21-0.44-0.42-0.33-0.63c0.1-0.22,0.21-0.33,0.31-0.33C160.67,130.51,172.11,130.61,182.18,138.09z"/>
	<path class="st88" d="M148.96,131.91c-0.01,0.32-0.01,0.64,0.02,0.96c-3,0.53-6,1.06-9,1.59c-3.1,0.06-6.38,1.1-8.97-1.62
		c0.47-0.33,0.95-0.66,1.42-0.99C137.93,133,143.44,132.48,148.96,131.91z"/>
	<path class="st89" d="M71.04,131.97c-0.06-0.25-0.05-0.5,0.01-0.75c4.74-0.03,9.49-0.15,14.23-0.04c1.23,0.03,3.2-0.72,3.37,1.69
		C82.85,131.25,76.9,132.49,71.04,131.97z"/>
	<path class="st90" d="M130.1,138.99c-2.75,0.51-2.98,4.58-6.22,4.4c-0.36-0.81-1.47-1.31-1.03-2.46c0.29-0.37,0.64-0.69,1.02-0.96
		c1.06-0.71,2.22-1.29,3.41-2.45c-7.44-0.41-14.52,0.26-21.56-0.38c-0.23-0.02-0.46-0.04-0.69-0.07c-1.97,0.24-3.35-1.11-4.94-1.87
		c-0.34-1.54,0.76-1.49,1.74-1.59c10.34-0.98,20.68-0.62,31.01,0.07c1.41,0.09,3.05,0.35,3.15,2.38
		C133.79,136.56,131.84,137.55,130.1,138.99z"/>
	<path class="st91" d="M136,136.06c-0.52-2.04-2.35-1.54-3.63-1.63c-10.21-0.77-20.43-0.67-30.64-0.08
		c-0.56,0.03-1.09,0.55-1.64,0.84c-1.13-0.02-2.29,0.04-3.11-0.98c10.21-3.26,20.65-2.19,31.06-1.67c0.99,0.05,1.98,0.19,2.96,0.29
		c2.99,0.54,5.98,1.08,8.97,1.62C138.65,134.99,137.33,135.53,136,136.06z"/>
	<path class="st92" d="M111.08,143.32c-0.72-0.46-1.44-0.93-2.15-1.39c-1.3-1.62-2.6-3.24-3.9-4.86c0,0-0.09,0.05-0.09,0.05
		c0.73-0.64,1.62-0.62,2.28-0.13c2.81,2.07,5.75,1.58,8.93,1.06c2.57-0.42,5.79-1.12,7.07,2.61c-0.03,0.22-0.14,0.39-0.32,0.51
		C118.82,141.1,114.74,141.01,111.08,143.32z"/>
	<path class="st93" d="M91.16,179.81c-0.1,0.46-0.2,0.92-0.31,1.39c-2.55,2.18-5.88,2.65-8.81,3.97c-7.94,1.19-15.77,1.37-23.13-2.6
		c-0.42-0.44-0.48-0.93-0.19-1.46c3.39-1.71,6.02,1.33,9.11,1.47c3.38,0.25,6.76,0.11,10.14,0.1c4.23,0.09,7.58-2.95,11.69-3.29
		C90.16,179.53,90.66,179.67,91.16,179.81z"/>
	<path class="st94" d="M58.94,180.96c-0.01,0.54-0.02,1.07-0.03,1.61c-2.01-0.98-3.58-2.47-4.91-4.24c0.04-0.5,0.08-1.01,0.12-1.52
		c1.26,0.76,2.52,1.52,3.79,2.28C58.83,179.39,59.38,179.9,58.94,180.96z"/>
	<path class="st95" d="M140,177.54c9.11,6.34,18.95,9.34,30.05,6.57c1.59-0.4,3.22-0.73,4.33-2.11c0.24-0.87,0.64-1.48,1.69-1.08
		c0.31-0.21,0.61-0.42,0.92-0.63c1.76-0.07,2.4-1.9,3.86-2.44c0,0.51,0.01,1.03,0.01,1.55c-6.83,7.59-15.8,7.39-24.87,6.87
		c-5.75-1.34-11.24-3.26-15.85-7.13C140.1,178.6,140.05,178.07,140,177.54z"/>
	<path class="st96" d="M141.94,45.18c3.27,2.78,8.1,2.63,11.1,5.92c-4.07-0.1-7.13-3.08-10.96-3.85c-1.1-0.74-2.2-1.47-3.3-2.21
		C139.83,45.09,140.88,45.14,141.94,45.18z"/>
	<path class="st97" d="M58.94,180.96c-0.35-0.62-0.69-1.25-1.04-1.87c0.11-0.32,0.09-0.65-0.04-0.96c4.26-2.01,8.77-0.82,13.17-1
		c5.1-0.2,10.22-0.07,15.33-0.03c1.55,0.01,3.58-0.46,3.31,2.28c-2.98,2.9-6.82,3.76-10.69,4.56c-3.93-0.64-7.87-0.51-11.81-0.09
		C64.43,182.89,61.68,181.93,58.94,180.96z"/>
	<path class="st98" d="M146.31,209.29c2.65-1.51,5.03-2.16,6,1.83c-4.16,2.1-5.31,6.74-8.29,9.83
		c-13.43,10.04-28.22,9.77-43.45,5.61c-5.09-1.39-8.89-4.91-12.54-8.54c-1.23-2.1-1.97-4.57-4.12-5.96
		c-1.01-0.65-2.36-1.1-1.77-2.46c0.56-1.29,2-1.72,3.41-1.46c1.42,0.27,2.81,0.73,4.22,1.11
		C108.6,214.36,127.45,214.51,146.31,209.29z"/>
	<path class="st99" d="M111.08,143.32c3.37-3.87,7.46-3.76,11.83-2.15c0.15,0.81,1.36,1.17,0.97,2.22
		c-0.64-0.12-1.29-0.25-1.93-0.37c-3.38-1.96-6.52-1.24-9.53,0.87C111.98,143.69,111.53,143.51,111.08,143.32z"/>
	<path class="st100" d="M182.09,65.04c-0.34,0.31-0.69,0.62-1.03,0.93c-9.37-4.97-18.73-9.94-28.1-14.91
		C163.41,54.19,172.9,59.31,182.09,65.04z"/>
	<path class="st101" d="M73.55,157.85c-4.51,0.36-8.61,1-11.92-2.59c-2.09-2.27-2.15-3.99,0.84-5.38c1.5-0.7,2.95-1.53,4.47-2.2
		c2.63-1.16,4.42-0.56,3.97,2.62C70.5,153.22,72.91,155.09,73.55,157.85z"/>
	<path class="st102" d="M87.86,158.09c-0.38-2.3,1.34-3.27,1.93-4.76c2.16-5.44,2.52-5.54,6.47-1.45c0.85,0.88,2.64,1.59,2.02,3.04
		c-0.7,1.64-2.1,3.04-4.13,3.14C92.03,158.17,89.92,158.09,87.86,158.09z"/>
	<path class="st103" d="M80.83,146.53c-0.11,0.98-0.71,1.41-1.64,1.47c-1.26,0.08-2.53-0.27-2.7-1.57c-0.18-1.39,1.17-1.28,2.12-1.3
		C79.62,145.12,80.63,145.22,80.83,146.53z"/>
	<path class="st104" d="M132.01,157.03c0.6-4.16,3.65-6.84,6.01-9.94c8.97-7.57,25.1-6.37,34.02-0.22c2.73,1.88,6.5,2.61,7.95,6.19
		c-1.43,1.59-2.82,3.22-4.29,4.77c-2.47,2.63-5.56,3.57-9.05,2.95c-6.28-1.1-12.55-1.22-18.79,0.14
		C141.89,162.22,136.9,159.94,132.01,157.03z"/>
	<path class="st105" d="M176.07,180.92c-0.56,0.36-1.13,0.72-1.69,1.08c-7.98,2.43-15.95,2.78-23.85-0.25
		c-1.67-0.64-3.18-1.7-4.77-2.57c6.73-2.31,13.67-0.55,20.49-1.06c1.96-0.15,3.94,0.02,5.91-0.03
		C174.22,178.04,175.71,178.67,176.07,180.92z"/>
	<path class="st106" d="M123.23,140.66c-1.69-1.71-3.83-1.79-6.02-1.69c-0.13,0.01-12.16-1.8-12.26-1.85
		c2.35-2.2,5.28-1.22,7.94-1.3c5.74-0.19,11.5-0.06,17.38,0.51C127.79,137.78,126.75,141.26,123.23,140.66z"/>
	<path class="st107" d="M67.17,183.86c3.94-1.15,7.88-1.42,11.81,0.09C75.04,183.92,71.11,183.89,67.17,183.86z"/>
	<path class="st108" d="M92.12,217c-1.27-1.02-2.52-2.07-2.86-4.2c9.45,1.65,18.69,3.59,28.13,3.47c9.24-0.12,18.42-1.07,27.55-3.08
		c0.03,2.2-1.55,2.99-2.73,4.05c-4.78,3.66-10.63,3.64-16.13,4.05c-8.57,0.64-17.22,0.51-25.76-1C97.37,219.77,94.49,219,92.12,217z
		"/>
	<path class="st109" d="M139.18,220.12c-8.61,6.79-18.68,6.38-28.72,5.55c-5.08-0.42-10.06-1.66-14.37-4.7
		c0.19-2.05,1.68-1.7,2.95-1.5c12.48,2.05,24.95,2.33,37.42-0.12C137.48,219.16,138.43,219.31,139.18,220.12z"/>
	<path class="st110" d="M139.18,220.12c-3.78,0.38-7.6,0.54-11.33,1.18c-9.31,1.6-18.48,0.33-27.68-0.92
		c-1.36-0.18-2.93-1.05-4.08,0.59c-2.02-0.62-3.09-2.2-3.97-3.97c16.67,4.22,33.37,4.21,50.08,0.24
		C141.67,218.7,141.05,220.06,139.18,220.12z"/>
	<path class="st111" d="M161.69,158.08c0.42-2.29,2.04-3.4,2.62-5.17c0.51-1.55-0.21-4.45,2.11-4.51c2.82-0.07,5.41,1.7,7.5,3.53
		c1.58,1.38-1.71,5.75-4.78,6.1C166.75,158.3,164.3,158.08,161.69,158.08z"/>
	<path class="st112" d="M143.27,159.15c-3.17-0.13-5.82-0.97-6.93-4.03c-0.45-1.23,5.3-6.38,6.95-6.6c0.79-0.11,1.51,0.11,1.52,0.78
		c0.04,2.9,1.53,5.32,2.27,7.93C147.79,159.77,144.58,158.64,143.27,159.15z"/>
	<path class="st113" d="M155.51,146.43c-1.19,2.14-2.34,3.17-4.26,2.08c-0.55-0.31-1.21-1.06-0.69-1.63
		C151.87,145.44,153.54,146.06,155.51,146.43z"/>
</g>
</svg>
